<mxfile host="app.diagrams.net" agent="Mozilla/5.0 (Macintosh; Intel Mac OS X 10_15_7) AppleWebKit/605.1.15 (KHTML, like Gecko) Version/18.3 Safari/605.1.15" version="27.2.0">
  <diagram name="Page-1" id="32M6JvhvVxVHetDyQvSY">
    <mxGraphModel dx="976" dy="2302" grid="1" gridSize="10" guides="1" tooltips="1" connect="1" arrows="1" fold="1" page="1" pageScale="1" pageWidth="1600" pageHeight="1600" math="0" shadow="0">
      <root>
        <mxCell id="0" />
        <mxCell id="1" parent="0" />
        <mxCell id="E22wLcEm3Iu96GdcyPxs-1" value="Man&#39;s" style="ellipse;whiteSpace=wrap;html=1;aspect=fixed;fillColor=#6d8764;strokeColor=#3A5431;fontColor=#ffffff;" parent="1" vertex="1">
          <mxGeometry x="210" y="105" width="70" height="70" as="geometry" />
        </mxCell>
        <mxCell id="E22wLcEm3Iu96GdcyPxs-2" value="Search" style="ellipse;whiteSpace=wrap;html=1;aspect=fixed;fillColor=#647687;strokeColor=#314354;fontColor=#ffffff;" parent="1" vertex="1">
          <mxGeometry x="340" y="105" width="70" height="70" as="geometry" />
        </mxCell>
        <mxCell id="E22wLcEm3Iu96GdcyPxs-4" value="For" style="ellipse;whiteSpace=wrap;html=1;aspect=fixed;fillColor=#76608a;strokeColor=#432D57;fontColor=#ffffff;" parent="1" vertex="1">
          <mxGeometry x="480" y="105" width="70" height="70" as="geometry" />
        </mxCell>
        <mxCell id="E22wLcEm3Iu96GdcyPxs-5" value="?" style="ellipse;whiteSpace=wrap;html=1;aspect=fixed;" parent="1" vertex="1">
          <mxGeometry x="630" y="105" width="70" height="70" as="geometry" />
        </mxCell>
        <mxCell id="E22wLcEm3Iu96GdcyPxs-7" value="" style="endArrow=none;dashed=1;html=1;rounded=0;endSize=100;" parent="1" edge="1">
          <mxGeometry width="50" height="50" relative="1" as="geometry">
            <mxPoint x="40" y="200" as="sourcePoint" />
            <mxPoint x="860" y="200" as="targetPoint" />
          </mxGeometry>
        </mxCell>
        <mxCell id="E22wLcEm3Iu96GdcyPxs-10" value="Input" style="shape=hexagon;perimeter=hexagonPerimeter2;whiteSpace=wrap;html=1;fixedSize=1;" parent="1" vertex="1">
          <mxGeometry x="40" y="110" width="110" height="60" as="geometry" />
        </mxCell>
        <mxCell id="E22wLcEm3Iu96GdcyPxs-11" value="&lt;div&gt;Tokenization&lt;/div&gt;" style="shape=hexagon;perimeter=hexagonPerimeter2;whiteSpace=wrap;html=1;fixedSize=1;" parent="1" vertex="1">
          <mxGeometry x="37.5" y="220" width="115" height="60" as="geometry" />
        </mxCell>
        <mxCell id="E22wLcEm3Iu96GdcyPxs-18" value="" style="edgeStyle=orthogonalEdgeStyle;rounded=0;orthogonalLoop=1;jettySize=auto;html=1;" parent="1" source="E22wLcEm3Iu96GdcyPxs-16" target="E22wLcEm3Iu96GdcyPxs-17" edge="1">
          <mxGeometry relative="1" as="geometry" />
        </mxCell>
        <mxCell id="E22wLcEm3Iu96GdcyPxs-16" value="RNN" style="text;html=1;align=center;verticalAlign=middle;whiteSpace=wrap;rounded=0;" parent="1" vertex="1">
          <mxGeometry x="240" y="15" width="60" height="30" as="geometry" />
        </mxCell>
        <mxCell id="E22wLcEm3Iu96GdcyPxs-17" value="&lt;div&gt;Transformers&amp;nbsp; &amp;nbsp; &amp;nbsp;&amp;nbsp;&lt;/div&gt;&lt;div&gt;&amp;nbsp; (Human design Define Phase )&lt;/div&gt;" style="text;html=1;align=center;verticalAlign=middle;whiteSpace=wrap;rounded=0;" parent="1" vertex="1">
          <mxGeometry x="380" y="15" width="180" height="30" as="geometry" />
        </mxCell>
        <mxCell id="E22wLcEm3Iu96GdcyPxs-19" value="GPT-3 has&amp;nbsp;&lt;div style=&quot;display: contents&quot; data-subtree=&quot;aimfl&quot;&gt;a vocabulary size of &lt;/div&gt;&lt;b class=&quot;Yjhzub&quot;&gt;50,257 unique tokens&lt;/b&gt;" style="text;html=1;align=left;verticalAlign=middle;whiteSpace=wrap;rounded=0;" parent="1" vertex="1">
          <mxGeometry x="790" y="235" width="140" height="30" as="geometry" />
        </mxCell>
        <mxCell id="E22wLcEm3Iu96GdcyPxs-20" value="&amp;nbsp;GPT3 Parameters Calculation" style="text;html=1;align=center;verticalAlign=middle;whiteSpace=wrap;rounded=0;fillColor=#e1d5e7;strokeColor=none;strokeWidth=1;fontStyle=1" parent="1" vertex="1">
          <mxGeometry x="790" y="80" width="160" height="30" as="geometry" />
        </mxCell>
        <mxCell id="ulG9UOa0KZaU5ygMavOp-1" value="" style="endArrow=none;dashed=1;html=1;rounded=0;endSize=100;" parent="1" edge="1">
          <mxGeometry width="50" height="50" relative="1" as="geometry">
            <mxPoint x="50" y="310" as="sourcePoint" />
            <mxPoint x="870" y="310" as="targetPoint" />
          </mxGeometry>
        </mxCell>
        <mxCell id="ulG9UOa0KZaU5ygMavOp-2" value="&lt;div&gt;Embedding Layer&lt;/div&gt;&lt;div&gt;Token -&amp;gt; Vectorize&amp;nbsp;&lt;/div&gt;" style="shape=hexagon;perimeter=hexagonPerimeter2;whiteSpace=wrap;html=1;fixedSize=1;" parent="1" vertex="1">
          <mxGeometry x="40" y="340" width="120" height="60" as="geometry" />
        </mxCell>
        <mxCell id="ulG9UOa0KZaU5ygMavOp-3" value="&lt;div&gt;向量，空间，特征&lt;/div&gt;&lt;div&gt;Embedding : 把token 映射到新的数学空间&lt;/div&gt;" style="text;html=1;align=left;verticalAlign=middle;whiteSpace=wrap;rounded=0;" parent="1" vertex="1">
          <mxGeometry x="45" y="420" width="150" height="30" as="geometry" />
        </mxCell>
        <mxCell id="ulG9UOa0KZaU5ygMavOp-4" value="&lt;div&gt;GPT3 has a dimension number of 10288&amp;nbsp; - *d-model&amp;nbsp;&lt;/div&gt;&lt;div&gt;Each token is represented by a vector of 12,288 dimensions&lt;/div&gt;&lt;div&gt;[vocab_size, embedding_dim] = [50257, 12288]&lt;br&gt;50257 × 12288 = 617,173,056 parameters&lt;/div&gt;" style="text;html=1;align=left;verticalAlign=middle;whiteSpace=wrap;rounded=0;" parent="1" vertex="1">
          <mxGeometry x="790" y="330" width="330" height="30" as="geometry" />
        </mxCell>
        <mxCell id="ulG9UOa0KZaU5ygMavOp-8" value="E[8294]&amp;nbsp; &amp;nbsp; →&amp;nbsp; [0.132, -0.045, ..., 0.008]&amp;nbsp;" style="text;html=1;align=center;verticalAlign=middle;whiteSpace=wrap;rounded=0;" parent="1" vertex="1">
          <mxGeometry x="200" y="345" width="110" height="30" as="geometry" />
        </mxCell>
        <mxCell id="ulG9UOa0KZaU5ygMavOp-12" value="[8294, 19635, 390]&lt;div&gt;&lt;br/&gt;&lt;/div&gt;" style="text;html=1;align=center;verticalAlign=middle;whiteSpace=wrap;rounded=0;" parent="1" vertex="1">
          <mxGeometry x="200" y="250" width="370" height="30" as="geometry" />
        </mxCell>
        <mxCell id="ulG9UOa0KZaU5ygMavOp-13" value="E[19635]   →  [-0.031, 0.117, ..., -0.002]" style="text;whiteSpace=wrap;" parent="1" vertex="1">
          <mxGeometry x="340" y="330" width="90" height="40" as="geometry" />
        </mxCell>
        <mxCell id="ulG9UOa0KZaU5ygMavOp-14" value="E[390]     →  [0.098, 0.015, ..., -0.013]" style="text;whiteSpace=wrap;" parent="1" vertex="1">
          <mxGeometry x="480" y="330" width="100" height="35" as="geometry" />
        </mxCell>
        <mxCell id="ulG9UOa0KZaU5ygMavOp-17" value="词元化" style="text;html=1;align=center;verticalAlign=middle;whiteSpace=wrap;rounded=0;" parent="1" vertex="1">
          <mxGeometry x="50" y="280" width="100" height="30" as="geometry" />
        </mxCell>
        <mxCell id="a-N1-dz5hdk3Jsslyo4F-1" value="&#xa;Token Embedding: V × d_model = 50,257 × 12,288 ≈ 618M" style="text;whiteSpace=wrap;fontColor=light-dark(#ff2600, #ff7777);" parent="1" vertex="1">
          <mxGeometry x="790" y="380" width="290" height="30" as="geometry" />
        </mxCell>
        <mxCell id="a-N1-dz5hdk3Jsslyo4F-2" value="&lt;span data-end=&quot;250&quot; data-start=&quot;236&quot;&gt;Parameters&lt;/span&gt; are the &lt;span data-end=&quot;280&quot; data-start=&quot;259&quot;&gt;learnable weights&lt;/span&gt; of the model — the values the model adjusts during training to reduce error and improve performance." style="text;html=1;align=left;verticalAlign=middle;whiteSpace=wrap;rounded=0;fillColor=#e1d5e7;strokeColor=none;strokeWidth=1;fontStyle=1;fontColor=#FF3333;" parent="1" vertex="1">
          <mxGeometry x="790" y="115" width="290" height="60" as="geometry" />
        </mxCell>
        <mxCell id="a-N1-dz5hdk3Jsslyo4F-4" value="&lt;h3 style=&quot;text-align: center;&quot; data-start=&quot;383&quot; data-end=&quot;458&quot;&gt;&lt;br&gt;&lt;/h3&gt;&lt;h3 style=&quot;text-align: center;&quot; data-start=&quot;383&quot; data-end=&quot;458&quot;&gt;&lt;br&gt;&lt;/h3&gt;&lt;h3 style=&quot;text-align: center;&quot; data-start=&quot;383&quot; data-end=&quot;458&quot;&gt;&lt;br&gt;&lt;/h3&gt;&lt;h3 style=&quot;text-align: center;&quot; data-start=&quot;383&quot; data-end=&quot;458&quot;&gt;&amp;nbsp; &amp;nbsp; &amp;nbsp; &amp;nbsp; &amp;nbsp; &amp;nbsp; &amp;nbsp; &amp;nbsp; &amp;nbsp; &amp;nbsp; &amp;nbsp; &amp;nbsp; &amp;nbsp; &amp;nbsp; &amp;nbsp; &amp;nbsp; &amp;nbsp; &amp;nbsp; &amp;nbsp; &amp;nbsp; &amp;nbsp; &amp;nbsp; &amp;nbsp; &amp;nbsp; &amp;nbsp; &amp;nbsp; &amp;nbsp; &amp;nbsp; &amp;nbsp; &amp;nbsp; &amp;nbsp; &amp;nbsp; &amp;nbsp; &amp;nbsp; &amp;nbsp; &amp;nbsp; &amp;nbsp; &amp;nbsp; &amp;nbsp; &amp;nbsp; &lt;font&gt;&lt;span style=&quot;font-size: 14px;&quot;&gt;&amp;nbsp; &amp;nbsp;&lt;/span&gt;&lt;font style=&quot;font-size: 14px;&quot;&gt; &lt;/font&gt;&lt;font style=&quot;font-size: 18px;&quot;&gt;How Many&amp;nbsp;&lt;/font&gt;&lt;/font&gt;&lt;font style=&quot;font-size: 18px;&quot;&gt;&lt;font&gt;Parameters GPT3 has?&lt;/font&gt;&amp;nbsp;&lt;/font&gt;&lt;/h3&gt;&lt;h3 data-start=&quot;383&quot; data-end=&quot;458&quot;&gt;&lt;span style=&quot;font-weight: normal;&quot;&gt;GPT-3 is a transformer&lt;b&gt; decode-only Model&lt;/b&gt;. The total parameter count depends on&lt;/span&gt;:&lt;/h3&gt;&lt;h3 data-start=&quot;383&quot; data-end=&quot;458&quot;&gt;&lt;font style=&quot;font-size: 12px;&quot;&gt;&lt;span style=&quot;font-weight: normal;&quot;&gt;1. Embedding Layer&lt;/span&gt;&lt;/font&gt;&lt;/h3&gt;&lt;h3 data-start=&quot;383&quot; data-end=&quot;458&quot;&gt;&lt;font style=&quot;font-size: 12px;&quot;&gt;&lt;span style=&quot;font-weight: normal;&quot;&gt;2. Transform blocks (with Self - attention and feedforward layers&lt;/span&gt;&lt;/font&gt;&lt;/h3&gt;&lt;h3 data-start=&quot;383&quot; data-end=&quot;458&quot;&gt;&lt;font style=&quot;font-size: 12px;&quot;&gt;&lt;span style=&quot;font-weight: normal;&quot;&gt;3. Output Project Layers( Often tied with embedding layers&lt;/span&gt;&lt;/font&gt;&amp;nbsp;&amp;nbsp;&lt;/h3&gt;" style="text;html=1;align=left;verticalAlign=middle;whiteSpace=wrap;rounded=0;" parent="1" vertex="1">
          <mxGeometry x="70" y="-160" width="760" height="30" as="geometry" />
        </mxCell>
        <mxCell id="LffQwIVgkhD6esxELWRf-1" value="" style="endArrow=none;dashed=1;html=1;rounded=0;endSize=100;" parent="1" edge="1">
          <mxGeometry width="50" height="50" relative="1" as="geometry">
            <mxPoint x="45" y="460" as="sourcePoint" />
            <mxPoint x="865" y="460" as="targetPoint" />
          </mxGeometry>
        </mxCell>
        <mxCell id="LffQwIVgkhD6esxELWRf-3" value="&lt;div&gt;Positional&amp;nbsp;&lt;/div&gt;&lt;div&gt;Encoding&lt;/div&gt;" style="shape=hexagon;perimeter=hexagonPerimeter2;whiteSpace=wrap;html=1;fixedSize=1;fillColor=#d5e8d4;strokeColor=#82b366;" parent="1" vertex="1">
          <mxGeometry x="40" y="480" width="120" height="60" as="geometry" />
        </mxCell>
        <mxCell id="LffQwIVgkhD6esxELWRf-4" value="&lt;div align=&quot;left&quot;&gt;&amp;nbsp; &amp;nbsp; &amp;nbsp; &amp;nbsp; &amp;nbsp; &amp;nbsp;&amp;nbsp;&lt;/div&gt;&lt;div align=&quot;left&quot;&gt;&lt;br&gt;&lt;/div&gt;&lt;div align=&quot;left&quot;&gt;&amp;nbsp; &amp;nbsp; &amp;nbsp; &amp;nbsp; &amp;nbsp; &amp;nbsp; &amp;nbsp; &amp;nbsp;With Transformer&lt;/div&gt;&lt;div align=&quot;left&quot;&gt;&amp;nbsp; &amp;nbsp; &amp;nbsp; &amp;nbsp; &amp;nbsp; &amp;nbsp; &amp;nbsp;&lt;/div&gt;" style="rounded=0;whiteSpace=wrap;html=1;dashed=1;align=left;" parent="1" vertex="1">
          <mxGeometry x="30" width="162.5" height="60" as="geometry" />
        </mxCell>
        <mxCell id="LffQwIVgkhD6esxELWRf-17" value="" style="whiteSpace=wrap;html=1;aspect=fixed;fillColor=#d5e8d4;strokeColor=#82b366;" parent="1" vertex="1">
          <mxGeometry x="60" y="30" width="10" height="10" as="geometry" />
        </mxCell>
        <mxCell id="LffQwIVgkhD6esxELWRf-26" value="&lt;div&gt;位置编码 - 语义受位置影响:&lt;/div&gt;&lt;div&gt;Cats chase a dog&lt;/div&gt;&lt;div&gt;Dogs chase a cat&lt;/div&gt;" style="text;html=1;align=left;verticalAlign=middle;whiteSpace=wrap;rounded=0;" parent="1" vertex="1">
          <mxGeometry x="40" y="560" width="185" height="30" as="geometry" />
        </mxCell>
        <mxCell id="LffQwIVgkhD6esxELWRf-27" value="" style="shape=image;verticalLabelPosition=bottom;labelBackgroundColor=default;verticalAlign=top;aspect=fixed;imageAspect=0;image=data:image/png,iVBORw0KGgoAAAANSUhEUgAAAX4AAACGCAYAAADabOE8AAAgAElEQVR4Xu3dCbyv1bw/8OecihKRNJ5CcjXqXtQNdUMUcVNcU91ug8xSpv4priakJBFpMKSJm1kqVBqRylVESaaLyhgqaTr9n/c657tbe53n9/s9v71/++y9T8/qtdtn/37PsNZ3+Hw/3+9az7Pm3Fu3amGLf86ZMyc+mtTvUV8vOvOrX/2qWnrppat58+ZNqn/9T763uvW2W6of/uCH1QorrFCtu9661dJLLV2cMnfs7xjrtddeW912223VJpts0vfyv/vd79L3q666avr9l7/8pXrYwx42heOZ2kvffffd1a9//et0k7XXXnuRm5FPZmqLfD937gJZ3nrrrdVNN91UPfaxj228Rnw4v/5Haacsmem60i9+8Yvqpz/9abXNNtukU/rZ4jXXXJP08PCHP3zs2Lg2Pf35z39OtsYOFne78cYb032XX3754tbctvBTQqkHf9l3/rd69AaPrZZ58LLV3Pm3Vyss89Dq1vqrZeufZcaddk/9yVLVj3/8g2r+3KWqjdbbsO/w/va3v7WSQS89L6qvMejpe1/n9bOdfic7b1R45jrs4Z577qnWWGONvn3O7e33v/99tcoqqywyhjiG7Uc///CHP1QPetCDqgc+8IEJ40bZ2PFDHvKQaplllqnm5MA/yptM5bVGqcze/by3uvueu2qwf0A6ZP78u6q5tXOMb/cB/2THe8cddyRlL6ltkOPedddd1QMesEDWvVp+jX7AP3/+/GrphYEkrtV0fzJfdllw2Lu5Vu6Y06GfO++8s0E2DcC/AMfH2t113++q9H/p+v816Nc/Y1CSTl8YKRae4a97qnurufV3LDsAswyaeX8E/BKgZhLwj1JfwwSQIDrJFhcC+CAfQHoEeIEFOE9lm5XAP5UCue/a82uwv6d2GgrAVuc3MIfRAH+Ay+IZ19TdBQgAyWDv+Z0GGX0OMv7ddK1+wE8TQQgEEf/mcCHbfk7bi4kG02zj8Hnf2hw/eS2AaS3POqvqH7fXwWy5B6bMZwGQL2gB8UA9siKfC35LLbVU+rl3YaZvLE2WXY5rkN2WOp8Oxj95Od93hWHtwfjJiGyHbUkHBXkZ9hr9ju+Av4908sxiKrOMqbz2KI2lu1ZvCSx+4A84792nmuuPAT/yksJEAv45jcAeocRxTeC/eALakmNlwfrJbSbJLuHNbCz1LDmmsWAkHfAvaRpdXOPJoXrRewL+Xq3pmw74R6u3mQj8Y2W7DvhHq+zuap0EZqsE+gH/TGKss1W+093vcVlpB/zTrY7u/p0EZoYEyvwh5k30rgP+maGjyfaiY/yTlWB3fieBTgKdBGahBLoa/yxUWtflTgKdBDoJTFYC3eTuZCXYnd9JoJNAJ4FZJoEO+GeZwrrudhLoJNBJYLIS6IB/shLszu8k0Emgk8Ask0AH/LNMYV13Owl0EugkMFkJdMA/WQl253cS6CTQSWCWSaAD/lmmsK67nQQ6CXQSmKwEOuCfrAS78zsJdBLoJDAFEmh6IcdoXgtZP5DXPbk7BRrrLtlJYKEEylcaz3TBdO+NGo2GJq73++C+6V1LHfBPUD9ek6pN5StPJ9i1GXsamc20NwwSVrwEaybrchgAGPSa44kayEzow0T7Xp430wPToFdRD5bDDAD+pk0WBnd8+o/gQOFEOSgEULQB/lKBzpnq95UM46C5lOnJO79H1b9wLu+1T6/wrd8LvriBXx+Ma9CGFLMBCGysMWg3pbBZx8WYmgJbk102eVxuC8PYVR58Sn/J+zUqW2uDFmWf8h25yn7EJjHDjLlNH9oek8soMGPcy9F67G4Y2+rcvXDDp3oHkPrdqvUeCcWNp5zxX3XVVdX3vve96hnPeEbjVnptBTEdx9n+8Lzzzku3Xm655apHPvKR1ZZbbpmcj6Ewjt/+9rfVlVdeObbl4RZbbJG2RwsmyVm/+tWvVr/85S8T+NgW8elPf/qUbvdYGqu/v/vd71Y/+tGPxtit/nEE30X2Yjybbrpptfnmm49E3K5tC7gvfvGLaYu5f//3f0+7ArnfoF2yRtEB4/nsZz9b/eMf/6h22GGHaqWVVup7WcefffbZqc+veMUrUj/p/49//GP1ohe9aGDwGEWf9fXiiy+ubAsqUAqaz3ve86o111wzBbAA9J/85CfJr2Jnpqc+9anVWmutlc7xGTl//etfr2y5aFy2g3zmM585zjbb9Lfc2KbNOXGMLRavvvrq5B/6o9myzxjtWObf//Zv/zbWp2GuPeyx+sAHtt122+THGrmELQax89n555+ffOXlL3/5YtnG1DaMF1xwQXXLLbekftm+k1xghf6xgRtuuKG69NJLKzK1u9YTn/jEaoMNNhgnBtuEXljbzr1z51S3335rsoetn/msatlllk0b6ORtyoH/He94R/Wxj32s+uQnP5mEPpVtIqyNQTDOjTbaqPqXf/mXcd07/fTTq1e+8pVp79sVV1yx+s///M/q0EMPTUFA+8pXvlIde+yx1f/+7/8mBdmFaKuttqr+3//7f9VTnvKUMePafffd07GM3z6YRx55ZLXLLrtMmShK4Nevd77znamvaZ/MhXuPlsDP+F//+tdX73rXu0bWt3PPPTeB6L/+679W5BmgNIiBt+0Agx7bFao4ibM861nPSoB55plnVv/0T//UeNlgd9ddd13Sy/XXX5/AHkDtscceCYi/853vTGmwjo796U9/qvbcc8/qf/7nf6pHPOIRKUAed9xxCfyjnXLKKdUHP/jBCvizRfpEON7+9rdXT3jCE9Jh9md9wxvekAKZ8QE7+mef2iDGnzPgQTrrldXam5U9GYugyw4j86MTW4QCuP322y/tLT2RUltbn//ABz5QHXDAAdVJJ52USIB2xhlnpCD//Oc/P8lan/76179WL3vZy1JQveSSSxYB13522TZjLvvsXi9+8Yur3/zmNwkf6PDEE0+sHvWoR6Xbfetb36oOPvjgFEDZx4Mf/OBq3XXXrfbZZ59qu+22G9tq9Ywzvlzt/eY3pf2mb/7zX6ttn7ttddyxx1Wr14Gkrl0UwD8a6O85uUupjBTwccKpbMPWNkXSfffdtzrhhBOS8e2///7jusfBfHbQQQclps9QMS8NoAEFhvOmN70pAdtZZ51VOYcRfe1rX6vWX3/9dKzMAeMSAIHqF77wheo5z3nOlImiBH7jZCSMCfg+9KEPHWP+jg025vdqq61WrbfeeiPr2ze+8Y3EnJ72tKdVp556arouIOLkedmirQM7nwnbED0BWL01IC5pl905xfaxwBugGP8FF19UPfYx66SUN0x+wXUWbKLtM+yYI/3sZz9LwKmfghYAMI7Q58iE03Ah9vS6170uBZ+TTz459d2G8dixxo922223BPgChGAmo5LZYP1AFmPUMEBgRO6f/vSnq49+9KNDAz8Qectb3pIyW9dhO2ULe8sDAP3apB7xswk94oGB0jnWKsgKVIBs++23rz70oQ+NMfFB8s1tpa3dCJ6An/3zZUH9pS99aaUiwR8xaE1weu5zn5vkz8fJty2usBfjGxTAyj4jFYINPOErf//736vHPe5xqT+//vWvE2HWH8RT3wSK9773vdWjH/3olNUFofnHP/5e/fzn11dzl5pb2+2rqgct96BEuOfNW6u2+wUZV23t6Xe9sekgMbf6fiDwK3cE2yivKMpK/TjgoBIAQ6Y0wpPy5EIOBfVTVCn0t771rQmQgTfDyL8HlALCZz7zmQRceaMg7IECXENjxAceeGD14Q9/uNp1110T0Obt85//fFIs43v2s5/dSrBtDiprpiXwk5k+6q8UdvXVV29z2XGyIFOZD+NuKpn4PLKJ/OLnnHNOGvM222xTffzjH09f3X777clB2rB+1wV+gC50XQK/a6bNv+ffW91w042JEa2wwgqpr4KYfkuB16udafy24HXQWFiOWq0uz9GfgAz4b7rppmSLriEgRpbXJDgpOtt1337NtQBLabfJIRcGIMCPJctWZCk50LoPguGYww8/PMlVMz6B/ROf+ESyYTabN3KXZSJgQb76Mf58T1i2I5vANoF/k+7zGn5kCn6zGdnuj3/84xTESkLBDoAw8P3Upz5VvfCFL0zkKp8TNDZ2kuNC7qN5+QtgJluobct18ua4v/zlL4mUaZHNCerKLEA0z3L0LXRe3s999Cm3CTbKTuBY3sgg9J7rMseob3/729VOO+1Uvfvd707gntuD4P6Rj3yk2nvvvdP3bEeTwQiciIpgP77dWz33edtWd991d3Xip06s1lh9zTHgD9pTb+LY11bbftka+DnVl7/85SRkkQwzFv0ZNabCEASIcCJA9bnPfS6luo5xvJSIcilLBNxss83G+qls43hAbV4hbz/84Q8T83n84x9fPelJT0oR/bTTTkuplOOBsZIPYWqiJcZfAr/oyxmkW8B97bXXHruN/hoXpnTRRRel60UL4MfOAOGgdvTRRydj1XqxCIZGBtho04SQcxn9m9/85pSNtAV+IEg2DI1syJTu6MC43RMIkSHn8Z2apHKZ8avpawH8ZPuqV70qHa8P9Oc62IrvAHXegIUyBdvAEAWrVVdfrdqpdoy11phX3bWQ8ZvjqnlA9bWvfqm64jsXVdf/4ufVw+rsin632GLLlNYD8Usvu6x63LqPqx6w9DLV32un/trXzq71c3H93Y11NrZS9aQ6vd5www0T6JqPUXfl3GSGOe+1114JhK+44orEupXy9Em5wPecHktju1Hmi/EYL+KD+QINKbx6O/vF1p/85CcnGdNxP+DnN8DRHBHykIMw1rjzzjsn4MEI/Q5wGQb4m2r6Ac7YZ6mnAKnSlgP4ZSd0SY5NmeQRRxxR/fd//3cKTK997WvHLgOMZVnuCcTNm7EVwJgHAbZNFvRCdmQoa2Wb5pQiAJCPkh2Wb/5Eds6m/+///i+VxOiaTrbeeuuEET//+c+r17zmNWMy5luCF13CH6DP5/g3X45gKWsExHzB9fg8vODHMjfYY74oD25NwE8Q+sk2HEse7FMTSIxVhuBz/iezva/dU/vgc5P+kQGM/56qXmCR/luwYftiB37Cx1QIAzADEgLkbL4D/tIy6Z9GCQzaREYwC0YAmAA50D/ssMPGGDlBq9Mqz2C5+SoHDvDqV786CZ6Dv//9768uvPDCpJSVV1459QPjC8ZEaICfInPGjzm98Y1vTAYjRQ3jD2N/wQtekABP4GBo0YYFftdRJhqUOkrhOWc/4JfRcD5O2Ibx04++cwwApQ/kTk+CK1kJxgIxFqUEZq6Do/7Xf/1XYik58HPWxzzmMakurd6M+XIiNU1Zk5JKNAxQicBkHLBwfQHgl3Vftt/+BdVh7/tA7dwPr+6os9d7766qDx9+aHXUkYdV1VJz6uPXrZZZbtk6APyqWmXl1aorasCn26/X+vjn2unuuPuu6vDDDq+B5v01OC5XrbPOOsmJb6idmbP+4Ac/SCAA+NnOS17ykjRGZQv9ZpuCKDs1ZkzPv41F8GMn7CbIAP2xFROGgGvevHlp/gCjVP5DOtiqUojmO6WeJsYvm3Ss0gvAzBuigTUCtMvqMStdBLhMBPjzawNDjJ9uS0Y7CPhlvmxOmagJ+Pnu2972tpQl80kNmTrkkEOSj6t38yvXIDNg7LsAf/oQOPTLfIHfQN78guwnymJHHXVUYsiye2wfY2ZT7NA9yIrc+ZyaPxmyZ985hj0ef/zxyV433njjlGV9//vfT4GQXoAwMsN2lW1uvvnmBMb8B+DTK3tmy/qAHIW/9gJ++OG6//zP/5yCeeAAObBRdf/3ve99KRNgk9HYLRwjtwXAP2/K9uNuzfgNHvCKmoxYEDBxSlCUA4yBFAagYZ3SRYMGwgwJ8wLWlEcZ2OcxxxyTgAkrMlECTAiDY1qi6HwASbkCiejNuQnP52r9HBTDjWyjF/BzPH3VRylYWVphCO5PKYLDRIFfnRmTHLTEErA1OWCwN0ZNptJpMg82Pg456j+AFUYCCBk1AAdo5KW0QC70xLA5F2ZFN3SIxXIUzstIBQcMJRg/hoIJmxz3OefDVkyeq/1i0a6BCHBuZQ62gE3RK3t5Uy33M796VrXPfvtXBxx4cLX8MlX10+t+XW39+H+q1njMutU7j/xg9a+bbVzNWXrOgrryfx9YnVcDvoDzmZoVblpnAd+s72nS61E1iB9yyLtqsNiiWr4e1zVX/6h6z3vekxg8e2Qb2n/8x3+kvgA9cgM0dM7xABSwwSpjUlZGI+gZF9tzTeCGyHBQtguk6QJ4Gy+AYjMawDL+JuAXHJXrBHABqWx0jIh86UtfGstaHdMW+NkLvzJW/wZkMhRMXMDnW4IV4GGX5MRmoradl0qCBPFXYIg8lXMk7oOZk4c6uwCDcChHuT4f8xnfRRjIhV2xYQso2JR5DaViWTkSCJjdj10KzHCBffFVRFCGhbBg03xTpkDnCABQNn5ZGwIg2BufzNv92JEAxUfolm8YH7+AU7JM95aVuT6foSc6l7Xqgx8Bmh0JXn56AX8EevI3Di2WRtMNUiwT5Z+wMBp/NwayoPsZAfwELaoybAaUp20EiWUSLMfwnbII4REYxed1NVFXmQAYAXIsB4AQPKED/nzCJYAfoHEgDdMCMJEh5M7UC/hlDRRNGa4VyyEjIlMIw+PYanQTBf5FPHvAB70YP2MBCgDpwQ+9r6Qyt1jcy1jIkSH//Je/qMskL0iM5rQaaGIJXAAJEBJggVDoEJgLioxNdsPBAvixPc4dk5QRqDAybJA86RkxkKJjXXSe10V/e+MNdfnm36q16wDxqU/WtctHPbLaZafdq/M/fWL11n0Pqt783nfWzE2Nt55HqFnaT35ybbXV05+VxnDBRecnAEAeDq+D8mv3fH11zNEfru5euFxu6RpcBC79URoSdHsBP4Kgj2xTi1VBxgcIADmQAWyASZAAOJhbjBswYqACAxtkfxrgURJrAn73VP7wo9xTNnV+AKAf5Bf20Ab4A7QdiwRFHZvt8FMNm/ZDzz4HOIJfLBAI+8/LRfxDMARQgJWvOF92xFfJmd4BKj0Be7IjQ0w+b0o6QBMLVx0gd0uPBc98gtY5wC/mU/wdwO+e5CjY0LWMyw9Q1wA02SIOsjV9dk92XM5TGguCh8z44esB/MiY7Eug1A/kQPkItiEL8C0m4ZuA3zkyIdUFASAywnxugI8JCmQMw/IWGcWMAX5sUN2VYcdqkugwtiMoMAARHPsGChyBYoF8OXEbk7MYhe8p1jWw7V7ArxRE8BqHw/qttiknxXoBP1YrXQP8UjF9Yuxh8FYJMXTKkGFEG7bUwwjDaMoHTCLYcEC13nxCrteqno/UmY2+P7IGTC2AP44HzpEiXn3Nj6vdahBbrl4ZcHFdDsubuQtlOo5PjrEeGihE+oklcawAfvXOcrLbNemV4QJBoKysgh0z9GB7nNg9/nbrLbUjfKj6829/WX3uxOOqtTd5erXe4/+lmvunG6vPnXZmtcHT76tzmsQFohuuv1EdmJapzj3/3BS8nrnVM6sf/PAH1dlnnV1tXmcgAsRyCycCTV6a3+GgUnNyaWL8gF9gDxYWwKccIkPBJNkVdorRqksjHeXDV+xB8ARwAfzYq2yhCfgRGvYNUJrmiErgD521AX5jANz8U7/Ylf6yP2SAPGQ6fDKAXx+AaC/gZ5PGLqhj32w2Jvb5uIxBFqB0E0sX6VwJVyYveIX9GwsbyLNFLF0Wxc+UIwE0+1UWLsujwwI/0EdSBQgkRwYokJeLTwSgHXfcMTFsZDKAX3nHihstAjCZmgPDwGFLrBBsAn42D4+MzW/j1ErgR4aRjbL0pz/6qlzUprQ7zsGH+KN1qacf8HNUymYUgJyR6TiwwpgAe7Cr6JuIyOAZlxKSCUHOi/lwwCbG3wT8jK9cztkL+GOJKlaCHVEo5caqFvVADIYy8tr1sKt6YnUHQO21CoNz6Tcm0Yvxq2vv89Z9qk//z2eq79a1y8estQD4+7Xr6pR7p512rMssq1ZfqUsHKVDUwOCHoZpTkJ0JzO7LQfUT81HaYLCCYgC/NNxkWu4I/v3Nb34zGa4fwZfMnSfFjnHHQ0mM3uTZWquvXH36pE9W62/y1Gq9DTaq1njY8tXpp32hWn2dBeue0z3qnz/86Y/VRutvkLJENX7gYg5AieBacw3z1qz+dtut1QrLL1iNE8Afk3Gcj02VpR7AL6gB87zJGIAhZzQW5TJZKFbITsb6tnAFj8zQdQS9YHT9gJ89uKcsC8iVja0BaaWLPDAMA/zlNcmArmNSU8YWQB+BLF/Vk59Pb4I6Ro2gybg0Pgn0MV7lwnySWlmP/+tzuZLOuRZVmExXdlJDdy2ZAB2py2PYggPgY58xuTsR4Hc99oa8AVGgXgZvOpaxGBtbbgL+kAmcQK4ErEHAz9ZhEraPHCDC5FmuOkRuZfN5dkRnshaZO3uIUvAiBjOCD6YM+Bm50grQFM3LpYuh0HAGaaWaP+DnKMFcAGSUekrgJ2BMtS3wY64YnzQLwJfsQg1cGQADiOVZZDwM8BunwCLlDIU3gT/DlhJaXdAL+P9RA3+a3P30aal2+eg11qzurKHxgQuXdMXDHQtW9i74/4+uvSYx+tVq5/zi578wbpUI4GdYmE5kTvE0JlkKeBg/OQfwS8kZL6OMCXfArmxBXsBS2QOLljL7W6nI2GWGAS5+q10+ZfOnpmxk3rw1aua0RnX6Zz47lq6HPXNaIACssC+rbjyZHGm8DCBfhoplIw1quwCY7QwC/pyBAQGAK0PF0AQCqzLYVdTwU1BaCPyAQiaESBi71g/4YyJUvdm/80b+AAjox6RkfN8P+MtVPGW26G9gK3sxz5KX6vL757YZ/w7gx57pHuANanSkzAQYy6zGdelP9qHskq+Y85l5APeJBwX5P1KIQA4L/Gzk8ssvH9MHG3T9spELuavvA9l+wM/2rWRTVjK+CIS9lnMiuzJOAc6cmqCT2xubQTLN6+QlZXYrI6crfYolrINkP5HvWwN/XuNvKvVg/DpMeX5jRZgMZhlP3EUHGQIANpnlOHUtQjTonEU5XjYhexAhgbFAoQF8TgmwnJO3XowfoDBiCgFwUbt1LkMQeIxNEMontNqWegLkBq3mKRXVk/HPryd33/im6uTTTq1Z6JXV2jXjv+ve+dXS9y4A1GhW9s6ds+ABlGvq+vhLX/qyNLF6Rs2usOZYJaLUYwIuB/7IxAQrwG8+AZuNB7jIip7KJkDTCcAXSB0jYAC2fHlfk1Fa5fP617+2uvyKy6vD6kxj9932GHeY9BzD4vhAFqgAZXplTxhhBCwnYpIcjYObP+JAZanH069R6ikZf5R6lGoAP5Zs3LIdmWj5LIAMCCPG1oJ09AN+stEfQVeJLJ//wE7pw/kmFmO9t3EF8Mdkqc9KgI/P8s9jglZNml0Ps5zT9ZyPPAQgtwF+QVAZVbm09HeZmNKZ69BnvP5Bn3PZytzIXABROnRO2BkZKiXSryyzrPEr7USGI2C5B2AX1FUrYi4gDE2gpW8LHAAx4FdqZmvunTf+43NlKYSpH/A7Tx9l8rJpqw+NO/SDpMA+/bdIwhij8UUZj77DuUGvKmnyrbaf9QR+YCrtV5fUmSj1SLc5Xd7U+EvgV8IB1FJlvwkijBSL48iUwVjU1SgIQ8HURHmDJnDXBiYxqx5PkVKWPvopX1XQC/jd3/XV9/RLPV80trLD9YCDvqpT5q0N8Idio+baVgH5cWNgbt6h/gLjN+l6Sh0cLSt8VF3jv71+yu8Bc+qnZ5eqgb5+0i+VU+6an1JjTmSpG5CRigOt/KVfjFAtFlOPSXIgqdSFgXCyEvil74wwnpDUX0AJGAAKhxSwOQ5HY7SypvwZCfIWWFwrnvTEaGSEmDPdxlOMJvxMFHNyxwtWvtMv7Ej/AXeAkdqzcQJ17BFoNAG/c8iS08WS1ZB9AD+bZEsIgsxF1iOwkZcsB7ioYwt43r+CeBiX1g/42TDbdow5AUGDvgCd4IHtKhnJAPPWFvjDrwK0/eY79CELQqqC8TdlnzHPlAOQsl0wfv45qPFpNsEW+FKcYxKYjKyG4Vv07rp8Tw07LVzIHqBjE4KjEhBQFPRkvVi0gELfCAa7sA4+7AbYyk5lxgIocAbs7JzdCEzBoNmta9Iv25Ytsl82B+CRnrzFHIUav+P71fjjPONAWP1GJtgyuzReNmbxgHmf8j6wNi3MqPHTMuWpan0ZP6FTAkYuDQWaVuL4iSaFYdiEBkCCIan1cxhLGhk9hwVGJuBkBVZgAG0Oy6kEFCUhRsE5KR0IYETxAi710QB+TiGjoGz3IcgAp37AT9kcV59NcGEY8dCJYIOxuNZEgT93vokqLZ5Sve3OO5J8PnHiJ5MTk9Odt/+9uvPv9RO0y6RnXlO7604PfmybauxSXQ6iDss5AhQ4t+BBxpgNB6SvyDboAuNXAuMwHBmzwr5NbDFIWRDwow8vQfO9YBFP2yIKfkzSuQ/w54QYsoAEADgh0DMBDgBdyxwQmbsOOxMoAJYapzFg/wDE/ehPsHAO5ixIAADjJh/AwMFkBfGQIUdly5xfNgPM80l3pEZ/1YRjspbzmxRl60oXsY5f6i64yDLy5Zz9gJ8O9IXdIU3sFegZp9IH/1CGLJfrDgP8pa3RKzIFEDH/3F/zY8vFB/4WQAVBa9ll5L3elZRfx32AOd+2/Bf5UNqjL+SRLWDLbIPvkbXMWrajrIa0qCrwP+DrOmRuLjCAH8YAYfbJfpE3ZSM/iIC5BfZj5RFS6d8YPZYtm/e9CgKbIxt+wi5kWQH8yojhN5ENC6L6Db9gSwS1Xss5ycXzC0pWMi62yn+QBv12HbrNH2B1jgyBbU8r8BO4zvktikt/KYAQpGsBKAyMItUvAYnIrjEYQuc8DIDAgAanMXBGwvHzdIYTAB9gTxlYikxCigWQRHoMiXECJGBIYY4j5GBM/YBfMJFmGRvnNvmDNb30TEkAACAASURBVIv6GAvjKJ0B4xeMAFi/J3eb0vCJgH+8lumOu+6sDq9XOZ140oIlskvXT6/W/L6649bbEnjOqd/mt9Rcr2NeKsmSfgRWsoi10Dm4Y6nAk8FjHfl3GDFAVDrzPR0IBhxBvZ1eY0UXhuZ+waJipRKQxPZlTkBDH+lb4GAHHCAvZXBMDMg5jB5JUH4DGgCD4wn0AJFsgbtAQx/xsjATv2xENgNU6dZ5QFatF5sGOpiacwXHfMWWvitp+Mzqm/z5DddSEgQUxgIAkQ9M3WR4/gAX4EdEyAjQNb0bx3VkNwJNvMJEgCLH8o2N7GYiwD/IBpsYf1km0jegKmjL0Ho9P5LbNpk7Xp+BG31qbAzomiTOy6eyKtiCycMP8nUN5TA6EAycizWzSwAdb5+FLeYA3IPvCsCwgW4xftkC4DcO2Zxz2RNdG6vfAhsMUhKVFQsW/EcAibX1ru9YQcn1/ZveBST3RQLoz2f5nGDIBdAjQph9VBYAu/sinWVjv76HZ+x2Whg/1mSg+bszsCmgGE8BEmL+oFJed5ViicycmmNKr0RBoMG54yGIqD8LCr7DBCkL6zChEo87h5CCofpbfwQhSjB5FKkc4wNa5ZO7uaCNDTBgkthxPADVBNQAH/ADnMUJ/KZrlXvuqfs61zsO6nfaKO8skwJAnc4z5HpOwr+Xqp2kTSuX1fY7J3/vCTlhSfSPYQUY5JPwoUt2gCgAAjpxvFUb+XMTmFcYNkCP119jRjFHEmWoUveCG6dzbUBRvt/F8e7FNoFHXIdtla8uCHsKucSYjQEQubb+yFA5vGuavCYLdsa2tWD8gkIv4HdcvOhMgGDb/ernEwH+fvpsAn3Hl8DvM7oc9ADiuHkm9rmwGaPghmTRfTxBXurT4QiCLF8ToJuyixxX4h4InyxSwATywDnerVNOZANw+tMnx8VEbRt/aTombIUNWrmjFN0E/M6VCcXKKvaqktH0FLVjjdMcHBxc7MDfS5lNAijZRf4ei3g18qhfbNZGWRgB9o9NhqCb3lUy6FrKTxzfGLAQkVvJqlyaOug6w34fjL/pXdzhXjG1m9byFG+3HPZ+vY4fxB4DIAZtMtLLeTjQRM51vXgSchA4TUQW9C6bVM6RCcl42YGMxnJEhEZmqHQR9V7AjxwAfkxWYMwfnhumH+5PNso/7mEeLMqPbXQyzL0me+xM689kx9PGFwL4lXpkpyb4ZYIAPc9o2/YFnghMZCmTRjTYWVPW2Paag46b9J67OQPPgd/khIkNZRdRsdek0qAOTuR791Qbxx4oQo1TKaqfIPWvnJg1eSeqy1aAQMx3TKRPEzmnDAC9Xsg6mhe1TqSH4x9MmcgV2EwvJiq7iGcQJnLtiZ7DEWWLyoqcnP1ia8oI5kmwfiUbThpNuUIZTd1eaUtAcn7Tk7q9+uVeFhp4fkAZTGZDPuw53gp7fwHaiepu2PNy/Op3bp6txnFR45e5er5B2VEJNchA274oOXtwlb2zH3MkSmDIall2bnvNQcdNGvjzG+TAr74lXVE3tVa2bFNhwKFEqRWWzvnUmKWbInO/V/QG8IeCMVGMS7kiUk1pvZLQdIDRIEVO1/dtHadf//oB/3SNS0Zh0ti8E8cE7OzYAgL1Z7XY/PXUSkTsXa2YvSAcJtHLTYIGjUd5RHlUWZQtmg+zqCKWI06F3wzq05L4fcixlGdboHWecrSMjO7hjAwvSMIwMlM2VE1QklICp3Pzo4NedT/MPcpjRwr8ef043ocOQGNJ4SI3X1gXbCvstgOllNg1KFj8ICE2AX88sATo81c7tO1Hd9zslwC7MP/EFqTyTfMJMcqYDAw/EBgmUsqKd8SHzZXvtHe/UfvMbNXURIlHL+BvK1s6pgM6j2shmoNwpknOzi+fjZqI3Qyjw5ECf66EPAjMREbXKwPR1+j7sA9iDSP47tglSwKjsPGJgtiSJcnFN5rJ6Gy262qkwB8qm83paDD/iPwds1p8jjib7zQZEMn9prO32WwFs6fvUwL8s2f4i/Y0gD8ccKY5Yr7SZ2xSN39N82h2ZpvNKpyWvo8a+Gc7o5wWJczSm+a2s7jwpgP+wlhKB15cimhrs43A3/bk7rhZI4EO+GeNqibd0Q74Jy3CJf8CHfAv+To2wg747x96nq5Rdox/uiTf3beTQCeBTgLTJIEO+KdJ8N1tOwl0EugkMF0S6IC/heRn8yqlFsPrDukk0EngfiaBDvhbKLwD/hZC6g7pJNBJYNZIoAP+TFUlwI9iid5kLKHX/ZuuOdNWH01m3JM9twvUk5Vgd/4wEhjlqpzFZbsd8PfRcAf8w5j/zDl2cTnPzBlx15PplEAv4J/I0vDFZbsd8M9g4G/qWr8soGP90+n+973XXi8mq4uJgMaoR9+P+HTLTcfrO5d96H6QDptAvgP+CVjxqIWWX2+U6dwEhtZ4yiDDmm33mWh/F5ccBvVvlDYyE8Y0CPhDHpMNcoPkmn/frxy7OPuhT4MqAoPwaMYB/6AOD6OoJfHYju0siVqd+jF1djMaGTcRsqkG/YkE9aZzfOYhzLCFsVfDNFO7eo+lete9cd+NZveNrtQzAVscZvvCCVy+O6WTQCeBlhJo8sWpCLATIcO9+hHAP79+r9ac+j9QHq/YynfYA/q211uswG9/SrsN2RR4vfXWa6mGmXGYjVi+/vWvp41YvC9b/2347B3XuaHYWctesnbQWWuttRZ5l7Ydt66//vp0nnex22vVcdpUvcStZDMXXHBB2oPY/YynqRmjLSa33HLLkShAH+wJe8YZZ6TdhNhA7GFLFqNmV6VT2Y/XDm7uaSOfQZt9O96+yORgo3kbAtm6zj6+NkCfyi3sQuD2n/ja176W7CX0tO2221aPe9zj0iH5frPszl6z9np+7GMfO6Yz43WczV8cQ9Y2D9puu+3SpuB5eWHUOigNh/x/97vfpft7V7z3zNtLd6WVVkr+9IQnPKHv3gQjMcT6InYiu/TSS5Pv2eGqbPnmT3ROrva/tcfzKFsT8PMRm+bE/sz6Z8tOezbk+mGfbNHmPLGn8D12/Kt9GrT/+Jprq4suvqD6fb37Wr2ldrXueuumHddWWPZB1dLpiLxFGJgc8+/J+N/5znem3entX0voM60JTABxk002SZu3581WdW95y1vSDkl+7IT0nve8Z9xG21/60pcqY7TVHWW9//3vH9vkO6614447VmeeeWb6kzNzyM033zwB0jDA37RtWy955gYGBPTRtmy2/st3fMrPB3ivec1rqoMPPngkamLI5557brX33nunvWXt+RobRZDDqPcpKJ3qN7/5TdrU3rgAOpDp1xz/0pe+NO2SZeN253F+QfPyyy9Pm3hPdXNvOkA46AmZYHNsS39iA5dTTjml+sAHPpC28iTfAw44YFzX7Ldrf+fzzjsvBYHVV1897fsbWzhOhHnmN2hbsiA/2/896EEPSv0I9mpsAikAs0XksDuMDasHNn3MMcckG0RANHolJ4HVxuSaPY/5+RVXXJGChYA6WVk1yS0H9IsuuqiCEXbgci9bvNLVyiuvnAIlMqCvRxxxRPWTn/wkBUz2od218OL31L8/fepp1cGHHFjdcNMN1Z2331ZtU4/r2OOOrdZadV4D8DsR6E8R8B9yyCFpX1GGmgN/G2GKwm22JwwAnQh72XfffasPf/jDCRj9O2+f/OQn0x67DGaLLbZIoE0Z7gPUBDQbsds6zd+vfe1r07Fl45yYg+tx0HPOOScx67bOM6yROz6XL/m8+c1vrk499dTqhBNOGDPy8rrk/ehHP3osMxtFKQp7xZaNV+aTjLUGADIc9e5ApU3ZftB2mbaz41zrr79+X1HeeOONyUbtiUsW+rnHHntU9kS1hynwHKa1sfHyevr8ute9rvrpT39affzjH0+AyXYi25BZsiFEyrj08a1vfWsK6mUzHv5z/PHHVyeddFLSfT/gLycZ6UggOvrooxNA2vtXdqEFCRm0oxxAIz/nCrwCP8YPVG03aGtIrJQf2RZyIj7cRifHHnts2ryef9r0Xv8FU/dHTiIblJ3YA9k2hsiaLTIj4PL/yfavySbY5s4775z29xZ0BMXYbxe2sANYo2/Ol5FfeOGFadh31z9A3+/f3/SH6p5/3Fo9cNmlqt123rFapQ5mR9bjXmW1R1VLjWP8wf6nEPgZqU7bR1Rk1YCkhr1wMIYg2mE3EXkDIChIxPM5oTuWcwANKU9+fJzjWkoq5fZlruN8jhRs8+1vf3sy7L322isZp8+DEQNqjB9rKtmi797xjnckw2BI++yzT3JY1ypbpOc23gaC9uC1d+8g54ltJxlclEbKJV69DDE3MDJWujj77LOToZcya3IcfSZH8ojjOb8+27w533eYY5CrvjzkIQ8Zl7rbZ1ZAtL+s4K/ddNNN6bp0RIe9AoDxY2D64rqO7ZUl6JdUWF+AJaCUhdnflr1985vfrDbYYIOxoZLPzTffnK5tLMbEsXbaaafqO9/5TgJV7dprr03OFkEjtkXUD/ZLRq5j7PrnOtHy2qzj2G2MxXg0n+W2So5sRPah5IBoaBGE3/a2tyUgV3J0fQFAUMcG8/v6d9gG4PA98JN5aU0A1AT8+vec5zwnMU1ZkP44DoDHVqL5vUpbwvgRH30oAy9b3GWXXSr7avse+OVkg6zoxDj4bK+9rp2jn7fddlsiZ/Qf8o3+OMam88HgyZecBSDA6/Pwe/2lB/tiB8lzb9ewfSZdxvaIub71ly07BvawD/bChvmgv5W4cn36N1LB7gQmJUktSk/K5LJQsnvqU5+aSKpN1D/3xS9UKyz/4DTBC/T9PKD+WXrB1autn/Hkat5DHlodcfwJ1SNq4DcVfN8WG4sB+KPUA/QAfxgB5VC6NFC5xUB9ZuDYNbDxGWMDlLvttlsyNikQAIrNhAEoUAlgdC0Ag0Uw2Lx2993vfjcFIRsZb7zxxtXnP//5FJAwPKCADREqlkLhUeoR+Qk9bxgZpiBtpOgNN9wwgWsJ/JyEQegvGbz61a9OTGf77bdPDhTg0ATg+so5+jUbKnOYqAE3OT+DVQ5Qlrrqqqta1S2BJmcEZvqKMWJBQBQbEeQ4BqMFUJyKM0jZjVFJSQP8HAxLOeigg1LN/eqrr07y4DRKMVh2Cf7XXXddylD81n9ATsaAJK4dAMbppb76guVy0s022yzZEVYHEOgq5pjIXPYhEDqXw6+77ropxVYesdF5AD+w/NWvflUdeOCByXGBhCBi7GyGjagHs03gwXbKkqHvHaduL5gZN2aHPSMQZEDGWgD/b3/72yTXfKy+l/IDK/dRvsISMf7DDjtszEzCrnwAnNsCf8jT77BHwKV/fET/A7jyY3P7LO24H/A7T5lnv/32S36z5557jl0K4J111lkp8LqmDcjZkM3p8z44gRzon82yV7YFR/Q7wFzWwY/JDfFwbf5AN3AI9pgD4eeyDwFHkI0Mx33YI90L9I5nZ89//vMT1rgnrGF/dKq/W2+9dcqyBE32RO/wyjmhG7/ZFOCXtemfFlmGjOu4445LmAVnYCjb+3I9b5aIc438d9eIfo8J3pr6P7ievqt3Cq+e+bSnVPMe+vDqA8d/ogb+Ry6UK8BPU8IL/16MjN8go4666aabpsknE07AUeTngGqXhMZoKVXqJc0GLKIt4CEQ4AvwlJKijGSXeUFCwOEUeTv88MOr/fffPwlXCq/ux5j1YcUVV0xK9p1ztWD8avIl8PueE1M4R1TKwGxL4I/JTAYYwM+A9DcPSuM6uvCPrbbaKoFtr8lYh8mSBEPyyls5uQscgO5ll102NrHcdM/4jMNxHsALMJUYTEibiOI4AB57pE86AcyOZZwcJuYJAvg5L2bLARisHxNVnMGxdOx7zSQcQOD87mmM+sNGOD8iEM7vM3rFaCNAYHv65B7OW2edddIEM9ZE5sqPdMuBgXVkFuxQUBKEoozCHoCt6wBhsn7Tm96UbJa9sB3lsbBHIPChD30o2aV7uR55ACb1bIBBfgBKPwViWee73vWuNPZBwO+YsBu21gv4Q4/kPgzwlzZBpmSun8ZKF2XrV7IkP4GzifG7Dl+jDyUY/qMhGQIt+xBcXV8wJju+zV4QQ30DrLJtMkEMfI4s0T1fN1+iIVEyI0TTtfig41yDHgGtsq7+Ci7IpcyPzpAdOkcS2RVQ91vWwA5k/giDxr+Auz7PmzcvEV1ZEhuDNeaJ4JtA77psPhg/Ow7gZ9e+ZyORBSGurq1PZ9Ul1KUf8MD6uxr0a/zOgb8OG9Uz/+2p1eoPf0R15PEfr1ZZdc2FKptG4CfMHXbYIdXFGTyBGbwBchAG8KpXvSo5gs/NdgsUAJaRMxJAiMVRFIPCnkRFRonFAVXCxXLzBvgADKFjfPrgPGwJ21CWiskz5w0C/lCIeptyTxPjzydkAT9DlJ6X2UgTCEdJrF9tEVAIWr0ax9cHTmU8ylbS5iiDBUOLCWzfkTunwEI4PCbMYYAth8CigSFZkTEnxX4YvYAqSwN4Aob5DJ9hUIIT42a4+o11yQ4QAGDOKVxfkOKYjqVzBICz7r777slJcqCURlsFQffAn2OQmz6wLUxP7RhTc5xJO/fjsGwnJvqMF1Bg2cBDJsB5XU/gB9ZkA/hdl8yl5mSk6QdW9q1vfSsREePivGza3+4j+ARws+N3v/vdKVNQYoxA2Qb4Q9cB/Pzg0EMP7WkD/YA/P4ktANB8bg0gPutZz0p2QAcyTJ/ptwAZ/tJrni2A36RqWWojM7aFEdM/WQJHzJsdGBM2zv7pUZZppZ1S1ytf+coEvLI6tmUuCREhc9fDqgV1Ng+AXZ/e4Anfcw6cQR4FZePiA2xHNQDR4deyN3I2/4dwCkoqDMqKzuPzbA/hND7Xw8rJij3xDdelV+Vk2T48O/nkk8eykSbgz8uEoSNjl8Ugx9+oM9ila7/Q7qh/0iTvQsbvr622eEq12iNWro469sS6xr9gXmZBMyMwDYwfmwPUBAe8OXXUwDmroKBuTrmCAUGL8oxAZM9rvK6BiWNnHJaSGADg52xNwK8sAvgBmWYVDscDJn7yNgrgz693+umnJ+AXgBhfvjSvp9e2/ILjRSDK0+0AfnMVWE+/ybgXvehFKc3FbAEh0CNvwTqvZQJlcqRHJYxggZyGcWNhxsjpA/ixJDLHfmLcjtcv5RSOwPEFD9dlB/qSN6wbCLkWB+bQwACwCRaAtDweMGicC+NnQxg5EMjr4o4RFDglpw/gB+ZKAj4D/PrKrozN2HN7BAT0ytmRCAwZewRc7DKWEQawsjsrdrBeZTCtH/CXYDAVwE+WAEvmpgH3kEW5EguJcny/9rKXvSyVcgVwAVg5xrUBI3nJ8tmZscjq2Q5AFsxkfbktsymlIz5PnvxfhqW8Eivloi9k7D4yUdcQsIE0G+T/xqT/bBsmxYotnysTKrUJNjJOfqFUqPrALsOH+Js+KtHQpYwigJ+ukay8sQdlGtfnQ1HGawL+nDCGX5MV+wL859ZEBuwr3AD9JuBfFfAfd+K4ctW0AT9BcyZpNiHnjsMoMCMGIEIDG4CAPVE6oZdNJJYlqNeLhhi/a/QC/pzxuxbnpzTG7ndb4M9LKf0YfxPwSxn1dRDwYz15vbYcezgFQOKgOTCUpR4AS06Mv9d6dAYlaGK8QBazpwtOlS8BZajS/1133TXpKRoDFTw5g3kWThrAb/mqTEeLEpl/A3DsDfABVH8LKgAacwr7iMAGENgN0FVeM+kOLGVugkLelF+QAdmNfgAeQAyIgs1Ff8hSSULQUWLIgR+bi+c0AJOgAdBK4Ffyc30gB/jdx7jZnP7FWKJUg6zwBboJxt6W8dOviT73mgzjL2vygp9aOB2FbPieEh/SEtml8xA0oN2r6aMAifDIIoP50odSF30AcRkhPckkXE/5EOny77wcSjZWaSGE9GklDjLD5pQeydL12EXZAviBtxJmL+BHRmWESjT0R2f8wN/wqVwwIiAgpjIX9t0P+MlUCZCfDQP84deAn084P4JKM/DfUzP+zRLJ+lDN+PN5imkFfoKkROCfA7/PRGMlBUwCQAF+6V4wyFKhFI/tRTTGIqSKonAw/oiYZanHtZR5MC7GE7X9uEc/xj8R4AdqSi4cQf1+EPCTBcApV1vkMuAEygQmpfOW98/4sRFgzHjaLEtUr+cgjlWSyYEfaJoIpxcpfP4deQqgQBGAB/ALFLGqJ1+5gW1xWNfC2J1nMlgphv7ZRxwPPAQkDi8TBKrKRkAIK89LCWRBduq+QMZcA/YGrJT4zJ1I3fNgieWxHc7bC/iNF/DLDErgVw5BOgQyhARjFIyw+nypcIyHzcpy2K9jtOkG/nLeiXyUMT3rIiA21fj7AT8bEEzIDAuWndMpHbqWEkvM1wBdOlE+4qt8RAsdkZu+AGGAGwsa+CmfYtsCE5ugA9lA4EsAv+Mw+F7Ar3YP+JVVlCuVhF7+8pen+YWmhRZR3mSbnvXoB/xky0ZlF22Bn20bv3EYn9Vcxt0f+O+tnrX5AuA/6riP1cCfL0OexlJPAD9GlgO/v0V5BgH4MVnAL/WToklzyqZUw6koFFAF8CsTUL4WbBHwYBdR4/cdhwNUfqToeZtu4FfGAIzq54xGk27nq4EwEDLwAFov4Hc8cDEehlmuimhyXMfRBbYgi8pX3Zh0xWyBNSabz4sIQuZnSuAXKIC1ZiyxysH4ZHKCtD46z7gxfqDJEekP2xLkOKCMBKsjF07AOWR82GA0QVXGZDmnWrJMU5rNqTk04C8DBSfHqPoBP7sEYmy4BH7gSGYYIJsEHgKyf0cpJ5c1uXJk2UHY3kwA/vLZGeUyQU1JJZb2RikiMoamVWnsDvBb8cX3TLKXNlqeZ6JcAJBZNWX4ynzmF2RhdBtN2RApEJjpxTH0hEywz7bA7zphI+yE7chsZSPmDsolpYDfGAU1JKcf8LuGDBUBGQb4jZGclljgx8QC+IEU4DcJy5EIChsrG6ELCiZOsS1s1MQOZ8Jyo6n3CSImcXPgZxhm5fM6a5wzVcCv1APUejH+smQDKAPs/Qb2UWf0NxDFah0XE8El4weqgJfxtgF+jJ8uMDLBNA/QJnaxMXpR84701z0BHOBXAgrGjzFh2kob0WKMgFRgj9Kce2HTMgclvrIBc2NXHzW5h70BWJmfoB6BRaBSnpD6Ayk1YUFCNkEObEEpKm+uB4hjHbc+ur5SV5R6cuDPy1yuAxyVipR2yEEd20QhgFI+EbhynTtfnwWGYRm/+42ixl8Cb2437gGssGxjw/jz5woCkPLfuTzJnSwAPwbf78nnsAdBH3gbG/0DYvbF/jBuGZwAboULEFbnF4yCmJAvwJZJ8QvZqnOGAX4kKhi/exuDoMJ3EKE8Y41JY31VNnYcHGqq8Sv1KEkBfoGQDZN/vxp/mqOrhbpU/fuqH15ZPa++tknrC867IIm6Z6ln86csKPWMY/zTuKoHw8tLPbnhceoAfgIF/ABdPZXwOQglRlM6scxKhoDxY3DqrNilIGHVRUygADIgT+A58FtdAfTzlRVTBfzl5O4iqLbwg7I+X5Z6yoeYIqNxetOTzgKCOrBAVq7F7tUHE+301AT8MacB+DlUvrIjGL/VC4BVSm41jvkaNWm10HBS16HTWLMuOHBupR8gSX8mwqKp/QJ4fRJc2AcQx8hkg8Ai3lmDOSulCHicV7CyykigUm4zx+Ja8VARZodFkhOS4HyskQwAvyDClgYBP6dnq4BctgIQBB02JugoCQBTY1fX1y8rf4at8ZMJecqURlnjD1mHzQEreqQXABWkobTJJsbvWoJ/LJ9U0+/VYt7HPehGsCHrKEuSv2AqEwDq/Dg+Yyvm6PxWdmTvbBOJYH/mD3oB/yWXXDLudRx5qceYZRiyT+cjkkrC8f4eBIF+sX52iHDyG9jTD/iVs/Q/3gLQa1VPBFTv4wH8V/7ge9V29T1kThecd1ESJSg3G2Nyd04dBZZPC33qGv90Az+jtrRSDVYaLVJjdOr7ZY1f9Da5qE5HMADd71jjDRgwZVFXWo4ZcFKGHytysDYgYKKO01ripYTkvhzY8YAFCGtKFSat1IsZqXswFGDWlvFbwuc+mK3VSHnL2bt7xkR1PMVcOkLuUL2cqbz+oMCABQmQ8cRnrJcv7w2QyZfTBONnnJwnDzYxuRulnrie+wiuwJ/TAnzn0p/lkGQLyDE2DgaYlWCwXiDmOoIYwFe+UucX9DkRtgmYsS5ObpKajtRqkQXXwazpHjhxaHVQQYXzBvNjH/qtHqsM43hzCdJ01/BAj0CBaRoPW8XWgRempp+AABiyv7yZDARYsspg8PHkssCi5mwsMlvLS33m3xNdzolhCpxTAfz5uJSwBEJBO2yyDfADczYADNl+/iK5XgEAmMvWZcXuJ4MSKBFGOpQ1uBbwQxQFcbqTmclC2TDbpSfZFkAWPNgUH4jJXeUk2YW/rURDGtmnlWLmo5RV/CgfmqOgb7ajnOx7uqNbgZt9u348Q6DPyEm8ViEfq367h/HFayKagD8/B6uH5z+86nvVC7Z/XrXaYx6VVvXUz70n4F/w2ob6YdD6wOXmej63fq1DvZyT7x5z7EdrvMzX8Ue4iDuM+F09YRhql1aTUACwEx2BHwDmxAEojgcOBMwRMUYsEfBTGOWoMSr9OBYbAxIMXyQW6YM1KClgUMAeCCh/YGKUwVkwr1gqKIAwMIFCuSR/4VVb4AduAApIMIC8Hp6zdwarrBHsoMn4hwH+CCqDnBCAeTrSMsb8Mfvy/gBP/0yMS3UFAMYpaOdByKSlkojxYs1R93QfcgfaQFGANR8ApJVZAK3AoL+cmZ4FGquA8jcmCgqxrDAe9grdYvr6lTelBONT8otXKWBV7I2sjcH1oibMgQUP44rSGNvQl1gmyC6AP1sRQDinSUO2HA+cle/HkZGwX2Dk+tGAPHAGgMABobEahz2Th0BCBlrbGr9j2ZqM1VzWRyxfmwAAIABJREFURNfxtyEXvUB60Od0Rhbq3nyprPE3nc+nBWulPudEWZO/I1fGmz8ZDfxlU0rBbMXxsEUtXfCNBy9DVioJ8ewGbKEHtggnEBD2D9xlxjKGeHkcf7D6CpjTn6wC6UD2lIoDxGUJsIC9Cyp5cw7i41gZRLyPpyfwx3L7he9auPrKK6qXvHj76mGPXKM6vy71PLAG/vkL1+T7fU8tuwfO9R5OL3rbPAH/cR/9yMIHuOKJXUDvwpMD/BhXz7dzUn482elgigUQWig16te+I5yo6TkGiGPiIqRsQHolQGCHGET+/pYoeQBeTAp7k0UwuAAWf8d7fvQt3rciuusHVhdKNEmkVND05G6eCrsGBqHfAlBZJw2ABvycVH05Htse5DwT/T7PNFwjf79I22tyCPog47IxeoDf9J4d38W7SuLeERzoRL1cf6T+2E/e8n47BjkAwORK372WotIlQAcaHBPLd2ys547VKHF9nwMkdWC2JItUynEd4453vfg73hWln2zX3wJGPqkdAJq/s8jxsk12SYbxMj82Rm6YIXIClOKJzWGAXz/IJn/Gwj3LlTmCnsAy6CVtpR7yv2N1ic8GBYvwZ0FYH8msyYaa7DDXPzJGZsajvBKvIi7Pcw69WydPL441SVzaJh+ls/zzwBP2yu9lB/Eaj6bMGMmIeSY2Vb4qRd+MmYzy1W4xLrbl+/yJ3CAM+ZO7i4yR3Ouf3/7tN9XyKzykenC13MI38M9N7+JvAv6Hr/jw6oTjasa/Osa/4J38CwB/MQB/G5AJQxHVy1cGY/iYo9/xPpNe14xJl3zypdexMWHa6xXFzovHwQUAbDUes/ddgLt75YbEyPMnbRmAFSmOsc5X6UvK2vQKiDayantMGXzanjfdx9ELO8hBdVR94nD00OtFb8Pep8y0SlBEMpR9sEeZr4zC/X3OFpQaZJs5Gwb8mKdzsFOsTUAq14/362sAP9B0P8Avw2XHw76WuZxvGhb4JyrTQcEl98E2x7btR68nkHud32aBxiC8CuCXFZqvEszj2Zz8XOAO5mvqkVi9t/AvVS0z9vq1W/56S3XHnfWrneffW+3wfHsvrFodf+wx1erzvKtnBgK/weVsPR+sZXpKCiZ5+z0sEtfg1BFIYuVLKfgoFTVNhObHKlcoI0n3lAKAv9QOwypLMsGISqbtcymnSWesxIoDY/L6glEabFvDnsnHTWewGvbeg0A/gImu1fBlPMoPfrMDJSWMUvlNjTia2rFSltoxe7N8VanTHFTbBvgFEOUEpQcvWDOfJsCU73Rqe81hjhtWlvm1J3PuMH2c6mNLHGi6XxBUupbxAXvzX+a2lJXGbRgDt+u3sN1bF/L9zJ1rWXfN9efUz7ksfO/mN875Rl1N+FQKHN+qS5ObbrJp9bHjj60Zv02fFnOpp62AeyncxKmaMabc9EReaTRtUtJBNfG4ptosx3S8koC162qWZWodLKjXdU08mzjE2pQfsEBMr2uzVwLDMGE2zI6UdTi7bCaeWPU7zxg5rYlJtucegoNy4zDA7zxlDfMhsbcA4gJMyjeHToUGlhTwngrZNF3TElALYMz5sA9lKvMWsVsayF7QcP4FhX/lnft+L/j3xZdcXH3wQ0elUtI/av0jDm/c6w3Vw+tXN9zXZlCpp62A25Rw2l5rMseVbH8y1+rOXXIlwF45YdSKgwWau+j1bvl+0mgLqDPFT5ZczS7ekVm1kwh//dM0JZvvs3v3/Luqu+tS6bLLLHjTrTPn331HNbee+6jTg/pv267OkBr/4hVjd7dOAlMvgTap/jC96MjGMNJaso69j/E3j+u+DVYWAL0WnwF9rQP+JcsmutF0EugkcD+VQASEnPHfJ4qFa0G9sD8hf35Ux/jvpybTDbuTQCeBJVsC8RBA/I7RLnjAa8rX8S/Zwu1G10mgk0AngZkogRLw8z52wD8TNdb1qZNAJ4FOApOUQAf8kxRgd3ongU4CnQRmmwQ64J9tGuv620mgk0AngUlKoFwLlK/96Uo9kxRud3ongU4CnQTuvxLo+ZK2+69IupF3Eugk0ElgyZZAB/xLtn670XUS6CTQSWARCXTA3xlFJ4FOAp0E7mcS6Av8bd8xMlNk1vYlbjOlv4P60fZx/9mmp0Hjnsj30y2DQfdvo8uZ8q6eptdWjPpVFhPRcXfO6CSwCPDnBurfYYy9XpU8uq5M/EpNr9oNQ423fuavUh7kpL164jw/o3ovfL8Rx73IP9+IvWkc+VgnLsWZdWYboMx7TE5a+crsxfEK7dCV+/eyjehfv2PKjVimSyPh8yUW5LJcHHKdrvG3ve8gojkszpTBdSqDbU/gp9jYcSuAZ6YqO3e8fG/RUQcr9/HaXNvwTXVrAv6pvmcJpKOW3zD9Hxb4gWa+PeXitlX9DeBuIhsB/Dar4U9NAaIE/mGBYxj59js2gF9/IlBNpy2Malyjvk6OO+XGThO5Vxlwp9KG+5Z6Yr/UqYw8ExFQfk4vgPC5wDXMDkht+uKasdPUVCqmBOG2WQZnzXcSy8GjrR7bHqeP0wVObXQ1ncfEDk9tdoybzn6O6t5N7HfY4D2qvrhOBNq2ftPm3vl4YEDsxxA42eYabQJuHDOVpb+ewG8DEpsW77777uN3lJnA6KbSACLq5ozEBgl2UOJ8Nl+xv2Zs1Bzdtz/n9773vbTfpx10Nt1007ENFALQbBxv1yXXttemDV022GCDCUhg4qd84xvfqK644ooEsL0CDSO0eYMtAqPveebjs5yFDtIHg/vlL3+Z9k22z+yLXvSisfuX544K+PPryKrInkPZBN02hv2a/XFt8Wn3KjuvudZnP/vZpLvXvOY1E3qHfnm/QeP0rv6zzz477QcM7NmezbvXW2+9cZdynI1dfvazn1Vrr712teGGG6Z9gzXjpUubydu31n4AgritS+1FPNUtBxpjsQtYSRzsn2tHMn3Ot9mcKuC/8sorEw7Zxc/ezb0aedvtz97QNl637eWogbO0fXtQf/GLX6xuuOGGtFGTvXztye3e0ejUvuD2oLYrmw116D1vbIGv2WzelrIwZtttt11k/99R6r8n8O+///5pRyHC1Im8lU4wyCni3EGAM8zA7IcLtBmgnxz4bb1o5y/HUMY222yTtrPzbwxAUDjooIOSQgiaoyrfvOIVr6je/e53jwHFc5/73Orb3/52AhTR3W5MgKRfy9P1tnLpBTKM2fZ9xtMP+I3dDmM2fY5N43Pgbzq3KRDkgeWcc85JG8xvvPHGCVTz3aaiBOCz0uEjyEyGBf3ud7+rnvjEJybQO/PMM9O2dhHQ4vq5zGykvfPOO1ff//7302bw9GXbTztoAQ6bw+c2GPJoCo79dNuPRbI18gIEANHOWQcffHC1yy67jF3y5JNPTtt5Iiaa8dkkfO+9904Bi23aeP71r399Rf7GYlP7tlsvts3UyuOCPOlTMGTbSp5yyinJF+iZPsO2bTz+tKc9rTr++OPHNi1vsoNSlhPJkG1obwvM0047bYy8Ca6CvZ394prk/7znPa+67rrrUgDebLPNWgH/sJiU+7Q9d1/ykpekvpCToIhwBLDbtnWfffapLrnkkiQ/vkm+toG1c1cEztNPP72CtwKA9pznPCft24yQ9ttbfBi8XEQX9UAaXw7RD/ibgGoUk6fDDET/jjnmmGq//farbHac398m1fvuu291wAEHVFtssUUCdUrRPve5zyUw5cRPetKT0r68gOPieq9LW6jttdde1RFHHJGOtc+uZp9VAcFG25SyuBpHAwiA3zaWAleT7G37hzmGsY+iHhvAL5Mw7n6tKQuYiJPHPTgSZuS6ZL/RRhv1DXzY8U477ZQyOLIATO94xzuqq666KjnQGmusMa77bQFyGD3rs03YgdJRRx2VQF3Akilqxx13XNKl7EV2KaDaXvGyyy5LmQkgeMMb3pCOdQ1bhgIEss83W2/bJ/ZtG0CZG9IT/XB+W+DXN0RnpZVWSrfFSFUCECaylYnoG4Bqum7e14nK3PjJ7pBDDknbnsam9nQtEwi//sMf/pBA1njhAtY86J4R8MJWh7XZ888/PwV2gVogBP7s1nVkdWxSVmCbTlmSKoNzrr/++kQyBTXA7nOgL8C6HiLLbsk9J1xtdd/muAkx/rgwQ5CaLr/88ot0sCnN4hyinON7tUHKivMAewC/IJC3AP6vfOUrSejRMOgtt9wypYMMSeTV9BVLUFbgICJ0vmGyNEzJS9DYaqut2sh1JMeQhSB16qmnVtdcc824FLLfDUoZAkNjz50/zrdJuHmQckvBAH6BE/PTOB3G0mZyG/j6ceygOqsAF2ku28B0119//cQwObeglo/JWABj2B3gxLyUxNxT43CumbP9Uma+56T97DEAj430G8tf/vKXVGLQF/aSp/scXfZIDwL4C17wguQvrgnY7M3r2ohGXj6hd5mpwM9uh2lkx1YFF8QmwDkAOq4VmV8E75zxY8+yFKXSvLFFoGZcvt9hhx0W6Rpb0Zr2uS4Ppu/IukvwxZQRMpkPmQH4V7/61dXll1+eQDQv/2D97LlJ58YXNhZbajbJIu8bW6IzY2gKChg/oJZps78cZ5SWVQsEe4GB/PVf4JQZAnqbtSNredt6663TcYAfSRjkO8PYRH5sa+BnBJiDOpVopQZrEASDUQFRnY4m4gEMKaNz3vve9yYFapTl+HzQGMTRRx+dDKoEV2xcWoltY+n+jQ1xMteQWqm/65cWwC/tesYznjHWJw5w4IEHpnqp9DqvHTMw9wUeylvYTDSloT322CN9/uxnP7uvrDnzoYcempxYNG8yGJ+RieyirAHnF2es+snxGYqywKD2xz/+MZXo1BzJGPtkgIwemLoeJmqcxx577FgtWdqsXBSAFcCvZin4nHDCCWPAKii69tOf/vTUnXwvWmyV3i+99NJ0T+zFNZRiAuzCmMlKGemkk05KQUVgwobVc53D8fRj3XXXTfdxHh2ogSvzsTtjAarYsntGOQab+tGPfpRkIbCxVUBqHgTbZkNYowAisLzxjW9MunAP9wXASjLYpowCK9M/8ltzzTWTXNlcgB7gZ3/6ddZZZ42xZP3WL2Uf2ZMSZJ6+8wmBgL/cfPPN47I6oGrjdbIfFviNQf+wc7YTemVTbN34+pUi+S2A50ux0XsefPkq+33f+96XApcGvJXW4ISgIOuhf/ok9zxjdSyy5Ydf6pM+yjD4bPiNzeuVeWRTQJ8vwAMkkt7pVllPOVefzEsIrjFvol8IILxQQkRU2RPApo9ovjvyyCPTnJb+Ol62aQyCMlK43XbbjXM/pcRdd901YQr7zq/FTtiivrhmNDIE/ORqLHAlFmQ4xtiRsBkD/ByHMQB6ho9RUST2LNKus846Ke3DsDk4Z95tt93SzvOUROCOB9YGD4Qcs8kmmySZEDTHUQPdc889kzAIjmJdl+IJHuCo+XHaaByJQ3EurRfwh3E2pU+YgnSNEaorSyujYfr69pnPfGZgqUe/AYvJnHzt9jiLqf9gmDKWF77wheVX4/7mXO6rXkju/Rq5AisyMg7gz1kERvoieykwgOdMgrlaOt3qtyyKEWsB/OTP8NWeBSt69G/BEyiZwAwgE0wAKIdwTwFe3V0wevGLX5xAeJVVVhkbwmGHHZaCJFAN5gZkOQrgwPLOPffcseCoHKKPGD/5YerGxfZ+8YtfpOBBBgKRfmFkArDrAHDlHzZoDFgfJgeogKSA7vrs0vkCQtTsdZjclBE4JQZMZkopGLmWAz8wW3HFFccF/V6ZLFmaPG8Cfv5BxhNh/O7HnjF+MmULeYuas89KcuLcAH4AJLjSkWARq+QEPiVWMsNoNURCSZROyJZ+yMW5GDE/jswSKQO+/uZrjkcY2BgMAJwaMKc3tgOclW/pRmNLdCXjB8zmItm4ElWUgHynr3SMKOg/32C/bA/R1NgBG2VbbERAhl2CMTIjKPGZnNyyc3JSPXD/vJEhrIQ1fiKzcn3jRmAQBH12HHt0zowDfqwFM7npppsSCFMM4QJ9igfcADnAl5AIg8EZDOFjigQKXExYiayYGQV+9atfrXbcccdkTK6jxZI4xqfUQmAyDU09DxN6y1vekvqSp+FNwO9aoYBxGlr4B1Yg+jJAYJPPvDNSwI8xlquDmq7F2GO9dq+6oZUrJgCj9aozMlyOj6E2rW4xJiDDSBk1lsvJMB8snrwAlcAhRfbbdcgTU/NvK4foVPCTPqupB/ADDVkWncXYsRg6wpSVKoC2ACNIYUlkBbCMSTCQ7roONsdxNSwUi3UMB8SY3B+gYpH6IdAp9QBdLA+rY0/6wlb82/1kk0A+arYcyUQftmjFhUwpGCoH0x/2w8EFDASFfbMb/RAE3/72t6cUHlMFSAINNq+vGK2W23sT8DumX90YGJEf+yVLY83LcW2AP0qq5CnDkrH4zBj4CwJy3nnnjSu50DnZxiR9vvxXn31OJmxIH9hDNH7kmlg2kGWbAhc5wgckT/Bng+7BjshJaYbdIB2CDrYt6JG58/iLzJQ/IyPAlMzhA0wAlLIrOmBfCIVxxcS/oC/DYW8yFdmbc10Pw0cYnK//sAlO5b6u4qCiAN9k+/qlxi7Y8BvlO2QCFkU5jk1i/AH8bVYRycDgousq9SAagXMzFvgpGHCLsvn6eIImLBOlhAqMgKUBAheKz2vIDIviGQnD2nzzzZMDAxbOxjG1YEkcj4AjBfMdtiWYKEMAgqbJ3bzUEw+jlbPklEXpnE8WYWKXceZtGOBvO0eRO5K+5w8fxXeuxYmAluAIGJsa1gGQsBK6wFw0QILtRsN6XQ+YxeSR7wCQzzEy5QVOG8AvqCit5HMe+gHk6c4qFg4FeJVnAC4wyPWNzWLP+ocg+C2rcxz74Di5/rAvTkhX7AIoOo6+9RMjzO2Ps3NK4Edm7EufMCp9BabGrhyE4Rl73jg1GQIJgQljlYm61hlnnJHsOm8WFAg2wMRvrQ3wRwkpwBVjdA1gJvsT2HK5DQP8xoQZA3/NdYCYls83+JsvsXMATO4lIQrgB0z0JAMDzI4VSBEgmRTygPEDUJ8J7Hw3sqCQmVIpm6RHYKlhzvTlu7wcS/buo89+Y/r0EsAve0DQXIddxTJX57EZAYH9AHvBCaFjv3npFjGgNz/kYIyCnGPU4mVs+ZwI0gKg2QR7952+9QL+ICB8OscD1RF2zC+NCYZp+YNbM47xEzLgF6kYV+54IjemhHUzAEwMk2FgyhRlOYMwCEBEpngCD+DH9oB5OEeUjZQvXAdwaByU0TG0KE+EofVi/GHkuRMzDKApJTYGIFs+9DUM8Lt2RPBxaNHjj3A+rEsrGaKAJLMhl3ICNi4JlNXbyUqph5NhuYw0n7i88MILk3MIoDFhG9cAZu6BzQLpAH6sHACVDVhilFJ7jqMcJtBj0gJAjIfxA18OJsVmF1iaWr40GviXczoxuQtsgvErxQgu7EQJI2+Yp4AjgOfAz4EB8iDgB2Kub3KWM+qnbNb4AI8sIS8Pyk6VHdsy/nD+3MH5iQCGSMkuBNJyTmgY4JexCIBkppEh/wCI+plni0qRIUN9KleBAX6BkO9i3a4VIOZ4ZABLB15RvxZoZY6IA/vKm+xWRkoPgolMgK3xW9kkXKE/IB5sOpaONgE/xs8WcuAXEIAmALc4Qz9lhYKfAJOXGPWNLxgjOehzAL9MQbDXQm9hj/oniEQZrwn4e62oQyr5hmBvvMqc5JDPs8xIxq9upsME2Qb4MX+RmaM3zfp/5CMfSYABVF23H/BjopwyB34OKnUUQNow/qb3oGCBQF+ayPkwlqYVHkDNWNqUerA6QQrzAH4R/Uvg5FCYrjmRUH4T8DMWMmLoOevuFVTUIzmeMlIv4BcYSjA3fs5ILznwq79yjLJxOplBzLl4xkHA5mDl0kGyB/Jk61oyDsDqb4GXQ+VpMvvCDgVF6Ty2JVCYkxDYyuWZowZ+MsQYkQA2WrZhgT8HESDI6QGa5t9sq2n1Rhvgb7LruJ+sWgYooyhX1+TlhZJssGF9UhY0dwag9M+PAMh2lUHyydp4loat5vNjITsALwjJwgR+96B7E6rKk+zG50pMgkDcrxfj5w8wKRg/4Afigj/Gr/QEM9gYmykzfWMD/MbhWk3AH7IF/OyRHAYBv/HmumTXZKKSYd4KxgjEsTIufzZkRgK/iAVQAD+gbGL8HB6TxPgBv8icM4A87QHaQA04YfzYgln6vNQTxonxKr/kwA+oXCMmJAeVenJgUWLCVKXXln7F5FD0r/wtKwFwGFD5MFsTAGODjM89/eTAHsdjQIJOnuaGw8YxxoSJC1Ccd9CyQ+dhq+TEkQL4Y+xYjv7HRFtuoAJpAFIO/Plyzlx/roX1KZ9I7WMFFz1ZBRLXDgakD+xCoONAWCf9cgo15Fw/nJij+V6d3uStuq+UW325BH7lB7YzKsYPLKO8JBiWTSbhfmzQXIbWr9QTdqz/bI1vCGbOjWw4CEI+1zMM8ANSPhnnkydZAzTyyZfgCj5sCbAFwOZjBHTKOMCTzZdPmpby0Hc6F7DNKTUBPzsXUAGnIBD9dC9ZAHKnxi/Y8zVyYi9NwO97rL5k/O4L5M0TwShjEKgQhrLFxKwynpVlg4Df+JCpYYCfPFQ14JQJaf4Vk9ah7wD+yJBnXKlnIsBvUgSDjKcXc+CQhlk9Q5BSfcpXhhANOVTeAJ8J5Bz4Y7bexI+yD0OKCN1U6onvgD7hK1Vgke5VlhoChOIchsGI1BkX5wNcZKCUJUBxmnxZWD/Gj9FPBfADFwbKmaLMFsv5pMeIASOPB5HyPgpczg3QVkLibFg1W8ibVUDqqQBKOi39pntZoQBTlg6VGgGxibNRlHowM8Av6AGyUu7B+AVl5ZpBwO97WQm5CBqYOOKRLydsCvptgD8WLeRkwb8B6JOf/OTE+JWTcnYehMRxJfCTH5Bi72rSiFuskIk+5iQrfBq7xuCV9PKljc4BvPSJnSN4bAAw86+opesTMoERC6L8U/+bgF/f2IXyVgQlIGtpN92xA+OStSjh+il1yJfhk0UNdDgVwG8CmX8gLvAqX+sfsiQ/Y19igF+JhwH4wWxzlgYkKFgExSgYltKIyS0gDOjDUM0pEBoHzIFfeUeaKBX3b2ynH/CHMzBMYM9IKMY9e7VgalHPNr8Q6/iHncTteZMBXwALpSZpbRPwl/2QNqu1DwJ+tfWoW7uG4NnE+DFDYOvJwzBWQcj8DSfD2M0vYFqCImYp0wiwcG1ORdZswH3o1v2BhTIf54gyFsACIFgdnXJuq4YsFTSx616CRQ5G5OO7WCock7t5jd/56uhNk7tljd8Kpch62Fj0xfjZqXspDygzRkYQjF8QQmiUEPLMkb1bmWVS0zWtVOLwTUuL47w2wB81+ibgF4jpCLstH+DKa8slkAN+JRdj0Yd+wB/Zg7kY/qmMp+wX+jSRSu6ydlggkMh8BD7+j7hFNsLf6MeqOnNMgkUJ/AIGu0EUZYPx7izAr9Qj0+Yr7BXBQwL5kInvKEHGJKsgFEu02YAMNq/xh//LSoLxs+14krmpxh/B1KpF2EQOJpFl2r1ev5DrcMYxfjUxim1b6lEPp2iRVzrFeQme4jiz6wD0mJhVoqA4bE/pBxsPxud4wmfIIrXGIDigtBHgODeYe691/BStTxybQtzDZFgsa4vgwFDUGUPxgEg9EMhFoFgcwO/+sfrFfZtKRvrMoKxqAfgYHgY9KuDnpJaDcgg/avVSaZ9jMEpzASoAzY9gYV7H8RxKCg+AzAGoGceEr5IYIFWSAAIcykSc4OW3klDUhOnfcj3skRMq0QFNbFY2CqQiME0G+AUmmY3sAnCwQezfKhMgxm71mbM6NuwX8AsW+iEjCHDQp3gAySQ39hfLI6PUEuUwQSQHWSt1sNF+6/hLm8hBXDAG4spq8V6lJrsta/xkLUsvgb+ciPR3rJajUz5CbsAYsRLgAbGsXtDH6OEADBAAlZJkPfwa+ANygAm0ET2yCuBHuuCCc8nZ3/yUXtiF+YFYzmnpqKBBTzCBnGUPcIg84iV5SJxSjPmJWMc/WeAnB9dX5mb7ZADMywAvUCEDFkLMqFU9opQozZEJnHMROAbuQZZ4uZkBqSEqSTAgbCwedpCSSYcxPoyAQVkhQfhq88o68fg05YjUnI1zEwyBEAxD0BcGgk1ojMbyTzVfE1fSumBfAfyYIIYYxq4MgWkw1l5rbimKQ1NczvgZtevlANxvjfZEGX5+HgDCKrEu/Q3GUC79BEhYkPFxdgFAYBN8rQSKsWJRSmbKIvQbsseyZUIyLUDjfE5Kd5aDqq+rR0cd2UM2HEmGwMlDDoDNqiAZlXti7AIr/ZjIjgd9YowAHhvk8IDSMyGyGsvwMGrpr7HHw13KdOxB4ImSE0Dh8D4TlJSUwqkAgGBPFrIWeqXHAOt4cIZtC0rkwi7jlbvOdSwAiYe+2DmQMj+VM359YzMmMBGFnGEjOOQSr5MIeUV6H/LIX0TmM2PXHwFg0BPjbe2t30KCkIdrGYsMSplROaXfeY7nv8gAebE7x7MTvi5QY/qx5t7xMIMuEMqoczuHvcmMYp5A7R9OkB/da/xQiYa9WAWETNAfIkJXyAKb1ZR92GM8heszmIWYsPl4wpcNxNP89MBvYvkte2IbyAl8i3PYqMwo1vGH/OjNiqfQd5Nu+Ab/Quz4c7xccdoZP6FiMZgVQ6UURs0BLA3T0XxCCWMnrHitAHaMXSvrAEugLmi4lgeLXKd8BQEDYDyAX2QXfTmQTCFqmfkTiFgkZsiBrMKIUkj5rp4AfmNybDz516QQY8KW84nUqPEH4+8VNNo63zDHyYAAcz77H+v+4zrGE312nHEKsrHiIcbvOmTLgMk1n9wFXPTDySMgcM54uMf38Ri+DECAjPXM0Q/3kU1xAL+BMEAXHHIGnB/PptxHnzmDY/3WV9fhZBHwgAswYpfIh8aW2BF7wc7DplwMH1n5AAAGR0lEQVTT+fHeFt/rk0DBTnPm6zjslp25H0c3XveTdbAx1yZPdgGAlE+AEXKj6RMndh3AlK+ddy06AlL5KpySOJBpzgwBCKICCMslrMPYUHlsztzz76LkoF/Gw+foLZZyxrH9CA9ZYrom6GMVEN8snyVwLTpRNoz3+rA1QSL3cbrQF5/Rj77TBTtmC2xVBkXv8X4mOiZrfaFr14ArztPYE/ZvHEHu3IPNWKoZNhTA7VrwzfFIxJwaqOfU17ng4ouql++6WyplIyvRXEvrhzPx5lX9z/EEUdVnGQ+ZLfZ39eQGUaaHYbwESyhNhhAPbUjzIlL3u+ZkDLk8N4Bf2shhCLbpzZaD7hlP4ApeGIUyUzD+qWb7g/o2zPd5rdm/ywdLhrnWRI/NH1+f6DXanpcHyV7n9AveAAIbUwvG3IJ9AjNgjO0LfohAlGbYitRdkMB4MVe+MZG3K5IV0OD8Mm73LFd/tZVF03G9gL/X564xiPH360/YX+CGv/0I7vkL08pr5E/b5zbcz/cAav4swKCNmHoth42+9Pv+/IsurPbYbfc0f6Bs6V7lqzEG6YkdkoPxIcOyV4SKzuMhtkHXmMj3fXfgckHCL7eKCyU0vQYhHCrexQEsc+Dv55S96ubxeT4JUio/P1dqHK8jkAWIosoMvd6y10twUnSpKFaCMWD+TUFsIoIf5TltHDbkNciB8/mOfPI3AkYvIGnSRxNg5P2Ikkrcs99EZ9w3QCN/0Vt8F7Xy/JheNhUrW3oBs9KEFN75lt46DjNVOuAP5jZMcAewyMxMApt0xEAxZUEjXmQXfeoVcKLv7qGEpkwle5At6Ev+jphR2k55rSZ5DbKZXDelTqMsGVWD+O0cem+a8MxlVb5OouxviSdRnin1G9cMObcB9vwa99R2oC1Vs37NY3IX1rreY+f/qparS38rr7pKIgOWNssYoh9NQSrkGb/ZjDKrUqnykdVkdC6LnyqCORD4hwEVAgnDVnPlHGq4bdnKIODPDdC9SjCLv9WM1SYFJsL0SghOmNdd2ziP+qo6dDAT1xhlyt2mD4OO6aefQec2fT+RMlY/sKCTpoBdAvgg3fcaSy+bGDT2NlmBVRvqwOY7ODIwtyAAqWBTeQPYJiLjWIBlJVN5XL9+6ZPrmE+xBBFocn4ZRl4fHzS2yXzfS5dtAKjJFkdtnzG2sNNeemwL/IPsfew+sA3ww52FwP+Dq39YfeDQw6o//PlPqVtIpvkI2Z7z2mR75OMhRcBP9zIWGaZ5C3NJbeQ+EX0PBP5hL9rLgYe9zmSP7/Vunsletzv//iWBSMXZU9N+BqU0moCkLfgN86qP+5cWpm+0Y+wcgam7MXfhj23o/fuW+me5+ucBWRfb6tsp/fByKrF0Tm2ojTtwTUbUbVPDydxjOs9d0sc3nbKdrfful7HEmAaxt8lsVzlb5TZb+g30S+BX7vHZMvXP0vXPoDcADzvWWQf8Ecn8HmTswwqjO76TwEyUQC+WNwz7U/MeVNOeiWO/P/QJwEfD9Hu1YfQ9nXKbU0/GjJzxT+eAunt3EpitEphKhjdbZTLT+p0HgLxv/YLBTBtDIuQ1y+iAfyZqputTJ4FOAjNOAlHyKdl/B/wzTlVdhzoJdBLoJDAaCSwxjL+ekOgY/2hsortKJ4FOAp0EZoUE5nTAPyv01HWyk0AngU4CI5PAnHoJWcf4RybO7kKdBDoJdBKY+RLogH/m66jrYSeBTgKdBEYqgTn1o+gd4x+pSLuLdRLoJNBJYGZLYE79JsAO+Ge2jrredRLoJNBJYKQS6IB/pOLsLtZJoJNAJ4GZL4E59dvgOsY/8/XU9bCTQCeBTgIjk0AH/CMTZXehTgKdBDoJzA4JzKl3+ukY/+zQVdfLTgKdBDoJjEQCHfCPRIzdRToJdBLoJDB7JDCn3l+0Y/yzR19dTzsJdBLoJDBpCXTAP2kRdhfoJNBJoJPA7JLAnFtvvbVj/LNLZ11vOwl0EugkMCkJzLnllls64J+UCLuTOwl0EugkMLsk0AH/7NJX19tOAp0EOglMWgJz/va3v3WMf9Ji7C7QSaCTQCeB2SOBDvhnj666nnYS6CTQSWAkEpjz17/+tWP8IxFld5FOAp0EOgnMDgl0wD879NT1spNAJ4FOAiOTwP8HKWTtxC/uCVwAAAAASUVORK5CYII=;" parent="1" vertex="1">
          <mxGeometry x="210" y="480" width="265" height="92.96" as="geometry" />
        </mxCell>
        <mxCell id="LffQwIVgkhD6esxELWRf-28" value="&lt;div&gt;&lt;div&gt;GPT 3 has a&amp;nbsp; maximum number of tokens input&amp;nbsp; as 2024-&amp;nbsp; &amp;nbsp;A container with 2024 slot , L&amp;nbsp;&lt;/div&gt;&lt;br&gt;&lt;/div&gt;&lt;div&gt;&lt;span style=&quot;color: generic-light-dark(rgb(128, 0, 255), rgb(237, 237, 237));&quot;&gt;&lt;span style=&quot;color: generic-light-dark(rgb(128, 0, 255), rgb(166, 109, 145));&quot;&gt;&lt;span style=&quot;color: light-dark(rgb(255, 38, 0), rgb(237, 237, 237));&quot;&gt;&lt;span&gt;Positional Encoding Params&amp;nbsp;&lt;/span&gt;&lt;span&gt;Matrix: &amp;nbsp; &amp;nbsp; &amp;nbsp; &amp;nbsp; &amp;nbsp; &amp;nbsp; &amp;nbsp; &amp;nbsp; &amp;nbsp; &amp;nbsp; &amp;nbsp; &amp;nbsp; &amp;nbsp; &amp;nbsp; &amp;nbsp; &amp;nbsp; &amp;nbsp; &amp;nbsp; &amp;nbsp; &amp;nbsp;L(2024)* d-model (12288)&amp;nbsp; &amp;nbsp;= 24,870,912 -- Assign one positional vector to each token position&lt;/span&gt;&lt;/span&gt;&lt;/span&gt;&lt;/span&gt;&lt;/div&gt;&lt;br&gt;&lt;div&gt;&lt;br&gt;&lt;/div&gt;&lt;div&gt;&lt;br&gt;&lt;/div&gt;" style="text;html=1;align=left;verticalAlign=middle;whiteSpace=wrap;rounded=0;" parent="1" vertex="1">
          <mxGeometry x="790" y="470" width="350" height="130" as="geometry" />
        </mxCell>
        <mxCell id="LffQwIVgkhD6esxELWRf-30" value="" style="endArrow=none;dashed=1;html=1;rounded=0;endSize=100;" parent="1" edge="1">
          <mxGeometry width="50" height="50" relative="1" as="geometry">
            <mxPoint x="30" y="630" as="sourcePoint" />
            <mxPoint x="850" y="630" as="targetPoint" />
          </mxGeometry>
        </mxCell>
        <mxCell id="LffQwIVgkhD6esxELWRf-31" value="Decoder Only&amp;nbsp;" style="shape=hexagon;perimeter=hexagonPerimeter2;whiteSpace=wrap;html=1;fixedSize=1;fillColor=#d5e8d4;strokeColor=#82b366;" parent="1" vertex="1">
          <mxGeometry x="35" y="655" width="120" height="60" as="geometry" />
        </mxCell>
        <mxCell id="LffQwIVgkhD6esxELWRf-32" value="&lt;div&gt;&lt;b&gt;Masked Multi-head Self-Attention Layers:&lt;/b&gt;&lt;/div&gt;&lt;div&gt;&lt;font style=&quot;font-size: 10px;&quot;&gt;1.allows the model to focus on important words&lt;/font&gt;&lt;/div&gt;&lt;div&gt;&lt;font style=&quot;font-size: 10px;&quot;&gt;2.some heads tends to gather attention around central or topic related words&lt;/font&gt;&lt;/div&gt;&lt;div&gt;&lt;font style=&quot;font-size: 10px;&quot;&gt;3.Masked -&amp;gt;Postion i can only attend to position &amp;lt;=j&lt;/font&gt;&lt;/div&gt;&lt;div&gt;&lt;br&gt;&lt;/div&gt;" style="rounded=0;whiteSpace=wrap;html=1;align=left;fillColor=#f5f5f5;gradientColor=light-dark(#ffffff, #535353);strokeColor=light-dark(#A9C4EB,#959595);dashed=1;dashPattern=8 8;" parent="1" vertex="1">
          <mxGeometry x="180" y="640" width="240" height="90" as="geometry" />
        </mxCell>
        <mxCell id="LffQwIVgkhD6esxELWRf-33" value="&lt;div&gt;&lt;b&gt;&lt;br&gt;&lt;/b&gt;&lt;/div&gt;&lt;div&gt;&lt;b&gt;Feedforward Neural Networks(FNN):&lt;/b&gt;&lt;/div&gt;&lt;div&gt;&lt;font style=&quot;font-size: 10px;&quot;&gt;1. A 2-layer NN -&amp;gt; each position&lt;/font&gt;&lt;/div&gt;&lt;div&gt;&lt;font style=&quot;font-size: 10px;&quot;&gt;&lt;span class=&quot;base&quot;&gt;&lt;span class=&quot;mord text&quot;&gt;&lt;span class=&quot;mord&quot;&gt;FFN&lt;/span&gt;&lt;/span&gt;&lt;span class=&quot;mopen&quot;&gt;(&lt;/span&gt;&lt;span class=&quot;mord mathnormal&quot;&gt;x&lt;/span&gt;&lt;span class=&quot;mclose&quot;&gt;)&lt;/span&gt;&lt;span class=&quot;mspace&quot;&gt;&lt;/span&gt;&lt;span class=&quot;mrel&quot;&gt;=&lt;/span&gt;&lt;span class=&quot;mspace&quot;&gt;&lt;/span&gt;&lt;/span&gt;&lt;span class=&quot;base&quot;&gt;&lt;span class=&quot;strut&quot;&gt;&lt;/span&gt;&lt;span class=&quot;mord text&quot;&gt;&lt;span class=&quot;mord&quot;&gt;ReLU&lt;/span&gt;&lt;/span&gt;&lt;span class=&quot;mopen&quot;&gt;(&lt;/span&gt;&lt;span class=&quot;mord mathnormal&quot;&gt;x&lt;/span&gt;&lt;span class=&quot;mord&quot;&gt;&lt;span class=&quot;mord mathnormal&quot;&gt;W&lt;/span&gt;&lt;span class=&quot;msupsub&quot;&gt;&lt;span class=&quot;vlist-t vlist-t2&quot;&gt;&lt;span class=&quot;vlist-r&quot;&gt;&lt;span class=&quot;vlist&quot;&gt;&lt;span&gt;&lt;span class=&quot;pstrut&quot;&gt;&lt;/span&gt;&lt;span class=&quot;sizing reset-size6 size3 mtight&quot;&gt;&lt;span class=&quot;mord mtight&quot;&gt;1&lt;/span&gt;&lt;/span&gt;&lt;/span&gt;&lt;/span&gt;&lt;span class=&quot;vlist-s&quot;&gt;​&lt;/span&gt;&lt;/span&gt;&lt;span class=&quot;vlist-r&quot;&gt;&lt;span class=&quot;vlist&quot;&gt;&lt;span&gt;&lt;/span&gt;&lt;/span&gt;&lt;/span&gt;&lt;/span&gt;&lt;/span&gt;&lt;/span&gt;&lt;span class=&quot;mspace&quot;&gt;&lt;/span&gt;&lt;span class=&quot;mbin&quot;&gt;+&lt;/span&gt;&lt;span class=&quot;mspace&quot;&gt;&lt;/span&gt;&lt;/span&gt;&lt;span class=&quot;base&quot;&gt;&lt;span class=&quot;strut&quot;&gt;&lt;/span&gt;&lt;span class=&quot;mord&quot;&gt;&lt;span class=&quot;mord mathnormal&quot;&gt;b&lt;/span&gt;&lt;span class=&quot;msupsub&quot;&gt;&lt;span class=&quot;vlist-t vlist-t2&quot;&gt;&lt;span class=&quot;vlist-r&quot;&gt;&lt;span class=&quot;vlist&quot;&gt;&lt;span&gt;&lt;span class=&quot;pstrut&quot;&gt;&lt;/span&gt;&lt;span class=&quot;sizing reset-size6 size3 mtight&quot;&gt;&lt;span class=&quot;mord mtight&quot;&gt;1&lt;/span&gt;&lt;/span&gt;&lt;/span&gt;&lt;/span&gt;&lt;span class=&quot;vlist-s&quot;&gt;​&lt;/span&gt;&lt;/span&gt;&lt;span class=&quot;vlist-r&quot;&gt;&lt;span class=&quot;vlist&quot;&gt;&lt;span&gt;&lt;/span&gt;&lt;/span&gt;&lt;/span&gt;&lt;/span&gt;&lt;/span&gt;&lt;/span&gt;&lt;span class=&quot;mclose&quot;&gt;)&lt;/span&gt;&lt;span class=&quot;mord&quot;&gt;&lt;span class=&quot;mord mathnormal&quot;&gt;W&lt;/span&gt;&lt;span class=&quot;msupsub&quot;&gt;&lt;span class=&quot;vlist-t vlist-t2&quot;&gt;&lt;span class=&quot;vlist-r&quot;&gt;&lt;span class=&quot;vlist&quot;&gt;&lt;span&gt;&lt;span class=&quot;pstrut&quot;&gt;&lt;/span&gt;&lt;span class=&quot;sizing reset-size6 size3 mtight&quot;&gt;&lt;span class=&quot;mord mtight&quot;&gt;2&lt;/span&gt;&lt;/span&gt;&lt;/span&gt;&lt;/span&gt;&lt;span class=&quot;vlist-s&quot;&gt;​&lt;/span&gt;&lt;/span&gt;&lt;span class=&quot;vlist-r&quot;&gt;&lt;span class=&quot;vlist&quot;&gt;&lt;span&gt;&lt;/span&gt;&lt;/span&gt;&lt;/span&gt;&lt;/span&gt;&lt;/span&gt;&lt;/span&gt;&lt;span class=&quot;mspace&quot;&gt;&lt;/span&gt;&lt;span class=&quot;mbin&quot;&gt;+&lt;/span&gt;&lt;span class=&quot;mspace&quot;&gt;&lt;/span&gt;&lt;/span&gt;&lt;/font&gt;&lt;span class=&quot;base&quot;&gt;&lt;font style=&quot;font-size: 10px;&quot;&gt;&lt;span class=&quot;strut&quot;&gt;&lt;/span&gt;&lt;/font&gt;&lt;span class=&quot;mord&quot;&gt;&lt;font style=&quot;font-size: 10px;&quot;&gt;&lt;span class=&quot;mord mathnormal&quot;&gt;b&lt;/span&gt;&lt;/font&gt;&lt;span class=&quot;msupsub&quot;&gt;&lt;span class=&quot;vlist-t vlist-t2&quot;&gt;&lt;span class=&quot;vlist-r&quot;&gt;&lt;font style=&quot;font-size: 10px;&quot;&gt;&lt;span class=&quot;vlist&quot;&gt;&lt;span&gt;&lt;span class=&quot;pstrut&quot;&gt;&lt;/span&gt;&lt;span class=&quot;sizing reset-size6 size3 mtight&quot;&gt;&lt;span class=&quot;mord mtight&quot;&gt;2&lt;/span&gt;&lt;/span&gt;&lt;/span&gt;&lt;/span&gt;&lt;/font&gt;&lt;span class=&quot;vlist-s&quot;&gt;​&lt;/span&gt;&lt;/span&gt;&lt;/span&gt;&lt;/span&gt;&lt;/span&gt;&lt;/span&gt;&lt;/div&gt;&lt;div&gt;&lt;font style=&quot;font-size: 10px;&quot;&gt;2. Add non-linearity and help transform beyond attention&lt;/font&gt;&lt;/div&gt;&lt;div&gt;&lt;b&gt;&lt;br&gt;&lt;/b&gt;&lt;/div&gt;" style="rounded=0;whiteSpace=wrap;html=1;fillColor=#f5f5f5;gradientColor=light-dark(#ffffff, #535353);strokeColor=light-dark(#CCE5FF,#959595);align=left;dashed=1;dashPattern=8 8;" parent="1" vertex="1">
          <mxGeometry x="180" y="750" width="240" height="80" as="geometry" />
        </mxCell>
        <mxCell id="LffQwIVgkhD6esxELWRf-34" value="&lt;div&gt;Encoder: Analysis task e.g. Vector similarity;&lt;/div&gt;&lt;div&gt;Decoder: Output&lt;/div&gt;&lt;div&gt;&amp;nbsp;&lt;/div&gt;" style="text;html=1;align=left;verticalAlign=middle;whiteSpace=wrap;rounded=0;" parent="1" vertex="1">
          <mxGeometry x="30" y="805" width="140" height="30" as="geometry" />
        </mxCell>
        <mxCell id="LffQwIVgkhD6esxELWRf-35" value="Input →&#xa;  ⬇️ LayerNorm&#xa;  ⬇️ Masked Multi-Head Self-Attention&#xa;  ➕ Residual Connection&#xa;  ⬇️ LayerNorm&#xa;  ⬇️ Feedforward Neural Network (FFN)&#xa;  ➕ Residual Connection&#xa;Output" style="text;whiteSpace=wrap;" parent="1" vertex="1">
          <mxGeometry x="453.75" y="720" width="152.5" height="280" as="geometry" />
        </mxCell>
        <mxCell id="LffQwIVgkhD6esxELWRf-40" value="&lt;h4 data-end=&quot;1095&quot; data-start=&quot;1049&quot;&gt;➕&amp;nbsp;&lt;strong data-end=&quot;1095&quot; data-start=&quot;1059&quot;&gt;Residual Connections + LayerNorm&amp;nbsp; &amp;nbsp; &amp;nbsp;&amp;nbsp;&lt;/strong&gt;&lt;span style=&quot;font-weight: normal;&quot;&gt;&lt;span data-end=&quot;1095&quot; data-start=&quot;1059&quot;&gt;&amp;nbsp; &amp;nbsp; &amp;nbsp; &amp;nbsp; &amp;nbsp; &amp;nbsp; &amp;nbsp; &amp;nbsp; &amp;nbsp; &amp;nbsp; &amp;nbsp; &amp;nbsp; &amp;nbsp; &amp;nbsp; &amp;nbsp; &amp;nbsp; &amp;nbsp; &amp;nbsp; &amp;nbsp;&lt;/span&gt;&lt;font style=&quot;font-size: 10px;&quot;&gt;Help stabilize training;&amp;nbsp;Preserve gradients and prevent degradation over many layer&lt;/font&gt;s&lt;/span&gt;&lt;/h4&gt;" style="rounded=0;whiteSpace=wrap;html=1;align=left;strokeColor=light-dark(#CCE5FF,#EDEDED);dashed=1;dashPattern=8 8;" parent="1" vertex="1">
          <mxGeometry x="180" y="840" width="240" height="100" as="geometry" />
        </mxCell>
        <mxCell id="LffQwIVgkhD6esxELWRf-41" value="&lt;div&gt;&lt;div&gt;GPT 3 - 96 stacked transformer layers Params:&lt;/div&gt;&lt;div&gt;&lt;b&gt;1. Self - attention Parameters&amp;nbsp;&lt;/b&gt;&lt;/div&gt;&lt;div&gt;Self attention Q,K,V Projections: 3 x (d - model * d - model)&lt;/div&gt;&lt;div&gt;Output projection : 1 x (d - model * d - model)&amp;nbsp;&lt;/div&gt;&lt;div&gt;&lt;br&gt;&lt;/div&gt;&lt;div&gt;Attention Params = 4 * d-model * d- model = 4 * 12,288 * 12,288 = 603,979,776&lt;/div&gt;&lt;div&gt;&lt;br&gt;&lt;/div&gt;&lt;div&gt;&lt;b&gt;2. FFN Parameters&amp;nbsp;&lt;/b&gt;&lt;/div&gt;&lt;div&gt;- First Linear Layer : d - model * d_ff&lt;/div&gt;&lt;div&gt;- Second Linear Layer : d_ff&amp;nbsp;&lt;/div&gt;&lt;div&gt;&lt;br&gt;&lt;/div&gt;&lt;div&gt;FFN params = 2 *d-model * d_ff = 2 * 12,288 * 49,152 = 1,208,231,936&lt;/div&gt;&lt;div&gt;&lt;br&gt;&lt;/div&gt;&lt;div&gt;&lt;font style=&quot;font-size: 14px;&quot;&gt;&lt;b&gt;3. Total Per Transformation Layer&amp;nbsp;&lt;/b&gt;&lt;/font&gt;&lt;/div&gt;&lt;div&gt;&lt;span class=&quot;base&quot;&gt;&lt;span class=&quot;mord text&quot;&gt;&lt;span class=&quot;mord&quot;&gt;Total&amp;nbsp;per&amp;nbsp;layer&lt;/span&gt;&lt;/span&gt;&lt;span class=&quot;mspace&quot;&gt;&lt;/span&gt;&lt;span class=&quot;mrel&quot;&gt;=&lt;/span&gt;&lt;span class=&quot;mspace&quot;&gt;&lt;/span&gt;&lt;/span&gt;&lt;span class=&quot;base&quot;&gt;&lt;span class=&quot;strut&quot;&gt;&lt;/span&gt;&lt;span class=&quot;mord text&quot;&gt;&lt;span class=&quot;mord&quot;&gt;Attention&lt;/span&gt;&lt;/span&gt;&lt;span class=&quot;mspace&quot;&gt;&lt;/span&gt;&lt;span class=&quot;mbin&quot;&gt;+&lt;/span&gt;&lt;span class=&quot;mspace&quot;&gt;&lt;/span&gt;&lt;/span&gt;&lt;span class=&quot;base&quot;&gt;&lt;span class=&quot;strut&quot;&gt;&lt;/span&gt;&lt;span class=&quot;mord text&quot;&gt;&lt;span class=&quot;mord&quot;&gt;FFN&lt;/span&gt;&lt;/span&gt;&lt;span class=&quot;mspace&quot;&gt;&lt;/span&gt;&lt;span class=&quot;mrel&quot;&gt;=&lt;/span&gt;&lt;span class=&quot;mspace&quot;&gt;&lt;/span&gt;&lt;/span&gt;&lt;span class=&quot;base&quot;&gt;&lt;span class=&quot;strut&quot;&gt;&lt;/span&gt;&lt;span class=&quot;mord&quot;&gt;604&lt;/span&gt;&lt;span class=&quot;mord mathnormal&quot;&gt;M&lt;/span&gt;&lt;span class=&quot;mspace&quot;&gt;&lt;/span&gt;&lt;span class=&quot;mbin&quot;&gt;+&lt;/span&gt;&lt;span class=&quot;mspace&quot;&gt;&lt;/span&gt;&lt;/span&gt;&lt;span class=&quot;base&quot;&gt;&lt;span class=&quot;strut&quot;&gt;&lt;/span&gt;&lt;span class=&quot;mord&quot;&gt;1.21&lt;/span&gt;&lt;span class=&quot;mord mathnormal&quot;&gt;B&lt;/span&gt;&lt;span class=&quot;mspace&quot;&gt;&lt;/span&gt;&lt;span class=&quot;mrel&quot;&gt;=&lt;/span&gt;&lt;span class=&quot;mspace&quot;&gt;&lt;/span&gt;&lt;/span&gt;&lt;span class=&quot;base&quot;&gt;&lt;span class=&quot;strut&quot;&gt;&lt;/span&gt;&lt;span class=&quot;mord&quot;&gt;1.814&lt;/span&gt;&lt;span class=&quot;mord mathnormal&quot;&gt;B&lt;/span&gt;&lt;/span&gt;&lt;/div&gt;&lt;div&gt;&lt;br&gt;&lt;/div&gt;&lt;div&gt;&lt;h3 data-end=&quot;1765&quot; data-start=&quot;1734&quot;&gt; 4. Multiply by 96 Layers&lt;/h3&gt;&lt;span style=&quot;color: light-dark(rgb(255, 0, 0), rgb(237, 237, 237));&quot;&gt;&lt;br&gt;&lt;span class=&quot;katex-display&quot;&gt;&lt;span class=&quot;katex&quot;&gt;&lt;span class=&quot;katex-mathml&quot;&gt;&lt;math display=&quot;block&quot; xmlns=&quot;http://www.w3.org/1998/Math/MathML&quot;&gt;&lt;mrow&gt;&lt;mtext&gt;Total&amp;nbsp;for&amp;nbsp;96&amp;nbsp;layers&lt;/mtext&gt;&lt;mo&gt;=&lt;/mo&gt;&lt;mn&gt;96&lt;/mn&gt;&lt;mo&gt;×&lt;/mo&gt;&lt;mn&gt;1.814&lt;/mn&gt;&lt;mi&gt;B&lt;/mi&gt;&lt;mo&gt;=&lt;/mo&gt;&lt;mn&gt;174.144&lt;/mn&gt;&lt;mi&gt;B&lt;/mi&gt;&lt;/mrow&gt;\text{Total for 96 layers} = 96 \times 1.814B = 174.144B&lt;/math&gt;&lt;/span&gt;&lt;span aria-hidden=&quot;true&quot; class=&quot;katex-html&quot;&gt;&lt;span class=&quot;base&quot;&gt;&lt;span class=&quot;strut&quot;&gt;&lt;/span&gt;&lt;span class=&quot;mord text&quot;&gt;&lt;span class=&quot;mord&quot;&gt;Total&amp;nbsp;for&amp;nbsp;96&amp;nbsp;layers&lt;/span&gt;&lt;/span&gt;&lt;span class=&quot;mspace&quot;&gt;&lt;/span&gt;&lt;span class=&quot;mrel&quot;&gt;=&lt;/span&gt;&lt;span class=&quot;mspace&quot;&gt;&lt;/span&gt;&lt;/span&gt;&lt;span class=&quot;base&quot;&gt;&lt;span class=&quot;strut&quot;&gt;&lt;/span&gt;&lt;span class=&quot;mord&quot;&gt;96&lt;/span&gt;&lt;span class=&quot;mspace&quot;&gt;&lt;/span&gt;&lt;span class=&quot;mbin&quot;&gt;×&lt;/span&gt;&lt;span class=&quot;mspace&quot;&gt;&lt;/span&gt;&lt;/span&gt;&lt;span class=&quot;base&quot;&gt;&lt;span class=&quot;strut&quot;&gt;&lt;/span&gt;&lt;span class=&quot;mord&quot;&gt;1.814&lt;/span&gt;&lt;span class=&quot;mord mathnormal&quot;&gt;B&lt;/span&gt;&lt;span class=&quot;mspace&quot;&gt;&lt;/span&gt;&lt;span class=&quot;mrel&quot;&gt;=&lt;/span&gt;&lt;span class=&quot;mspace&quot;&gt;&lt;/span&gt;&lt;/span&gt;&lt;span class=&quot;base&quot;&gt;&lt;span class=&quot;strut&quot;&gt;&lt;/span&gt;&lt;span class=&quot;mord&quot;&gt;174.144&lt;/span&gt;&lt;span class=&quot;mord mathnormal&quot;&gt;B&lt;/span&gt;&lt;/span&gt;&lt;/span&gt;&lt;/span&gt;&lt;/span&gt;&lt;/span&gt;&lt;br&gt;&lt;p data-end=&quot;1904&quot; data-start=&quot;1831&quot;&gt;✅ &lt;strong data-end=&quot;1863&quot; data-start=&quot;1833&quot;&gt;≈ 174.1 billion parameters&lt;/strong&gt; just from the stacked transformer blocks&lt;/p&gt;&lt;br&gt;&lt;/div&gt;&lt;div&gt;&lt;br&gt;&lt;/div&gt;&lt;div&gt;&lt;br&gt;&lt;/div&gt;&lt;div&gt;&lt;br&gt;&lt;/div&gt;&lt;div&gt;&amp;nbsp;&lt;/div&gt;&lt;br&gt;&lt;/div&gt;&lt;div&gt;&lt;br&gt;&lt;/div&gt;&lt;br&gt;&lt;div&gt;&lt;br&gt;&lt;/div&gt;&lt;div&gt;&lt;br&gt;&lt;/div&gt;" style="text;html=1;align=left;verticalAlign=middle;whiteSpace=wrap;rounded=0;" parent="1" vertex="1">
          <mxGeometry x="800" y="860" width="480" height="115" as="geometry" />
        </mxCell>
        <mxCell id="LffQwIVgkhD6esxELWRf-42" value="" style="strokeWidth=2;html=1;shape=mxgraph.flowchart.annotation_2;align=left;labelPosition=right;pointerEvents=1;rotation=-181;" parent="1" vertex="1">
          <mxGeometry x="670" y="670" width="50" height="210" as="geometry" />
        </mxCell>
        <mxCell id="LffQwIVgkhD6esxELWRf-43" value="&lt;font style=&quot;font-size: 20px;&quot;&gt;X 96 Layers&lt;/font&gt;" style="text;html=1;align=center;verticalAlign=middle;whiteSpace=wrap;rounded=0;" parent="1" vertex="1">
          <mxGeometry x="730" y="760" width="60" height="30" as="geometry" />
        </mxCell>
        <mxCell id="lvLE3vNrhDZIhafgaH6D-2" value="" style="shape=image;verticalLabelPosition=bottom;labelBackgroundColor=default;verticalAlign=top;aspect=fixed;imageAspect=0;image=data:image/png,iVBORw0KGgoAAAANSUhEUgAAA70AAADNCAYAAAB0FxfwAAAMSmlDQ1BJQ0MgUHJvZmlsZQAASImVVwdYU8kWnltSIQQIREBK6E0QkRJASggtgPQiiEpIAoQSY0JQsaOLCq5dRLCiqyCKHRCxYVcWxe5aFgsqK+tiwa68CQF02Ve+N983d/77z5l/zjl35t47ANDb+VJpDqoJQK4kTxYT7M8al5TMInUCHOgBCqwMvkAu5URFhQNYBtq/l3c3AaJsrzkotf7Z/1+LllAkFwCAREGcJpQLciE+CADeJJDK8gAgSiFvPjVPqsSrIdaRQQchrlLiDBVuUuI0Fb7SZxMXw4X4CQBkdT5flgGARjfkWfmCDKhDh9ECJ4lQLIHYD2Kf3NzJQojnQmwDbeCcdKU+O+0HnYy/aaYNavL5GYNYFUtfIQeI5dIc/vT/Mx3/u+TmKAbmsIZVPVMWEqOMGebtSfbkMCVWh/iDJC0iEmJtAFBcLOyzV2JmpiIkXmWP2gjkXJgzwIR4jDwnltfPxwj5AWEQG0KcLsmJCO+3KUwXByltYP7QMnEeLw5iPYirRPLA2H6bE7LJMQPz3kyXcTn9/HO+rM8Hpf43RXY8R6WPaWeKeP36mGNBZlwixFSIA/LFCREQa0AcIc+ODeu3SSnI5EYM2MgUMcpYLCCWiSTB/ip9rDRdFhTTb78zVz4QO3YiU8yL6MdX8zLjQlS5wp4I+H3+w1iwbpGEEz+gI5KPCx+IRSgKCFTFjpNFkvhYFY/rSfP8Y1RjcTtpTlS/Pe4vyglW8mYQx8nzYwfG5ufBxanSx4ukeVFxKj/x8ix+aJTKH3wvCAdcEABYQAFrGpgMsoC4tau+C96peoIAH8hABhABh35mYERiX48EXmNBAfgTIhGQD47z7+sVgXzIfx3CKjnxIKe6OoD0/j6lSjZ4CnEuCAM58F7RpyQZ9CABPIGM+B8e8WEVwBhyYFX2/3t+gP3OcCAT3s8oBmZk0QcsiYHEAGIIMYhoixvgPrgXHg6vfrA642zcYyCO7/aEp4Q2wiPCDUI74c4kcaFsiJdjQTvUD+rPT9qP+cGtoKYr7o97Q3WojDNxA+CAu8B5OLgvnNkVstx+v5VZYQ3R/lsEPzyhfjuKEwWlDKP4UWyGjtSw03AdVFHm+sf8qHxNG8w3d7Bn6PzcH7IvhG3YUEtsEXYAO4edxC5gTVg9YGHHsQasBTuqxIMr7knfihuYLabPn2yoM3TNfH+yykzKnWqcOp2+qPryRNPylJuRO1k6XSbOyMxjceAXQ8TiSQSOI1jOTs6uACi/P6rX25vovu8Kwmz5zs3/HQDv4729vUe+c6HHAdjnDl8Jh79zNmz4aVED4PxhgUKWr+Jw5YUA3xx0uPv0gTEwBzYwHmfgBryAHwgEoSASxIEkMBF6nwnXuQxMBTPBPFAESsBysAaUg01gK6gCu8F+UA+awElwFlwCV8ANcBeung7wAnSDd+AzgiAkhIYwEH3EBLFE7BFnhI34IIFIOBKDJCGpSAYiQRTITGQ+UoKsRMqRLUg1sg85jJxELiBtyB3kIdKJvEY+oRiqjuqgRqgVOhJloxw0DI1DJ6AZ6BS0AF2ALkXL0Ep0F1qHnkQvoTfQdvQF2oMBTA1jYqaYA8bGuFgkloylYzJsNlaMlWKVWC3WCJ/zNawd68I+4kScgbNwB7iCQ/B4XIBPwWfjS/ByvAqvw0/j1/CHeDf+jUAjGBLsCZ4EHmEcIYMwlVBEKCVsJxwinIF7qYPwjkgkMonWRHe4F5OIWcQZxCXEDcQ9xBPENuJjYg+JRNIn2ZO8SZEkPimPVERaR9pFOk66SuogfSCrkU3IzuQgcjJZQi4kl5J3ko+Rr5KfkT9TNCmWFE9KJEVImU5ZRtlGaaRcpnRQPlO1qNZUb2ocNYs6j1pGraWeod6jvlFTUzNT81CLVhOrzVUrU9urdl7todpHdW11O3Wueoq6Qn2p+g71E+p31N/QaDQrmh8tmZZHW0qrpp2iPaB90GBoOGrwNIQaczQqNOo0rmq8pFPolnQOfSK9gF5KP0C/TO/SpGhaaXI1+ZqzNSs0D2ve0uzRYmiN0orUytVaorVT64LWc22StpV2oLZQe4H2Vu1T2o8ZGMOcwWUIGPMZ2xhnGB06RB1rHZ5Olk6Jzm6dVp1uXW1dF90E3Wm6FbpHdduZGNOKyWPmMJcx9zNvMj8NMxrGGSYatnhY7bCrw97rDdfz0xPpFevt0buh90mfpR+on62/Qr9e/74BbmBnEG0w1WCjwRmDruE6w72GC4YXD98//DdD1NDOMMZwhuFWwxbDHiNjo2AjqdE6o1NGXcZMYz/jLOPVxseMO00YJj4mYpPVJsdN/mDpsjisHFYZ6zSr29TQNMRUYbrFtNX0s5m1WbxZodkes/vmVHO2ebr5avNm824LE4uxFjMtaix+s6RYsi0zLddanrN8b2VtlWi10Kre6rm1njXPusC6xvqeDc3G12aKTaXNdVuiLds223aD7RU71M7VLtOuwu6yPWrvZi+232DfNoIwwmOEZETliFsO6g4ch3yHGoeHjkzHcMdCx3rHlyMtRiaPXDHy3MhvTq5OOU7bnO6O0h4VOqpwVOOo1852zgLnCufro2mjg0bPGd0w+pWLvYvIZaPLbVeG61jXha7Nrl/d3N1kbrVune4W7qnu691vsXXYUewl7PMeBA9/jzkeTR4fPd088zz3e/7l5eCV7bXT6/kY6zGiMdvGPPY28+Z7b/Fu92H5pPps9mn3NfXl+1b6PvIz9xP6bfd7xrHlZHF2cV76O/nL/A/5v+d6cmdxTwRgAcEBxQGtgdqB8YHlgQ+CzIIygmqCuoNdg2cEnwghhISFrAi5xTPiCXjVvO5Q99BZoafD1MNiw8rDHoXbhcvCG8eiY0PHrhp7L8IyQhJRHwkieZGrIu9HWUdNiToSTYyOiq6IfhozKmZmzLlYRuyk2J2x7+L845bF3Y23iVfENyfQE1ISqhPeJwYkrkxsHzdy3Kxxl5IMksRJDcmk5ITk7ck94wPHrxnfkeKaUpRyc4L1hGkTLkw0mJgz8egk+iT+pAOphNTE1J2pX/iR/Ep+TxovbX1at4ArWCt4IfQTrhZ2irxFK0XP0r3TV6Y/z/DOWJXRmembWZrZJeaKy8WvskKyNmW9z47M3pHdm5OYsyeXnJuae1iiLcmWnJ5sPHna5DapvbRI2j7Fc8qaKd2yMNl2OSKfIG/I04E/+i0KG8VPiof5PvkV+R+mJkw9ME1rmmRay3S76YunPysIKvhlBj5DMKN5punMeTMfzuLM2jIbmZ02u3mO+ZwFczrmBs+tmkedlz3v10KnwpWFb+cnzm9cYLRg7oLHPwX/VFOkUSQrurXQa+GmRfgi8aLWxaMXr1v8rVhYfLHEqaS05MsSwZKLP4/6uezn3qXpS1uXuS3buJy4XLL85grfFVUrtVYWrHy8auyqutWs1cWr366ZtOZCqUvpprXUtYq17WXhZQ3rLNYtX/elPLP8RoV/xZ71husXr3+/Qbjh6ka/jbWbjDaVbPq0Wbz59pbgLXWVVpWlW4lb87c+3Zaw7dwv7F+qtxtsL9n+dYdkR3tVTNXpavfq6p2GO5fVoDWKms5dKbuu7A7Y3VDrULtlD3NPyV6wV7H3j32p+27uD9vffIB9oPag5cH1hxiHiuuQuul13fWZ9e0NSQ1th0MPNzd6NR464nhkR5NpU8VR3aPLjlGPLTjWe7zgeM8J6YmukxknHzdPar57atyp66ejT7eeCTtz/mzQ2VPnOOeOn/c+33TB88Lhi+yL9ZfcLtW1uLYc+tX110Otbq11l90vN1zxuNLYNqbt2FXfqyevBVw7e513/dKNiBttN+Nv3r6Vcqv9tvD28zs5d179lv/b57tz7xHuFd/XvF/6wPBB5e+2v+9pd2s/+jDgYcuj2Ed3Hwsev3gif/KlY8FT2tPSZybPqp87P2/qDOq88sf4PzpeSF987ir6U+vP9S9tXh78y++vlu5x3R2vZK96Xy95o/9mx1uXt809UT0P3uW++/y++IP+h6qP7I/nPiV+evZ56hfSl7Kvtl8bv4V9u9eb29sr5cv4fb8CGFAebdIBeL0DAFoSAAx4bqSOV50P+wqiOtP2IfCfsOoM2VfcAKiF//TRXfDv5hYAe7cBYAX16SkARNEAiPMA6OjRg3XgLNd37lQWIjwbbE77mpabBv5NUZ1Jf/B7aAuUqi5gaPsvnQqDFgEBptUAAAA4ZVhJZk1NACoAAAAIAAGHaQAEAAAAAQAAABoAAAAAAAKgAgAEAAAAAQAAA72gAwAEAAAAAQAAAM0AAAAACu9vQgAAQABJREFUeAHsved3VUmW7RvyFoQMwoOETyB9dlbVeP1uvbpf3v2T+8O74/YYfavHuF1ZaSETL+FBWHkvvfmbsePoCCQBmZApYIV0zt5n7zArZmwTM9aKFQ0zc8urqQrs+EdDOfKSrSIT9VWjvyS3OB0IBAKBQCAQCAQCgUAgEAgEAoFAIBAIvFEEGt9obpFZIBAIBAKBQCAQCAQCgUAgEAgEAoFAILCNEAjSu40aI0QJBAKBQCAQCAQCgUAgEAgEAoFAIBB4swgE6X2zeEZugUAgEAgEAoFAIBAIBAKBQCAQCAQC2wiBIL3bqDFClEAgEAgEAoFAIBAIBAKBQCAQCAQCgTeLQJDeN4tn5BYIBAKBQCAQCAQCgUAgEAgEAoFAILCNEAjSu40aI0QJBAKBQCAQCAQCgUAgEAgEAoFAIBB4swgE6X2zeEZugUAgEAgEAoFAIBAIBAKBQCAQCAQC2wiBIL3bqDFClEAgEAgEAoFAIBAIBAKBQCAQCAQCgTeLwJsnvQ0NKfGJEAgEAoFAIBAIBAKBQCAQCAQCgUAgEAj8wQg0N5igrqaV1ZRW+eivQX+N8Fad45iP+lyWtjrl86a3ikS0dVS3ypcTziIn3fB7XboNY3xYB2t4GbsMYEYYjIUW/8I3cPuwrouobSAQCAQCgUAgEAgEAoFAIBAIvD4CzU1NkN2GtLK8oq2olT4NYrxNTY2pUXpgHU4rfKpzLkKEqxHSJdaVCRo7pIWP8ZXP5V+ZtG3KfIO5bdxqwCZAV1ZXhH/+ELFRjdJEoyl4wIJGIAB+hEAgEAgEAoFAIBAIBAKBQCAQCAQCgXUINMOVTK6k6l3Rp0FEFy2vSW0V1XzKEc1nrWG0ptGEK5PdTJihuUrLx6pikWa4GGU4r/ztXX2FrrIgsfF2fmE+TUxMpMnJyTQ9PZ2WlpZSc3Nz2rFjR9ozOJi6urs3ThhHA4FAIBAIBAKBQCAQCAQCgUAgEAgEjEDz0pK0iNImLi8tm9E2NzZZywt7xeR5WapeyDB0FaILmc2E19FNXFca0BLneD4nLbG3SiMlsT+F9rrU+Ho5AsJ/amo6Xb1yNY2MjqQ7t++Y+EJ6h48Op7/+9b+l7h3dWcEbWt6X4xkxAoFAIBAIBAKBQCAQCAQCgUDgg0SgeWl52eazaGoX5+fT06fTJlfT01Npfn5BpDdrgDGxhbgW4ov5M2bQaITb2jtSz86e1N29I7Vrv0kmuOSHLjfzsfUa3g8S6deoNNpywuzsTLp1+1Y6f/5Cunr1Shp/Np5aW1vT3Pxc+vzzz3OkgDbjEN+BQCAQCAQCgUAgEAgEAoFAIBAIbIBA87JILwSVuaITMqM9f+F8unTxUrp+/ZoI8FOR3EZrexcXFtLS8pJJLNrelpZmm9o2SfN46ODB9PXXf0qnTp1Ke/bsTW0iZspWIZs+b1BuHHoFBOY1CDE29jDdvHkzjYyMmPS2tbelvfv2pbm5uVCevwKGESUQCAQCgUAgEAgEAoFAIBAIBD5sBJpdfWlrIbeQrAf3H6RLly6lb7/9Nj148EDktsXaXWt6s/K25kyJc2geF6QRPnr0aDp86FBaXVn2vGDn+yu1kM8nK5rPD6WpXH99MSABuZ2amkrPnj1Lz54+S52dnWlmJs/vzTg9j9aHglLUMxAIBAKBQCAQCAQCgUAgEAgEAoGXI9Dc3NSMPtbEFnNkwpLm987MzHhOabs0ix0dHamrqyt1tLenFpFctMIQsial7ehoT729vamtrT01yqtwYxOen3M+mDavyDw6mzi/XJh1MQqX+9AYLyCo7qVNWlpbPPBgU3EdbbRX7by8cjYhL622Dr34EQgEAoFAIBAIBAKBQCAQCAQCgUAgIASamZfrP2t7RbYgqtLWLi4u2ltwSm1p586d6Zg0ubvlMRgCzJI5eBKG/EJ29+7dm/bt3Ze6RYxxtARpq/izQSb/6n/tuImdTlOeY+UDkD1CvUz8lp8sneGccxNJz8XkucY6yoHq3FpZhTGvEW8fcVwyzesTa88eq8m9RiSrOKt48+K8cHKh/FA6H9VXkZeyHQrDJzp/mZ/aGRiJ1uKX846V0zqNdhsUy6BoAKFyLFZELnOqc1mKWhXLklKEjM5aOcy5rkXKAvDtQF35kAVt6R1krOSsl79KWqJQQA5F5upnbAKBQCAQCAQCgUAgEAgEAoFAIBDYTghoySK0vJn0mNiJbWWip3m7IrCY0x45fDj97b//d8/Z7erqlOax1XXIBKxRzqvaTYzRBrc0M5+3MKJcVRMzfcGr4I4EuCReocv6v5SZ16TN8pjsNWtNWhKJYS16rVryzR6kIXPIDvlmCxFvFEGElZn46TyEk+K8DnFmzdaUIk8mdtraQZciUQ4ysTCxQlMza+GuWqPNb/IGn5wuZ0C5yEw6Bg+cvnL4Bag4+8ryy1RZXrLxhE2aEtDa4i27pEVYHaqwIbu1uCVN/ZZ6OC0xlT9ZN1YsG7k4rwrXcAANMHe2bCQr+JFHW1OL6ocGPxNhvHHTWMgPnrU2rcArJJuz/EcIBAKBQCAQCAQCgUAgEAgEAoFAYDsikOf0SjITKJEXaBZkCx4DqYVMsh7s/v0H0okTJ9LOnp2pXdrdTCypkvYUz+n1CzJk51jaZxkk1pqdn5tPs3Oz+r2oeJlUwQ3hX4S2tqxNZkteYlsmUia1cp7FvNanT8dlcj0rDfSSCWm3yXeLid6CnGxNT8+YZO7a1SsS3iZyt5IWVDZeqDlPnjjYYpkfyB3zl/FOzZa4EFTK7+rsSu3SZrc1tvnco0eP7EU51zHXtbVV8UTwIfs49AIjMCO/Sa2rOyOvy7nMVWHV6ngdHRoQqDMNBxPLIBmXhAu4tav8np4d1qY3NjTXcUm3hurAlgD62tc/XB1CDUZzVZ6UjaYe4poHAxpN2JubW6yZp5xsjq5cTNY1qCAZSDcxPpVx1m9w3D3Qnzo08JG5eq6/m4ga6+CqSLZlyYLFdyAQCAQCgUAgEAgEAoFAIBAIBALbCoEa6d1IKkjTksgThAryyDxfyN5qqzScsFaTLpEeER+IpDWfrOtrbemqiejDRw/T/Xv30+07t9P4+DOd0xJJyheNI+kgZfvkjfiTTz4Rsd4vMtaaSaQIMaR5YWEuPRgbS5cvX0537txNEyKVkM4DB/anfhGy7q5uH/vll4upWXl98uknqb+/X4Qyp7t69aqI3ISJJ8ePHDlsTfXjx4/SkydP07jyWxDxRUM6OLg7nTl71nIg11M5jvrpx5/SrVu3RNpnrKnFedfAwEA6fuxYOnjogElhi8jkoojn1NRkunbtmpcZevTwYVoQdp2dHc7v9OmPVM+9KrvdhPTJkyfp9t076eaNG/aSzUAB8n300Uf2ht2za5cHADyYAL/VB7xrOxzTTzjrgggqZPuBPD3fvXtX9Xqitpp2+WjE0VJr8ra08T3Gep/M0Qf37NESUzJHF9mHdDOgcP/BWLqidYFxZjat9Lt3D6Qvv/jSWOOlmzncDFoQIPn1WmsfjK9AIBAIBAKBQCAQCAQCgUAgEAgEthkCLyG9Ip4it5jArs3xhXfJTJaZuOI/aPmydraqmY6hwYSc3rt/zyRwdHTUy+6wBBJ5QXyhThBlNKWH5PUZojwrUr1XxJA5xGglIdZz0p4+fPgo/fzzL/Yq/UR5oKkcGhrW8kh70o6dO+TV+Gn64fsfpJHsSL19vU43PT3tZX7+8V//lcZE5piLzJzk+/fvq8wWH3v8+LFI77jlpQ6Q7nlpO9HuEn9MZPubb75JoyOj9qDMmsakZQ4z9UOL3SZHU3iwhgAyKMC6uhe0ri51RuPbLS35qdN5KafBPYPWuK6sLLlcCC9esu/cuWNcDmrpJ8olTacGF5DppVpUATk7O+s8Ll++ki5fuexBhmnJQpsRwBkS3yst+MFDB+1pm+WlDqi+O3u6VfZyejo+nm7cuJm++/a7NDI6kmaE30G1y66e7KSst2+XCPza5QLZhnGziRAIBAKBQCAQCAQCgUAgEAgEAoHAdkVgjcVsIGG9Ng8zWIgTGkNMgcvcV7w157muzG8VCVY8tISQr59++il99913IoA3RBIxT56x5thaYpXnOa3SIN68eUvLI42lGzc/1nq/X6fjx4+ZoIn1mbhBlq+I0KF1haRihswSPrukDcVx1uTkpAjbDWkmM6nlPMv83JV2+fKli9Km3kzNmoe8Q2QajTH1IP3U1LS12DjughiyHi5Et7e3z4QTmUn7SFphTIeRm/IgqWiKIdbI0Nm1w3miXX4obeuoSOPFixdNjCHlaK8nJ6c8h1ZVUj7L1pyzJBTLQ6EdXpYZN/lRd7TRy8t7LAODA5gW27y4/GDIoDoG5s8mJtMvKu+//s8/0vnzP5nYoznOOJMoD0wwP7u3r89m6uMiuR9//HE6duyoW37swcOEVvzb77411ouLC9ZA79W6y13SCLfLS3eXtOpM9aUOrZ7zzKBIJZtzia9AIBAIBAKBQCAQCAQCgUAgEAgEthcCW5JemBZaWbSa169dl5OqFhHDGyadaGwhjyZSIn67B/fY7Biz2tu3b5vwoiU9f/68COITmxdj6rtDpsGt0paiQUYTiokx2te5Weakzmnea14X+PTp055fyzxTyPIzmUY/fiLNrMga5ULo0NSiDSUdJBYNKft5vq7m8yrdU+UPkW2S7LMqg7Q9PT3WJmMmDXkdl/nzrGSBKEM8u7t3WHvbKlkgfM2tzenJ46cm7mBBHdGEdkore+7cubRnMBNDHFUxdxkSjjyYcy8KJwjvkkgt5BOyiuzgh4aWeNSDYwMD4ybiZZ5xvlQwI8ZJVflks2KbiGMmvoymdy6NPxv3YAOkHGLLUlKYe5MvpsuUg+yYbIM17dbZ0emBApyTIQ/lgsHE5ITnZTNPekpm7chJ+WCNWbqmEbsukN8cINYRAoFAIBAIBAKBQCAQCAQCgUAgENh+CGxJenGuBGmDxP7bv/1b+o//+A9rOtGKYs6LKW5/f580hp+k//H//o80oDmgaEshuv/4B1rH8zJNfmjCe/TocDpz5kz6RHEHBvpltjyXrl8fSX//+9+1vW4NLppGiBWenDFd7mjvSIsLiyZgmBDjOArtrLWi2hbiDfmCxGEW3a40kNm2tkUT12YRbAgvZHentK7Hjx+3HDjlguT985/fynT6Z5lCXzcphIRj7kv5xzRv909/+pM1tRcu/Jx+kYn1Lxd/SY9l/jw29sBzfdH6HpZ361Zpc8EF0sk+zrAWpC2FfLZK84wnbM6Lg/rDPFtMpdFKg6PgdP3QorOfP3nutD1MVwnZh8hCQpEz76/aHPro0aOaE3xGmupdMtXeJ81sp+ZEL6Y7t+9Y446J+PWR6ybZly9d9tzkc9L27tqVBwEGd+/WnN/9GWO1O6bmzF8GV2TNIWv0PW1bJD7m9W6/mzokCgQCgUAgEAgEAoFAIBAIBAKBNQS2JL0wr6wpnLF2ENNl/8Ey9Y9Tq/Hx3dYW4il5QUT2nhwpQWJHNaf1/oP7Jq2YHZ+WgyYI5BdffKH4u004IVRoYdFC4iyKubSQ00HNvX0i7XBvb2/WkIoE1sqV7BAtNJ1oWiFmPT27TEyZG4xpMCQNza2X57GzrGaTUcybjxw5Yu3sp59+aq0wmmGcQN3X/GPMqNEq79ixQ6RXMkvb/NVXX7kciDRa5zsymYbIz0v7ieb0mTSnEzIvpk4QWcg5SzpRD0guzp9wFsW+Cb3lz3WgHuhI7dBLyzNBLMkDeH3O5DbHcZNVZLiYNnMG8osnZuYjo+mmTXCIhdMsyDQepTl/9949YXzbOKLNvSftOibl1J/502i/D4m8f/HF56r7bpmVL7kdINLkR72Qyw2vcm3KbuktWXwFAoFAIBAIBAKBQCAQCAQCgUAgsC0R2Jr0iiJB1urX4UX7WrR+zPPEOdJ+EayuLrwS4wTqocjUA2kLJz3vF7IEgfxMJPPTTz9JfZjeSmOLBhRt6pGhI/I4fE/pZLos8ot5MSSYfNAcQ7oh22icF0TglrWFPELohoaH0l//n7+lUydPeFkliFufiDJmxXgxJi+IL2vuYjYNmYUcsvwS81MhmLsHdqc+aaupE2UR0AhjtsycVwgfawbvlwZ039590ijj8ViwtWTv0zizgjhi2oyWtk3kmLyYU4uW1cs3mdxCb3Eqxbc06HIyVcyw2W/RH4SykOVM7HOaTDZ9OhNPkU8w8Jq8yo95xXh9xvQb7PC0zTxpAmXg9fqx8GWuNUsT8cFpGGbaeG5mnjbYnTp1UmR5j88tLCxZQ039wYNrgFCIL+U7qG4RAoFAIBAIBAKBQCAQCAQCgUAgENiuCGxJeiE2kDA0qSdOHPdyNztFHDHJ5RyEFs3i4SOHvJ0SyWQ+Kx80jATIEhrbAwcO2HSWtJgcN0uzuUNr5vb39fs8a8KOKz7EGbLKUkIzmlOKqXAh2Zhbixe6XLS5kNezMpmGnLL8TtZGNpjIQZQLic1LKqGFbVOZO01+iYt5dKdMgJnbCrmHaBKQkeWLIOWc4ziEmTV+kYW4jcIFWdD+ouVG48oBtK+US9587FBK6dFU4/CrYo0ux8RW5Jg4mEWTH7jyyVrcQiirdDpOes4TGTyWpJGFdKOhRlM+Kg07GusiA8sm4d0aE2fmLkOwOQcZZhCBfdqYNgELtLwMFCzMa51flUJ9IfMl5LLLL7bIUuSsPx77gUAgEAgEAoFAIBAIBAKBQCAQCPzxCGxJeiFpkDHI31/+/BetYXvGpsNoWSFKfFpamqx17RaZfPJ0XPNYM9mD0JGWuMy3xcSW32hNyRfyBHmEfLIEkcmViLCSmSxC5JgTCxGDhHKe9GzJD3NiPpj0cgyihkkueWN6i9Mt8jbRfEs4M/eYMiGeyM1823l5eUb2THhXsqZX8QpRzuQ3mzIjN8efD+RV45GF5GaeC+d1YIvWG0dTeJj+7vvv0s+ad3z16hU5/HriOLRBkQPZcEjFHGnyZvklPshDO9IeznN51TLnc4oqzOtDobjEtZz1J2M/EAgEAoFAIBAIBAKBQCAQCAQCgW2GwHpG87xwYjaQMrwu79u3z+u72jxZRJbjaFOb9IH84I2ZLSSqXhtIPEgV25KGOGgY+aAhZX6utZ4ih2w536T4heSydVozrhXtN5gIQ37RJOMkikB+MiD2PmlKOh94C19Z5rWlgQrJhARj7oy2tgSTStWrBEhjPU7l+PPbuhQ6Vf2qNmhtMWe+IY/arFP8448/2qwb82UvpeTBhjang/QiH5iwLQMPJcv15eZ2p5gXZNTBqniTZNdwtRwpuazVuxyJbSAQCAQCgUAgEAgEAoFAIBAIBAJ/BAJbk16RI8jSsrwEM3eVOarwOCgOhAtChCbQhFYOoyCfxRwZ4orZ7pLi2aRWS/YUsgUZzGa5815uBw3kjD6YCqOdZf5tt8yJd7B0kJxCkT8F47UZZ1kLc83Ks840V+WaQFcIMtc1k968/NEfASxlgoGxkfzIBx7UA6JP/fnY2davFHBOJsqsC4ym9/r1655LzdrHh/cf1vzpT9MROaba0bPT2ufbMm++du2qllSak+OtvNZxm7CmDZGNLR/IcLO098WkuZDjQuCpE2Htt35wSNfFGtXVAV07EQKBQCAQCAQCgUAgEAgEAoFAIBD4oxHYmvRW0kFwIKzQGkgQxKqh0hyyjm8msyKaMtdl7ivzfnEeBZliTilzfO/du+/1eJkry9xaiC5zTJmHyvq7s1pLlnzaZQYN2WUeMWvkEjJZzNwqr0+LNli/TdTQIGt+rY4gp+VDRmuWHYss3krIJDFrsSmf3ybbLTLjBiMVz7xbyDxLLYEDGLL+LRpa5i3jSOrXBps3yxMzc3hZ63dSzsOY64xX7LNnz3ppJtrjicydmWPN8kqYVONR2tp3y5gHJzDTxrEVTsDmtNYwbddWzcemPZhzjZfnCIFAIBAIBAKBQCAQCAQCgUAgEAi8SwhsTXohlSKPee4uc2TlY7gFjS6ELnsoZq1YtMHFHBlvyAOaa8s83BWZ+EL4WOLnhx9/EIlqS5999pkdV7Hcz5i0lCMjo+n2rTt2xAQhwywXr819fb2eu8tyQPPKg9AostbYCGlrNXFGKwzRhAFDsr2rr6KlfNvKRsy7W0Rwm/Vx2cKKOmJyXcyIF6SNpQ4PH45ZE4vpMQT1ljSv97VsEJrXXxsYJFheYW6utMb6FI0tzsXwUo3zMMBhji/E+OnTJ2qT5YwPmlmlBz8GFdD+oi3+5ptvvHzUojBnLvcXX32ZTp44oaWh9mn+dHW51ClxjXHd71yXFw782ipGukAgEAgEAoFAIBAIBAKBQCAQCAR+EwLNEB+zxiobftd/IFL8RoNq7aW2ECX0qrWg89YMioSybu7w8HAaHhq2Nnduds5azQvnz9upEp6Ze3v7pPWckLntNZHeES+10yYvzcwXPnnyZDp+7LiJcZPMliFkEGccMlEG7BIiTumYBmMqjEOphiYxXwVkJR7pnIbz+vAb8+hcn1wnjkPMV0QcNwsqzmWZXEoGNLN2DqU0OS/0y5SbvUqzxE92sNVlDSsm4RDen376SfWYVx37XV8cTj3QOsbgQz7kiSl4qSe5UhfmBnOeQA2pKx8CgxE4AcNZGI7C+E16z/O9Merf5HHr1m1reSG+yAAWmKvjwZl9nFsxCMFayd9++226dOmSMWdN451aymiXtO67tDQVZNoyqHg07lQ8XwsWJ74CgUAgEAgEAoFAIBAIBAKBQCAQ2HYI4NWoRtogSCaCIlmY5UKIIJx5/izxRHXFdSBimC1DOiFaBIhZu8jXwYMHnQaChdbz4sVL1jBeFJG6dft2+vaf33rOLvmyJNG4NIwqKg3uHkwnT51M//p//6u0wZ/avBmtZCFlmEND0rKMq97HDDc7jRIBRTCCMpvXcjv2/gzBEwkkj9XVTPIgrZmsZjKZ163N840hcAS2yMQvtLlSp5qQ4pkZOSgXLCC0yIRWFNy65Gn6sObR3rt3L50Xycekm/OQyf/5//1PE0rMj6kDxPTpk6fKb0ZElfV8MS/OdUQmGgUZmA+d509nucCe+iAqJse9GijYPTio9YT7TKIxnb5w4YLNxtGaQ4hJj3aZMikD7JHLS0tV3qYnKlNzZL+nNY7BE0dhaKNJC560d6MK5hy4SzyvWYwzswiBQCAQCAQCgUAgEAgEAoFAIBAIbEcEmlnDVv8mUZjkQnQgS8y9hfx1dLSbgGKuDOGB7EEvIWSE7GRKpFdEDALMEkKY1X7++eeeP8r83RvSOo4/G09zckJ17/49kz60lZgkoz0c6B/QWr+H07mz59Inn3yShoaGTCDRWpI/WuAeaRyZqwqJY54qc36RtZg1I4upl74wtcb0mbxZI3hK817JhzyoB+chas2a04rTLMugvFnrloA2tqNdHqqrOa/Um3LAopBMiKtNsFUGeZAnafByfezYsfTRRx/VyOastLkQzfFxViLOaxfv3LnD+CAXTrwoAy0x+DGvGSwxnWb9YTTjg4N7bNKN/NSJ+vFBO3740OH00ZkzJsOQVsjsI5mUz0irjql5qR95P+l8IpPqWWHV4HZGduqJaTnYMh+7R+1PAC8wJg7XiQccOGFCXl0Apr5BeoElQiAQCAQCgUAgEAgEAoFAIBAIbD8E5Jsoz4VtlnlwhzSHg9IaHj16zITt2dNn1tYePXrUJq6QYjuKqkggylXIE5o/NMNFM9vR0ZlOnz5tsgYJvHHjhpfSQdOIQyXMiSFRkNlCks+ItA0PD6e9e/ea1ELCVIy0ma0mg5g9QwQhsBAx4qJVJj1m0BB08UeRxyTPz6zjO5AOHTrk+ahoV3HCNDw8ZJKIBrqtrUUkrk316jFJh6RCICF2aGshlqz1C6fDUVZ3V3fap3myOIiCiDKXeY9kPXjgYOqV6W9LHQk9eeKkNaP7dJ45yxMy5cYLNWS9f6DfWwgrJPj69esJLSter48cPmIZIb+QW+pJ/hOnJozVlBxVtbd12Py7s7PLdSLuqVMnXf/9wvrixYvW8qoirsNREfA+xWlWHdCqj45KHpUHiaeN0BBTn30yS0fusa/GTJTRhu/buy+dO/ex5UKWNX6LqXvW8Bft+Pa7tEOiQCAQCAQCgUAgEAgEAoFAIBAIBGSdCmmBXGK62iqitWfPXhO6Xbt22vwYQjlg51QD1jQWzS7LAq02ihEqrXIQCWJZIZneLq1YQ9nZ2W8N4w6RUsjYXWkgIXkLLDW0nOcIt4gIoj2F6OIsibmwkNMmO8pizqq0p9I+QsTPiWziJGtG5sDMYyUNGmW0mJnw5uV20OB2Ks2ePYMinsd97plMrXGChfaadKRBiypKLS1zv4jmsLWmkEHIO0Rw3/59Ip3KGyat0KV6UN4XX3xuMg1x79nZk4aGhlOfNLGQVBxake/evXuU4uPULxJNGjSveLbuUn69ctBVyp+cnLI8eHZmAACifljEFw1raxX/yNBhYdKUBvfslin0nMnzgYMH7KWZQQiWiWpUnRgk6NHyRBB3vDWDCYT+UEXgiYscyDOlLe26/8B+y5O1x7vSEWnbp2c+N9GG9CLriRPHjT+m1GpqDwqAB+3PAdo+QiAQCAQCgUAgEAgEAoFAIBAIBALbFYGGmbllKTfzXF7m6eZ5pXMivgten1dcWIRNGlkRxc7ODmskITyeJ6taNUmDiHa1sSHPAZ5FkwupRROotMxPZT7otIgd+57/KUIGyc4hm1D39+0ycVwUabZ2VZpniBuyef6pPCCTz5LMqCGB3ZIFwtzSKlNgEWXIOHk3Kh0aZ+JirjwhYjmneauQcbSrPbt6rNns6JB3aRG7ycnpqs7zqnOe20s8tMOQQZN75rBWeaJpZo4zmnGTzpZ2E3M0zq3SHktkzyPGKzNYMsd2wdptebgW8W6XzM3CZlllUx5mz9QRgg9xxSEV3p/5YEw+L1Nk5hFPey7ukiGjHdAYM4dYYjifmdl5acHzHGnm8IIR3rbJr7m51fnTZuRFuU1KyIACZuLtItxM1oZUP5F2f0Zb6Cxadoh0B7KonTkmUR2opwmvt/lYfAcCgUAgEAgEAoFAIBAIBAKBQCCw3RBomK5ILybK9gwsVgOhaRFpEqsRucUbcmY6JpbW6HIc51CY/rKkkQigCCckck5OpJbkbAmyyFxRSDGpcShFfq2t0rCqgKXF7KSKNJhMt4mgcXxhYW3pHfJGcwr5RQbkQ05INvNxkXOJ4yqAOHzIS4e1n48jOrKSL4Jg1gshzJrpVRHA7MmZzPznLRmQLhNTysWhlUm4MvGcYZmFU/D8gnBQ9JIn5RPyQAJ7LAm0Yg/JCABRRt5FDSqw5TemwqQDiwU5iCJDNLjN0nhb0azf1JPBBOqCHJilUwcPIlTn15xcNWScVTpm2GCXsSG/XA9lYbldN+1DnpF50Y6yaPPcLtTLc7lXJZ/KyanYkg9bQ5V34jsQCAQCgUAgEAgEAoFAIBAIBAKBbYaAzZshQo0iNaJHImPSdpr4rJjUQMwgTBAztnwy8UEPmclRpj2YAePwSea28OWKEXmrTCCwCYtYHYeEoW2EwNlMVumW0A4ra+LlOFnjCxFTqYbNXoMhzzq2JMIH8YWUQUhXJT+ymhxrJ5NOJIQsZk/N5Ev+lsXSss5uo88vVOTVJFv5KYnzoGDSMQeZemfynZc48nHqpfIgiZSZccqEmbSlLPZzUF1EyPWl+JlUF4KJ/JmE5vouC6dFDQ6QL8Hn9cVvKc1d5nKFVz7naLW4TuN0lXyQX8/hhoiTT56LTcZLriMpqE/22k05aJ9N6NWomHpTZwLlCQ6qESEQCAQCgUAgEAgEAoFAIBAIBAKBbYtAc+EsmcCJFIrUSJe4jtRk0pfP5Zpk8mvuBq0U+RHnMyEyiSXTihzljBTfhEnHFbeQOPI1CTWh5BS/lRgypZDJrmTJP82vyFpFYY2bViw8sbyT45F/RVgpJ6fN5ZR6kJ1Jm5KJxtWIHMdz0AllQr6lPoVYs0IweTq9tiVPyGo5zrlyvmypl+m7cUEezIVzsJwi7YQ1TSwyqI7KgPOlnJwif7ue2q2SGnLkreB0JKOjMgvmHMzlka9+gFU+SOHOo1YWEVx+jpMlzN9VKlJGCAQCgUAgEAgEAoFAIBAIBAKBQGDbIuA5vWY6EhEyhCYzs6FKZnGcQpzga163VlEyGSMOlAniyPfGgRiZWSmOIvG7aEZNsEjpxJSUg0kah5WAY6QpZK0q0udMEqtUTuN4xHepVWZrvyHZ5FmC8y711kGbMWuby2OnyqdKUsqwVD5W8srxSt61ZCUduCqU8+BH3vyt5eUoOV6pU109iFfqlVFxhlXMLHP5ZvCC4GLrynmhfnX5Ex/5qCPaccum3ybS5Jf/ibYuVVVFH4+vQCAQCAQCgUAgEAgEAoFAIBAIBLYTApn0vo5EFZmqkcHXSRtxXwkB0+PMkdcRzVdKHJECgUAgEAgEAoFAIBAIBAKBQCAQCARqCLBuz+sFNJQRAoFAIBAIBAKBQCAQCAQCgUAgEAgEAoF3AAG8M0UIBAKBQCAQCAQCgUAgEAgEAoFAIBAIBN5LBF5f0/tewrANKxUTZbdho4RIgUAgEAgEAoFAIBAIBAKBQCDwriEQpHcbtljw3W3YKCFSIBAIBAKBQCAQCAQCgUAgEAi8kwiEefM72WwhdCAQCAQCgUAgEAgEAoFAIBAIBAKBwKsgEKT3VVCKOIFAIBAIBAKBQCAQCAQCgUAgEAgEAu8kAkF638lmC6EDgUAgEAgEAoFAIBAIBAKBQCAQCAReBYEgva+CUsQJBAKBQCAQCAQCgUAgEAgEAoFAIBB4JxEI0vtONlsIHQgEAoFAIBAIBAKBQCAQCAQCgUAg8CoIBOl9FZQiTiAQCAQCgUAgEAgEAoFAIBAIBAKBwDuJQJDed7LZQuhAIBAIBAKBQCAQCAQCgUAgEAgEAoFXQSBI76ugFHECgUAgEAgEAoFAIBAIBAKBQCAQCATeSQSC9L6TzRZCBwKBQCAQCAQCgUAgEAgEAoFAIBAIvAoCQXpfBaWIEwgEAoFAIBAIBAKBQCAQCAQCgUAg8E4iEKT3nWy2EDoQCAQCgUAgEAgEAoFAIBAIBAKBQOBVEAjS+yooRZxAIBAIBAKBQCAQCAQCgUAgEAgEAoF3EoEgve9ks4XQgUAgEAgEAoFAIBAIBAKBQCAQCAQCr4JAkN5XQSniBAKBQCAQCAQCgUAgEAgEAoFAIBAIvJMIBOl9J5sthA4EAoFAIBAIBAKBQCAQCAQCgUAgEHgVBIL0vgpKEScQCAQCgUAgEAgEAoFAIBAIBAKBQOCdRCBI7zvZbCF0IBAIBAKBQCAQCAQCgUAgEAgEAoHAqyDQ/CqRIk4gEAgEAoFAIBAIBAKBQCAQCAQCgUBDSvpfF1b55a/qe93ZDX88n8WGkeLgG0MgSO8bgzIyCgQCgUAgEAgEAoFAIBAIBAKB9xaBhoakf5PeQloL311d1ZHVTHxfynxL4vcWqO1XsSC9269NQqJAIBAIBAKBQCAQCAQCgUAgEHgHEBANTqsNq5XyFza7mjlvxX/fgSp8ECIG6f0gmjkqGQgEAoFAIBAIBAKBQCAQCAQCvwkBaXKt0UWpq4yy1hfCqwMQXx9vSCsrFfH9TYVF4jeJQJDeN4lm5BUIBAKBQCAQCAQCgUAgEAgEAu83Ama82Zq56HYz4eUYxDif2wwEp+FLodrkH/H91hAI0vvWoI2MA4FAIBAIBAKBQCAQCAQCgUDgvUHAqt212pjoQoDFclfYoP814eXgZkE0l3/mAAfj3QykN348SO8bhzQyDAQCgUAgEAgEAoFAIBAIBAKBdwEB09PCUV+Jh4rgYr68umKtLvvLy8s6ln+j6W0wOd6Y0TY2NqTm5ubU1NiUGrSPTXSOWeIXYd4F9N4dGYP0vjttFZIGAoFAIBAIBAKBQCAQCAQC2xeBognFvneLkEkhCtKt422RxZs7JRHKDNyXal8l77LI7dLiYlpaXjLZXVxaSosL+q0t5JfQ1CRCW7B4TtLmlpbU2dGRWltbU7P+Gpoy8V2Lpt/bAZc1gd6LvSC970UzRiUCgUAgEAgEAoFAIBAIBAKBt4fARvTUusmiqaxTVGZfxhulkHzEb8xyQjJrc2A5VYlfOF/hjSvVAbSk/G1NlnMuNVPjKk/yQrFaSuE82eatY7v8IkOOqV/533LnrCC+y2lhYSHNzc3rM5fm5udMfCG9Revb2NiYWkRwIcAlIHdbW1taLVrhllUTX+JQN4KrirCbwFfyeoUIa1FjTzhHCAQCgUAgEAgEAoFAIBAIBAKBQOBlCNQTMTiayJm4XUJZSZClr+e2bkXYqmQioOyJbK40SGuKabBIaVOjCS2mwoQmMlec5aVlikotTdKM6tDy8ibE13k6qTlhJssILaqs9BBRE27kFOFedrmYK+fyiEnIMupbka2xVWLScXxF8hIWF5fS1NSUPzMzMybBkFpI8MTEhNP19PSkdml1qSvnVkSW29vbvc/v5Xb9Xm1Lje1tyjGTY+QECxdGQZuGEnHTCHGiDoEgvXVgxG4gEAgEAoFAIBAIBAKBQCAQCGyAgIgYRM060YqUQSJZwgefTATIGnG87+/NuZvz0rzYlWU0p1WGyh3Sp1z0p8C+MvdG+aJFzdphyPDzIQuR05NDDhZHywlZTvLXn7WqzMVVlCxHia0iyaBoXcnFp5QOOXQcHk4c6s7c3NaW1rTSvuJ98kLGhfkFkeqVtKN7h4k78UiDhretrV0a4GYT/EKoLakrWQn9kg0iZphfI9FL8nzfTwfpfd9bOOoXCAQCgUAgEAgEAoFAIBAI/EYETHchqWJbq5BUEy/IpIhvpf0sZsichI7lr/UFwyEhbMyNNTnUtqGhSWbAEGg0q3XxKQaCKfNfyOSsyCQ5P282XJeitruufOUjXbLm3a6KhCq/5lwOeZcPhBUimz+kVnxpglf0MTlVuTifQmvLtqM9z8vt7e113EyeU3r8+LG0wIs2dx4YGEi9fb2pQ9peZC5Eua1N83lFhEt51L2ETGbBCGw56i9tkTXjUeKUNLF9OQJBel+OUcQIBAKBQCAQCAQCgUAgEAgEAgFYF2QMQijzXua04sUYQlc+9XNYNwTMZK5Bpr4y9xWfW5amdzWJJC6J0C3Mm9zOi9xC+tCIkm9rC+a/xBUB1Z/44gYBcljlKyJN/hDGNYKo8nQE7e6yyC8MEu2vo5GSuhEsXzZ5XpJZNaRX2aamZRFT1ZUfREWu9ub2TFyx76YuKndxaTHt2NGdqMOOnTvSzp07U1dnlzS8rSL2aHjRElMWH+pehWqHucKTk5Ouf6fStbZmsuy4ipPJ+Vr6kjy2WyOw4SWzdZI4GwgEAoFAIBAIBAKBQCAQCAQCHxIChRQ2stSOWN/09HS6e/eOyN186u7uTj07e6TV3GWShia4RuaeA4njJpIifRBHwuysnEHNzdoh1Mz0jEkfmt221jYTx4GB3amzU3NjpYllnq+X+nHK575EWG1eLOLItoG4kpW/HPL5xUU0xhBXaVwlQ/G2jNyLq8smljirgtjn+b5ZC7y0iEaapYbYZvIKiSUvE155cWb+MeS2rS3XzxpdNLmSw6iIaEPEG2xyXYlVt2Ge8NWrV13u8PBw6u/vV50VQekh4ZnESyNdqlSXNnY3RyBI7+bYxJlAIBAIBAKBQCAQCAQCgUDgg0LgebJauBVbCOS8THenRczGHo6lO3fumFxi7rtjx451OJV06w7qB6QNbeWC8pmbnU3j4+NpbOyhSPSUiR5LAeUlgCB4K17a5979+2nnjp1p164ek2tIdpM0p/WhyM3SQRDy4mRqVmVAzCGvkGbKJg4OpTA/3rVrl2VvaW7xcZxQ3X/wQM6onllby9xciGuH5uJ2q444p+qTyXJLa6e1ttSTOllzLaJMOYLJWEHOy2BBkRU5S5rasSK8DmAajQzIj6zUZd++wdTV1eWEm+Fa8ortxggE6d0YlzgaCAQCgUAgEAgEAoFAIBAIfJgIFBK2AcOamZlOozdupDu3b5scdnd3paGhYWt7Ib+e71uhVggf5G0tSN8pjeqUTHhv3ryZrl+/ni5fvpxmZmal1exLzJFFawzZZH7skyeP0yNtcQp17ty5dPLEyXT48GGbC6/lWe2pmEIab0jGixcvJrZjY2MmvhBdtMfNMpveu3dvOnPmbDp+7Jg1zo2djWleGuJbt26l//Xv/ytdunRZxHPSRBNCP7h7MB05ciSdOHlCc3TPymy524SWqlG/XMcMGGbYaJr9ERGuLVFUxcOsGmJMqEFTQQQxZ1mj+w/up9H/Mypi3p/+9f/613R4KGu6rVeuhzNnE98vQSBI70sAitOBQCAQCAQCgUAgEAgEAoHAB4MAJK4YJ4ucOWizJA0kxPTevXvpmsxvHz1+ZDPerq7u1NnVaaKGOXGeI4sX5ueInfKF6M1rSR9I7K1bN00s7969a3Pm1tZWmTB3eg7srt5dmQ2K+EKyZ6am07MnT2U6vKT083YM1d7RLg0s813xigwLpMxszowJMtrZFn1mtZzQlStX0rOnz+xUavfu3dKc7rMGOZsq47wKk2NpnzWneGJSmt77D1TPu16GCKLcrTqSH2bLEHscT1FWDhBeF1/Vee24YeScdLv+AwCzXdJU2HK6xnyT5err60tPnz5Nt27ekhz30/WRETvzGhzEzLvT2mQnqbIwESabqt2MvfXJZP6+BQP62pUK0vvakEWCQCAQCAQCgUAgEAgEAoFA4D1GQLwiUwt9w9NE0CC8t27fEoG8mi5eumhT4U8/+ywdO3ZUpsc7/DtrdiF0+YPWklDWwW0WWRyX2fD3332Xzp+/kK5dvyYC25m+/vpf0vHjxzx/FVJn8moJVtIDEdDeXb3p559/Tj/+9FN68GAsDeweSDt7dpogQ3yX5DyKgIkyWtLdmgOMBvrIkYPSlPamuxWB3bNnTzor7e6f/vyndHT4aOpSHJxOdXd3ev7ugsygqcPevXtEcpucx+DgnjQ8PJzYYla9U86piik3xFPWzLm+Kh+5IcTWeOsk848h1qw/7I9+w3lNWCuELThpq51O4YEmm3Q4tbov0+6fzv8kEvwk/eUvf5FZdoc0yKxrjIMtzSsmw4qAox0nkLaWYZXv+7OpAfhaVQrS+1pwReRAIBAIBAKBQCAQCAQCgUDg/UUAslsILwQQArusebbPnj2zg6XR0RHPdd0t4rlXJHKPyCBL8kD2ILmQN5YHKqQrEzycVc16niymzN9+920aHb3hvNG8njhxIp0+fcpaTAgbDpvIp7W1KbVrLu2UCDdk99nT/0o4usIsev/+A5pX2yotbKYz1nYqUbO0sWhl29vbTGb7+wf8m+N9vX3p0OFD6fSpU2loaFhSytuyNNiTE5OeW/zw4WM51JpLkGM+zPndJzPoAwcP2uSa+kFem7XkEfUyuVcubAnmn/ryXF4t41RzpFVpoH1c8cqggBOpptS1KH4xvd7RsiPtEfGekZYaE+lffvnFGu59+/er7BaTbzTjbh8SVy3GHjKQobcceM9ChtqIvVbNgvS+FlwRORAIBAKBQCAQCAQCgUAgEHjfEcikFc/EeCOeFRF8MPYgXbhwIT2VmfExaWWPHz+RIKxeg1bL6kBWIWGQrSaRPJNCa0EhYA0irE/TN998Y8L7/fc/WCP73/761/TF55+loaEhE164mwkvmSgsLGg+rBhcT8+u1K+5rd3SykKecaDF3NtemUGjdW1pkpmz0mTzZkilSDZm1A8fptt37kpL+kxr7i457i45omoSKYbwQmIhlldl/nxXZtsTIr/UoxDeARFm8m+V0yxMh4uTqhfWE/5NlwM5S/bMm10OpJh1gI8cGbLDLwYIGHS4IO34opZCOnv2jBxbDWaMFRcNL4hZmwx2FX6/Saz3LHGQ3vesQaM6gUAgEAgEAoFAIBAIBAKBwG9BANIIieIDybwtp1U3RLwePmQeb2M6KM3n8PBQZV6stWcxrzXpfJFv4Sl5TksS3b17L0F2L5z/WQ6ipk0sP5J29/Tp09ZcWsOrJYJcNuvx6J+puiwPxLzaLs0bhmBDUp88fpIePXooLe2CTIiJK9JoaTPhhTRSJl6Y0RCzZi5mzzjK6uvrt+MqNLrIcf/+vXRDc2efPXtqLSrenPdqzi9abNbYbdWSRkvStiKYuaTLEjDrAkhVrHXd8Vf9AfGtQrXDck54q0aTfuDAfs83vnHjppZ7Wk6Dewdt3s2SS2iTk9Y4RlPcLCwg/kXzXLKMrbAJEAKBQCAQCAQCgUAgEAgEAoFAIBDICMC6MNnV2rPLq/Ke/Cz98MMPdgbFHNX9MrE9LBNh5r0ydzVrPyFbMoWWZhjCxTq85EJ8nEM9kCfia9eupp9/+Tk9FFkdHh5OH398TuT5gOYDdyvu2hq01qhKcylDYpHQ7JAqa5Abva4upI5lfFg2qUHa2maVubQkb8kUaFaK+KvS9M7aa/OTJ0+k2W2UeXKfyexuOYOCAD97Nm6zYbTGk3JehUMuzKxxcsWyRMw1bpTWd8VkNxNrNMPUqVYORerDVy6aHQ78hqCM0FqDI2v/MocYr9Vg8J//+Z8i/dNp+Ohw2oX2WyS+TebftBfFwv8RT/C7/X6DFO9d0iC9712TRoUCgUAgEAgEAoFAIBAIBAKB34CACNeizIEX5xftSArvx2PSmh44cDAdPXrUc11xOIUpMp6TWaO2oUEmtjAukU9IKKGxpVGaYs3BlSny1avXbJIMmRseHtZyQWe83i2mxovS8JIHGmPRZ6VUJtpA9NiShg8Bkj0vIs2nOMjiDOlJ5yT6QpOLE6iHMnEmXxxf4RUZDep9mTJjzgyZZ1kizJnR7B5U/Qb3DIpsS3vNHGXnSPnaUZ6Q/GxGrd/IyHfeaC/LneX3qRe/nM+Lhzc6Qn3R6kLQDxw4YPNm9ie11NPIyKjNrr0Ek0ivBwWUCXUvYU2ucmTzbX26zWO922eC9L7b7RfSBwKBQCAQCAQCgUAgEAgEAm8UAbgZ5sFoZW9qaaG7mheLBvbEieMmq12dXZ7rayIKKRURheaiCbWmFpfGCpyfnJyyA6zLLBukeal79+5Lp+RI6uTJUyJ0ndIEL5q8osGFaELgINIlH+YU48wJM2m8GS/IpBnvxZDchcXltCiCbS4pOTIJlqZUchCX5ZXw/gwB7OrqSsg9JQ0xZPfS5UvppsyFmZf85ZdfpY9Mwvtkztxq9gi5bWnOFBbNqetXscNCKMvWArjGL/+qpdksqiKgXfYav6ozPLazs8OerVkneHR01HiSfO+evXbOVeYyQ7yNHIDweZVA+ynu+058g/S+ysUQcQKBQCAQCAQCgUAgEAgEAoH3AAFzIb5EdiBUBH5CUMsHAjQjDe3IyIhJFlrV/v7+tF9zS/fKmzGeg0ljM9ySFroFe1KAuEJK8Yw8MTEhDe9tza+9zxmvlYuJ9OCgHDHpCGmIb9NhtKsiv8sNy0pPTpnIogme03JCaI2XtI9nZpsf27ya9Ohkc17OVCv2QHoxbWa9W7wmI4+9Ia8su15oryHzYEDZLBUE4cWk2TI5x1wX8GjMVctHte+f1Lf+uM6iJcb5FaS1TXKiyTaR17lavs+lqYp6cQMukof5zszvHRoasnnzFa2T3DTSJOdiYyLtg9YG4/WZwQACawA/XwT13DAQUeVUTeco+vnehSC9712TRoUCgUAgEAgEAoFAIBAIBAKBTRAQyUEbyD9kECIK40FbizaVnyyLw5xZvAVfu3bdDp1YOxYvypjYQsIgigSInPMjq4pAQfwWtXburLTFeE4eEzmb0Tzc3t5ezZndK1LYLY/ILSozpyddo2Rp0dxbwsqqNL5imc5S+c/Pz0me6TQh016WT8JMedBzc7NpbxXRxE16UhNOSC8kd1pzYDFpZt7ujZs35BW53ccXpWGGkGP+DPkdOzJmMs8ySFkGzLSzubQPGKe8l7+pbF2QsOiFIeMspwQYDA6AJRps6lhSlG1d6rVdMc5sQq3cTEZzbOYcHzt2zJrqy5evypHXIzsYYzCCAYSuRrTviis5MMMuAwHOGCC3Cma8VSRt+Pm+Ed8gvVtdAHEuEAgEAoFAIBAIBAKBQCAQeJ8QEKmp50CrYp5oQTENtlmtzInxdgypwpQWbem5c2fT0NCQNZisd+v1ZitWBNFbaazUssKJwxDixcWsWYVYTkyMm1BjSjwozWRe11caVcWFNBOQqdp1Hg1euDZri8fHx7WO7jOtVTtnTSrr55IXc1odWQkLUUMrjKMr0lizK40r5UHWIb9d3d2eI8vc2Nuaazwpcg8ZPiCnWpDybmlpEQZ5BIuZKuTzBd0pEfLpvONvEXeV0aolnHIOdae86+GB5w/W/YboUqVMePlh03G1DXX13GNp2plPDR635HW6TzKjWca7tTW9lh1T8YwrmYOl4awr6fndWv2IWNXt+Tjv8u8gve9y64XsgUAgEAgEAoFAIBAIBAKBwGsgAKmClEI2IUl5fqxVrj6OAygILybJj7REEaTr0MFDaXj4qMlVPeF1seRnl0/6VfElykAjOz09ZcdL5EmZkEo8DqMBtdoTjSKZQO4kz6IIN4G4zkPzdSGuaIqRCWLOMkJoNvMawe3WiuLlmPSkY47wfc3jvXf3bpqdmTVJZhmigwcPenkknEJBxPHQjOdmHHRdlzYbIj08POy8pWutBLM4zrtQyCyvTtdYZDmjuKX+ZScnf8VvEd2cRY6vH7j1WlWdCM0Qds1Lpi67Bwdkfj5tst7V3ZWOHhuW9n3QbQn5RyK2taBFgNfkrR1d23Gl1n6+j3tBet/HVo06BQKBQCAQCAQCgUAgEAgEAhsgALXCqhlOtCRmtGJNb9bUYmIMQb17944JIXNo0XwO7B6QhhbNaofn3GY+VceqNiBNkFDWt10S+WW/ScsPoaEsc3FNyqp0nOeDxpkA4c3pl9LkxKQ1zg9ETiF9kFbmFUOgTZ5JoGRkBeldlFkzSySxLjCemdHw4gDq5MmTWmrpsJdcmp+bV74TNrXGudbYwzF7lmZ/XnOHyRcT7hzq6umiMjl9Xmebj1ZJNsCjOrPJpkrtdDnx2q7OqV6QNsyed2gJo31yBvb0ydP0+PFjyX0zPZMJ+b5988QQBkrpxEXunN/z8hZB1sldDr6H2zx08B5WLKoUCAQCgUAgEAgEAoFAIBAIBAKvhwBE146n7t+zEyXWg2Wt2A55EGbdXAhpplFb54tGGFPoluZWm/w2N7UobaYekFtIrfNSZjaxZm1ekbtGzUc14ZXWF0dYT54+qa2nu2/f/nT2zFkTV0x6mTvsgEwqz5peeXeGIN+VphcTZ0ybP/nkk/TFF19Im9tv02McTEHm9wzu0Xq3PZp7PGtNMk6v8O7suc1bV2/d2VKPsl138qU/6gnvBpFVN8huxqbRHqgh/mi6kRut9n3Vl3WHwbFFptXEj7AegdD0rscjfgUCgUAg8NYQKGOuFBCvo7cG83uRcf21slWFfu119Lbz30rmOBcIBAJ/LAJo/FaY46kHAXNH8ZZs62QO6H9GJsGY/TKXF4/B+w/utykwGlO0iMz7fVkgSlNjszW73ZpDi4YXTS9aVPLHszGEdm5u1ibQEDbejBBstLmUhQOq27dvy5HWNRHSxybOp7XU0bmPz2XyKk/LxdETWwdtcGAFeX2mOa9omjH/xbQZoggBJi5kGTNpNL8Pxh6YHFNfysOzNJpeZPg9giXXV1WDF4os54mBxrdTyy4dPHTQxJ6ll9BO35EjLgYEqB+fFSVi4CDCGgJBetewiL1AIBAIBN4OAuVlXHUoNn2zvZ3SI9d3FYGX9Vc26yG9an3fdv6vKkfECwQCgd8VAV5FZWkbtIeQwJWVxrRiU+RlO4G6Ly3vlNIeEAgAAEAASURBVLwlnzp9Kp06ecrekltamhRHhDktW+tYI5rPSW+uJU0uxLJH80/7pV2FYDZpzdxnz56KTD8W4V2wlvLmzZvp+vXr6fLly87zjLS4w0eHvf7sI5nu/v3vf0/ff/+9CHSj1gg+kf7l639JH3/8seYW70zLWnoIAl/qYHlUNxxZMQ8Y8gsB3Lmjx0QaIitFqOsO0e/Z2ZOOK8/HIrsjI6MyEX6arly+IrPpPteXOb/bKdCVYI5vV3dnOnzocHo49jAxoMBcZ3DcrTnJzEvu7pYjrggvIBCk9wVI4kAgEAgEAr8dAfMJvvSSep6b8OIqc2h4YZfB2MKNGWl3+i3EKHmudTryXCjyWju2PoP6PEv6F4Rbn+Rlp5+L/WZ/1tfDsldfa/t15RlT/S4g1ipb26mLvH12kc6j8ewU2WvibS4710+JTpv7GnLjZzM4n+S4r6+ST7nqcgH5aDlXK7TaUVzS1y6U9ed9mC/Fqc3BkwaoOuQ6FS2DtUjVCUpz2pzUYpZ6kJfrwo7jKWZdZOrywnEf2eArR61SkDH/1UFFR1JMIQlr+Pun47LH9VdkI2Wpj69LHWAeJMdca0VEA1a7ZnV8rS6Us1a2zQ7JeO0Qxb1m+E2JX7Os3z96qZ1bKDdTxrOcqEQCxuq0j3A6/y5Hn0vw+1dle5YoWOqR4bptamrQcjeLJrxPZU78UA6sMJ3t19JAzJ+FPIIuRJPE+f4oOK+vZn7ucD80eXkgvAsfPHDQ808nZG78UPNnmTOMtheyefv2HTu7Yg7tfRFjTHSfiohionz50mWfGx4eTmfOnEnHjx+3SXK5n7kHl7XMEo6slmwOjdfph3Z8hbMq8mSJIu7TZTvJkpZXYrOEUJuOYyLMkj8Q52eS7dr1a6lPjraGho6IqPdY45tNuvPggLLRPwB6x5hsjMJ6TN7UL675NpH3ll4NJkhOSC9LLo1JW33v/n232YZl0eBFUMTXHz/tlKxKQJTVyl312vMxn/TzTwmy2TRtu3acZ10t6DhYE0jjdNrP1wtHq4TsbhFK/ltEee1TQXpfG7JIEAgEAoHAKyBQvVR4MdY/vNlvcuc454GJ2ZK8UxKa9BLmdbCskXTeqVsGRfT8JW3pu/OeIh/MzlifzxmVPMhUIb+YOFgd0Ga7enPkBelqSEbkXvfxXDBXqfZFjfzyrqpW6u/Xeq54Le522aGOdAhW5D2VLZ2ufLE813AbCMz6lY6vc2hs6Kjg1dS4SRvjaXPgpkuL41xPuRNDo5MhX6Ucfj8fcpcI4rthUHKuY/LOnWBddw15GRPLIplwXoM8LN9BJ6hmEunyc5uSdyGLaJByJynfD1RifefpxeMbyqaDSJ//S57ZSy0HyZMOb5M65MiX8Vfe2icgA3HoLHOeT2knzmOiSf7M+TO2HCOuTDnpEJINkHOOdAVr9u1ghvUzmdaIiJvhq9NbBxXy6xNvnfV2OVtBB2bG3/d9PWC5vbz+qWTOnXXtVG1gfNWO7z1Ov6a9BIuXsBFIXKdcs6yPu7QEYRxL9+7dt9aTAa22tnabJnMdc81DVAmNWkd360tQ95Hypf0wkf7ozOk0K1NmzHGZg/rdd9+bbI7LrLm1rdXzbbmPILo//fSTnVflpY4m0gGtefvnv/w5nT512ppM7j/uS5qXgJk083An5PBqYnwiXb1y1dpjPD53yRSYawRT6Uk5tcJ0urGx3UsskQXa3xZppKkbZsJoTHGQxXq4EMq+vv7UrTTNLbq/0Yrrb1UJc9HVtpIjS/P2v6k7/YU24cZ6xzxjx1VvNOjUAznzYGS5X4yY7gXfHtrwPJS2Xvm0CHPaSE3tZyEet2nXxur5pyvE9xb3F3it6jhad/9QPlw/np+tfdAoz0xQ4BzlcP82aW63+zjKo6C3KVKUU8m6aZxfcSJI768ALZIEAoFAIPBSBHgJ6qFNyB3fat8vm9zJyG8Qx9BX7tjlF0lJWmWQk67/5pQ+3vhNpNeY3hL+6KhfKsigUDrtvOjym8RHFYf05PBieOlL6cUkb/xIJX4tX6rp16W3ldzar49HfdwZKqk2rl45+4dvkZ16LaqjMj8z7+ZhfUfMAnHmUkbbnxd0tVLB5vT6hp1qg4ZkaWkNAzoO5fqrvyZo+XVNT0YvhM2uDorS9eq/XCblNPr64zpWRspP/agsU62sKr9K9ixAFb/Ki3ROVG3WSeALoCq1KoNoGwZXj0jKjTwtlNJq68ERn6HDlo/VZ5fx0jnkVMfeNXU8SDfyVjI4j/wFoc+dv2VrkyD8S4vZBLRV8wLpzGcZsjx0NtWVzNWty+dVd10dp851fNV070q82mXgnQwd+Lr93KC5Q01nHQ2ln3FuZ+IWTKrExK8de1cQeLtyGpkKFmNaFYc58OPHT6yRndc+68JCEln/1dpOxcvwV9hyb28aSpzkPCCReIWGWOJxmOWE8D7MoBlrz+6UUynuI87dvHFTy/HMpFbN2T148IBNkE+fPu05uRQHyc3PyLzs0uzsnDSdD02YIbqjN0ZdFmQwa6iTTIEh8/ecB0R3RZNeqS9r9c5Io838XQgy1xLHRrU+Mb8he5C8rqYuD3jxDCj4rdtuisPbOYFDMOrRoznQzJdmXeKnwhbtPMSXeqx7F7qt1trEtdBPWpAnGvXKQVuWN/LP6vmoduH+I79GDbj6GShcCPl+0zF+k5SETptz82Cn77+cjqJWnX+FY462/ptnb10e60/++l9Ben89dpEyEAgEAoFNEeB5TeeaZ72f9/zWQTrZzGXyi1QjtZnYqGOtc2h4G6xayy+D3CXOL5bnCyJPRlAphxfyWhkc4X2hPw/GaqtDaPxWpX3jBeTcczTH3Y5f1NrvVO3kEeusWbSGzLVWBfJ/rp/qtU5jrkrn9Bvjtx3q7M6C6kBncnZuxh02OitoGdAw0AlDe7pRMD6qIJ1+PnSAVpazJmZOS3HQQYFYMVrvEXY8ruo6cbMrsTst9V2dGhFdK43rZrPAdbQqhQ9tk72x5g4N5RKQqaW5xfvLiuM2fCFDFVDXvkTOnapcMNd07lDl47kDl/NSadlKYQsZwUhiyHssnmArsqotGhvyQtYsl+IxU47IVaDcfD7XpxynCpwjfYvyQUZjobyWNI9wYWHenU/agI45pMHeYtX5tnZI6XN7qU7Ur2Qc2xcQKO2RrRWyZgq8ITsAvyRTXF9nLdwD+T7hGWpNpOKh3SvWEGowp3mhkA/+ANc8wzrcyynNzS/KAdQzkz5w5jmEh2SIb3u7NKKtwnkxP1vz/bgZgH7L+AKnPXiWHTp0qNYeOKZCm4wZcouIW2dHp7S/Ms0VKebc1OSUHUwdP34sffTR6bR3377ULvNqSDP5MYgE0UNG1hBGy3vnzm2vtYup9OPHj7yWLfITlzgjIrGUxTxd5hdj4TElcjsyMmJTaObxQpKpK3nfGL3h9zRaaLxWd3S161kiDbGeZ4Q/+j3Kc6hFgwJ9Mj/HDJvBBLTcE5B4zWfm2eN7ZYMmou2aZRFEHnmdZp6x9EPycZJwb3F+Ve8VP291qXAbUXOeeSuYiut3KWNVLwTOMwhV7rvsTCv3T4qWnGkh1dXh8sjx9wobv01/r9KjnEAgEAgE3msEeEPwuoBo5pcKHWG8VE7LQQijzCybwJwijyhXWPDi8MtF79b8et0EJM7rgysPByWiHEIuM//yWfLUS0zvI4USi/1tGnjZ6o2J7NQx10iSi7SADYeME6f0CywnJqbcIenoaPcIOGQP4rdtg0SD5OK9FO0EZnV0MpivRaeL/VzTF2vAGTqp8/ML6uBMKY95axjRGJMnHUPS04lhYAVMdqijx9w2OoEcz/mrBO1npOvLeTluuV3In7xyfnhlxWMq62S2tmSSvSize4gv8SmbTmSnOrA2GVSnlXl4xaProkgjmh86pMzRo6PUrg5zh/CgM0qnFEzI66VNC0iqBtf98uKKNSDIN7+QO8508siHTix5sbQKHcVumQuiYaJz5gtN2SDfxOS48c6ZKqESuz6tbb7euJfpQBIXz7GP5VyGY+DT399o2Yu2rCBN+ZuFl9Zvs4TvyXGISn5U5cEcOvKQHq7vBa57aQIZ8Ovp2WETzy4RHJbEwfiW55//BTDXugPbrQB/T3B7nWqAjGHRdkn3ARpTnCKxzA9axF1yQgVBLPce5qluFt8zTr1BcVzUbgGfIxb3LfnhPZnBpEwsu3yfcI9DRLGI8P2p+4dnAGSbd+MezScm/hNphXnO8/zgfYkGl7TL1X2IGTZLEPX29fr5yb3H/Ul5TPmBeBOHYzlo0FD75MOcZQjyispt1f3MsxGNKceQm3IYRSUvv2Wra4q6/ZEBWZmPjPn4tWuLbjeccU1q0KBJz9ZCSJ+XMb8X8jObOvPcWpF1Cu+TqekpD8z7HaF2XGbalOrtwQuV16OyeE5y3gPuisOAH6bl8/NzKorncx5QBEduOeTEaRjm2LVQYVj7/TvsBOn9HUCOIgKBQOADRYCnPYFN9Xak04aJ1a1bt7xleQbmKrEEQe5CQOrKq1QJqyycT/2XouAgKBeRI9lhkIvLLxrO5ZdO6dQzkssxvex4gVfnS7ZF3Frx5cQftDUpkzCZVGVNOMdMZBFS/x5x1ksbwnvz5i1r1+gE0ImiwwKB3JaB9hMZgvAi9+iNG2nk+og6d53uGNJJW7sOXqwB7besjgWj+9euXbUjEzos4EPnji3XGp1EOit0XvF8Wjp3dEKNr7LOnbgXy9jqSElDX1BU1gR1Wea8dJh/+OF7k/hWlVHmW9KpwqMqHdGB/gHVcX86enTYZAUZi0njmByyTGve3RwdX5FhOqR0fPcr/pEjQ+7cqWqvFYg/J2weaskTliO5IdNHCBTXBwMC7qgpDh1i8PlIznJ27x5IjfJmyzVGOzAX8KefzlsbT+GYL0O86Pxhmkln/siRw+4gM9iC5unnX35xWmvYlQeapOZmLSWC/BIKTr3V/Y3cXOYfYmAggusW/PEYjFaX5WSY78kAEYMKk+pko7XfM7g7HRb2p06esNZrVSbp6qNnaKuLpXYvAWh17EPEdV2dfXHpIvP7QCRFmrppXbcPpHEFXwabcGLFszRrVfVM0p8J4GYXLtkpDs8WiA/PuGbNFaaoRU27KBpfHEUdP37CRAlTYvLsE1nl3cj9jrY5z8Od8VI8yM2au7TjIS3Vg2wQ8FZpnpeWGm0dc/bcWc/DtTZY74S1Zyg3HEEDaHr+2Iu07nuuLbSkX2rt3rO65yHayEw8SB6DK8V8mOcQ9VpYWDSBh+xth+sIEjmgZxXPd4gn7cbSTrwXGChgkHOzkJ8vtE8eGIDko32/cuWK10WmTcCbtuReZMCeZxhm5vv37/PAA4MGvItowxvSpPP85tk3z+CUnpGADIaDuwfTCd2ftC3vHvoqfodsJtxbOh6k9y0BG9kGAoHAh40AL5QaqdDLlcBvRrJZT++XXy6ma1ev+iUwNDys0doBvchbPTpbr2HKKV/8RhNmjZ5f1BAodQAKyVAnhq4HRIPAi4uXOKSjvNTp7Nu0mt7INgjulpS+iUSifgsyA2cJDXWfXL9mmcsis7pnrhN15mVMJwfHKD/K+QmdNtZjZO3FI4ePbCvSW6uj6oepOe1BRx5zPkzy6FRkbYTMCCsT3M2aZkZOWZjDxlqaoyMjaXxi3KP6dM7QYNLZhCjQGYFQ3n9w30SPztDQ0JA7e2gC3HkTvu4BblbYRsdVhzz4kE+WDgym+5Rx69btNKM5ZvNobtVGdHTQ3OAUBqcxvfI8inxcl/m+mEk3NRB0XZ5Tn2hOIdc2nTYGMFo0xxntzcoK89TW7is6ofq5aciXNtc+prDLHgBAg4VskKf6QKd+98Bud+4XINxqH9Jz73CdIQ9tNTIqrGWpsSjZIckDkg/ii5zUBcJLG2LaTb3RmtzQgAZa5Obm1ooUVwMaPCQ2C9zDW1Vus3TvyXHuefDkWYhjHRz0XNd9AvGZnp5xpxyCBMYQFxwk7du3V9fYTj9jMXPmmvM1ro65mtBtaXjyRfRWkHq+Rf+oJqyXo14GH+erury4voGD9wX3CO+noundoWVvdkJ4ZXpcpiroVnIgHY8N2mldIN8qf8h0Cb7U9YXmMTtfkhZ3YNCa5Qk9u2hH7kEGwCClkDebO4uIca+SDlLG1A8Ik7W4Imvcm81yxcxgEs8LKlNK5fohWFZteacwSJrPS0jFpW5dXd01DFwjyU08LA3IjUEr9nk+s9Wj1R/O6uHlMv6IL+qF/4ddaiOerZB2CCeet3nODQ4ObioWz1w+NCNTqnjP8kxjMPCRTMOZU42ZNFYrYMK9BL6koR1or9L2PF95l2GaPvZgzA7EeB9BdklDm5W2dZuU62NT6d7eiSC9bw/byDkQCAQ+YAR4OfAS4gWLt1deULwccDZx+84trUl4KV28eMkdtVu3bqb96rAxYktcRmyVXB1lpeMNu0HgBYVnS15KJrx6wViz2djmNAxY01En8MLipcTLkE4Fv9vbs3kpc5y2RVB9y0sUE2YIL+SJlzAvWIgExKJdRIMRZPCkI7SokXde8Nevj6T//R//20thsKTF55995tFvzL7+8EDPgtpVPUbqRweKTsWd23kAhI7ERx+dSSdPHldnECLVquuHjsnG0jOaz/qVIyMjaudFd3oOad3GPXsGrZmBNKP5hRiAz10NtFy/dt0DAn/729+kIRMJlaazSbj+6uAOk2qW+5ZuEwggmlzKHRVBhJTTEWPtyK+++koj/rtNUnIHSmbHIidc53SGnoicYwHxQAMYkPd+pdmtjhvtjpObDmlpmqXdWZRGStHVW+OiWbs/DHOpDLJJYwPu3Hf8QrassWquXTPcP8y5HRoa0iDJYXXydxJV7bNgTRH3I7/RhmAizr3JIAX3NhoPOnRlDrYjqqQuCLS0j8PDw9Ys35Imf35uYZ31gfO1VPqK8AICJhtq0KWFJXvdHR29mf7xzTf2KMx1znOAKSIPHz2saQA//fQzYdxnssQzg3aB0ND5ZukcQiFA2tGlscnN9YI0r3mgZKsi/tCQL3sqncWgvv7nSwjrcPkQAeLD4AFaVu5ZBhMwI+Y5S1Ic5JFBDcOc63PfZMq//pooR4RI5rE5ZDm453k/QkLzAFiv5WBAk3uUZz2Ddazby/Ode3LPnr1paGhIg5mHfG8hG5pcnhs8E6Cyi7I04VmEhpjjaGUpp0X3LsSVYxDmJlkOUAfO6V9B72rJyDuVfQauynnOIrWnBilfa649Z1UxZYjg5ET6nQPtxkBOq57zPEt5XhIwT8eLM/iV9/9GohX8GVRiIJz3ETXFdBwCTaV5fvMsJg4EmrWRsUzjGUofgkhgykAA1wiDFWDPwOCjh4/sgIznNm3F8x8tu3FFIIAD2N85BOn9nQGP4gKBQODDQYAXi9/mqjL7vISmpfm5LxMizCzv379nwvpAo6NokXbs3OEOGi8SAmZ6dB5eDA3qRM9rVPVBmpLGD1MvHFnQKddr0C+U/EKn/Jwabejdu/dMuj36KnMoXlx8MrHOnYBSlroDOR8dKDLk+ojEm4hXnQad9/EqIcXRMSBQfY+Y556FoKA+ZKsTCmW+Lb/8qeIVLeW45obiSRRCyIuYpRmo46rnGOVBAWekLzCDwBCXD+axdKrIN5e5Xs4CjCXVl7fIoQTIx29w4a/I5nryg0Aa9TxKunwwf1PnHHSeeNUvH9U5/vAWynqUXAdoYunsQVgPHDjgTgyme45Z5QVhRhODmS0mZJcvXZK1wC8a+Bh3mn379tvsj84JOKEV53qjM8LgCMT3qiwL2M9mwr3ucGZCUCSsBH2NjfGqZERmri3qMKZ1OM+fP+/OF9ce8+gwHT58hLUvpUFSB4lrj0EYZOL6Jx5zaTEXxvwR82cIDqZ7mFjSQXYDuUUkpAAtnNctAcC1quS24VDp7NIxhAix/AmkfGbmgvHrUae6Q4NAg4N7ZCo7aJNA2rbkRbtz7TIvjTzadQ2iuT108JCwPOJ6IR9Yk46BpF3SZA8PD7t+WHZwPR49etTlE7ddDnEsYU3e50HPlamgff7k2j1HtPqwaX71kdb2N4tesuW8saiSgEW5vst9ngcVqvtZCZC5dq/od206wlqxjuSxCDeiflZbMGcQjy33H51xtH53ZAnBoA3X9MlTpzxQMTE54bZAE8yAH2QqWxnc8r1PG6GNx1LA9yp5SoZa3WjjWpAEyM3vEqF2TjtV1FqKWtqcqFZn0igSbZsfgznFRlk6++dPOK3P5NP1eKvM+rYgAjgXuavHbk6MWJxQqKVBZsfXcQ0Y+XmsY+U5zEAO1ylauhlp07EcwoGTSaTTeaTJz/da9XNptW/XNleZkg2lB/so0s3KsTqZ9cxotQVPnqpDO+6T0yrMYO/o2cjzjvsJGTi2V885nh1tuheZ85+rCNpUuOCR888n836DIhILucGDOhdNLdez31P5gmS2xlogPr9II5LNpUnI5VKTrUMNiq2j/eqzWDJAQvnwjGWwZ1Zz3Znvns2LN8gaoQ0X2KwNCvI85j0L/kwh4D5k0JkBQAYeeTYelGk5z0viEtxXUV7E5R1GX4R9NPF79+5LR4Y0UCEHZryXOqRVz9ZlTvqHfAXp/UNgj0IDgUDgQ0CgdDbY8jLCsysjsI+knYDo0OHnQ6fusTr9A3qpo4HlhVTS5pdrRkvZKPDqZkQ3m4M+e/ZUHexeRxgY0Oi3OgdodVnzlJcP+fBBwzyqOTeQC0ZdkQenHzgUonNI3pRVK0/7NrNWzuSDTKRht1Hx2S7JqyMvPXe82CouhJgReORcEunETJROKcEvShVEGspTRvpaK5h8OE7epIGoYeJmmfXSPXL4oOq3i6xyUGQ6tJCIQzr36aefCNcD9hKKeTPePp0nvUHqU8laMHHZOoXm1aAqV7oxxCNJs+RDHvpCqro70jVM0BhYC6gIFWjkS3pGvtE45MEE2sDFVzLQ0Vgx0bt2/Xq6pY4dnZV+kTw6FphnNqhctLyQCpsqKz0aDxwwjcqj6L//+79b28hcVAjm119/7flx3d3M4eoQJrza8zUH5mhraBPP1VL7j4xcd3nFLA7xkfG1gvGkI5mDO84qgw7p0WPD0mJPpG+//dYkj87QGc2ZQ1Nw6uQp1U+dIrVbpzrUXL9odDABBofTH51Ow8PDJpLI1ykSTR0g5/Sa5ysriFxqvheyECCfgc51yb/ztakzKhPCCvGGWC+pQdGSj421an7a/nR46HA6dvyo54aiaUKWfL2sXTfMH0WD++UXX8qZyy5ZE3zuTiDz5iDEyOl7RXKAOYR4StrI7777TkuzPBHRviutR681WZAxxC34PY+94F27rtit/fQZ/85fRKzyIb8yCpAPb/29WeElFUXpXhQUDlwnup3ltTXfv0VbjZaM0FBp0LxeuO8B7meRBR3nni6BfMia+wSMuX9MPLQPfhlH3Usa9IP0Ym6LeT4O0vB9QAeaAYShoaE0p2cqmdG2XP901q/rvqLcfmnwGTzhXrZHWW0pF3JM1TmmaL598XMAeee+5cpBRgLx3E4FVx3wYJhP5JNlfWlIIwVA0Lh3eRZC9Hh+lDpznjIJLoP9qiyXo9/IW+Qy3guYkuq4ccwyE5f0wFfwB2TuCF/zSpGnsuTfyFPKKxYnyGBZ3Db5ucc8dZwgofHFMzC4+rmmuiFDlt17JN86EE0B7WpZoobfXKP5eqDgTLqQlXJ4fpw7e9bXBgMcDIgdPHjQ/gg++eQTT1vhHck7zvea0iypPR2036g2RUjq62cG5dEOAEYNdA4ccH5VH4iP9QuBfUV0XRWdXQc/z3VACmXVifdedSKffvH7JadfTPDqR5CeKoABbcR9wXML2blnmKLBoO+LgatbgumftL4/9dyGPHNd9Pdnr9i867FQ4Xqg70AbMGf69OlTKk9es9UHYNAhvytLPo12lnj82DG1Q1P6y5//nIZ1n0LIeQfQHmVgsGD6onxv90iQ3reLb+QeCAQCHyoCfqnktx6dEEytMDviJV40cGjFIKmY6OFAAq1WX18mq3QUeDHwiuLtxsuJD70yNH42jZXpKKQBc6xFEVk6kcQtnR6ITnmx4TAJ7dZDaQnp0GNytKxOBfkT32/40lYUqT+/8KtjvATRxNFZaWqkIyQHFpyzeMSmaDqvmSQgfB6J58Wb5Xc5VTxtHFwl8uCvqif1ZoAAWT2HT6Z2OKRixJmC3NlRatLaJE6atz3S0n388bnKLK/fHWPMqdypVs+dvEv5xlHp8VpJR5ctpA3tKOfcGXfHp4KFylGwymND52C1kXrllz3wEdjkcthXOyovZPQZxyFx7lzSkcD0lzrSKWAgokcdPkbKwY2Oee6UI3eyieetm7fThQsX0j//+U9rtOiAnDx50h3Cw5q/TFF0zHKnjc59NjujwwGO3TL1hHwxkHBPWv+TJ05aNCR83UD9amrWWmLVWdczhI4OTh4kaVRb7PZABBoEiD2m6xD2h9IGMxf7gQgNgz97ZeJPnFOqE6bNpZ3qsnd7cbz+nCF27Wsxqx2DnttCuECmGFQAj/uykmB9Swah6CxiLss5m/YpdblWuNe47tB4sIwKnb2TJ0+ZKB89djT1VQNOz5cMYUAbxdxl2pdyHow9cP0hbb68suDPJ82/fanoy42qL/+mo801mRPmNqii65CtvYm4ZRB2nOerdNpJ+3wal6cvHikSlscRZRsXRea+mp/X4JoOLsvslXvS16vaH/GQ0fLxrTgQBI5zv3FdlA/nsgUIZKTEpZ753kIwOvFYcWCuD5ZoA3GkI5W97zHK5vmGVQhWNDznPA1Czzeer5DPfE9U9VE5azVGWMrNspn46oc1f5IdtDC/t6U8GCk6AVkhuZBk4jjLKlt+88/P/MVOzgLnc7wLKKc8m11/ZCQngVTwczY8a0isAijDRRBBewWv6iixXK4HoJRu0QlyOT6FTM8LRSEK5MV7iWsdwsR1zyAP9zFykow4vyqoCGNSEvO7Ir5ZxFw3FeNBuwOyoAAfBqa472whonfjsCw/GGzK77mSZ75uyLrcFy5GGDUyKLkulLrmg/wqNSIt1+9aQEj/1w6V/N32vp5L6lqU2s66+taOvsEdFc21xBWaByekZdVzjecTz1JbOun63DhkufO1VldnwcW0GO4xrF4Y4Nt1F98L2aEXAxIMMPPO9bW3yD2gj+y8sa7iXcZ2vwZi6V+c0HOcAcWNgvGpK3qjOG/jWJDet4Fq5BkIBAIfPAJF8+WXg94xmLNijoz2slsOQg4cOOgONi8ezFxv3BhNn3zysV68haiqB1B1bBixpdOGZgUiwyg8ZBfygqMcRmEhvryAamvVuhNKRzR3Huk44gwGrSnaQRMyOjO8PNWBtYYovwv9IkUud8okhbJVvnKKNDXpduV4GxpphapL5n3SQAjnNQ+vdGYgYTjb4Byy05lxV6Mi9c5DkYlfv58dft0RObvrlzmaOuaGoT2ujRbrhQ++vEB5GZ89e84vaEgMhIORe5bwYQDB7aGXLLLjTZSOEx27Oc21nFPbcBzCg+aYPFUx/i0XcnOoYLm8mjXXqpI7qCUeKUo9SjnIlufmEosEOU+WGKKTwDIPezVfDe+WHR3Mx9Z51bPko36fZF0WMXzoOY3/+Mc/RJZvmzx9+eWX6es/fS2zP3kaVjrklAJC++q9SDgwd5soM64d5sa1P+rwNYizEohEffu5AV75i5rlQB4mC8IU8jGugR2uTV+fIntoITBRZlCBaw0tDXW/ePGitXjkwlzf4yeOee4e8zBzxwrGVRXCxnjnOvEj1897PlcXc91uwYGtHXfpuuCabNJ1APmalLysb8mgDrKVfMkUcofjJLSNeNmmzc/pOjsqbQaDVpsHiBOdyFYTeOZIPtY8bLS9Zz466WvQmNXXry4zMC2aOuSh7h5sUVs2Mj+17reTKR+y0uGtg/LK8aqY2vjefy4h9wCkjla2pkydfNqOxNwHC7LEmNK1mwfwhKfuOQY8WpQ/zyrut2XKUj65nlhPoJXLg2eQK+4/7hMIKvd0k9baVRRfx9SVaxarBXCmI17uv3xvqf30rGSudYvacX5enW5peW/r3sDEmU43gxxo4YlDrRlI4l5EHpejJdFw4iMRrRWjLrQ3+BAHaxPKamqS5l+ylUCdmNtd7p+WFj1rVAb1L9cacbMGMj+fKK9BpIoyGPzkOsN8mOsDooGmLZeFlhj6K6glCLKApz3uI6fkIlgG4QdOPBshzkSmHIlRxcnPEeJyZWTZciTydyHalPsX2exPQke4T3BeRbsgD4FsnE775JXz9anX/1JG9dcdeVM32pzpGUPDw3ZexzUCmcMqhOeC71/LU9UHuSwVdXydQK2pzeume50y3l5cW0boXsLKgMFtBie4R3h/mfTqncaz7dcG7jUGL2kP+i70W7huGazF+ZevV91/WD4xiIPl2oWfL3iePRYuQ0NDL3k+/lrJflu6tbv4t+UTqQOBQCAQCASeQ0CvZb9S0SQyR+quyC0vDjQ9vKR4UUBC+TC3k/mZkFNIG50KOmD+MKKr99f8PEtKyPnR3ft23EQHD/Mj1i8kD8yc6LhAMsi/QenpyJPvqEybKYM1giHJzyQH5VMO5RGfDx1JAi+zxflFp5+emhHhnbKWmnPsY75JZ8Rp5fwCEskoLy9FOvjIQYcJbWu3luGhQziv/Hgh85Kkk4jGBpnp+NGxohPFOTqtN+Q98uqVq6rrXc/xHFS+T1VPtHFFXjQwED1eysxhwluwO61Vx5Aym6QxcrdO/Rt1Jy3X7MycRsLnpEXgo7TSJoAD3krpOFCvdhFQHKCom6965XgQOtond8hz3cDLHWTV1xoc4Ua9mXvM+qGQ70xW6CiCq+pozeG02oB1X+e8LixzTd1mAKwAFtSF8nDYc1Na3h9/+NHzGsHrkOZJndQSEENaqoXyCORPQB72q5/OC3xpC+SFxEG2yTv3+ej4ldjO4hW+6DSuBZetLMgTbTKklo4SsqDdRZNNEU81WAM5QcuNdQPXCZqcA7omuS537eo1MVpnmqd03Ev+V0G0FRXUt0I+viZJPuZzOYJJg9SViiqJ6TDrOJjRqQdnzDmRlXsJzMnfxEPxuKaLrJxDc4sGBHN02lIZrC963a9VtWmLl31hzV4woe54OfV1KiK5VWrXsaoD2bqvj4bJJGjjlBsfrRPK8pJpian9ujJquz6cz5GkXIvcvxBWcGHJIAaVIJdcV2DG/cycP661GjxKTzwGlxiwm9X9Nq98aHvSZVKT12HGTBySB/VcYW1l3Z9Yx9BGlA3RzB3wbOoMvhqPs8dvpgtcvXrV1xVtg6kz7dQpp3BtflZ1qt7yh6A8kCPPV8SBD/4BNP9XMjNAxlxIrgXi0AY4JoN08WwgIBNtyLMVXEodil+FfD9mUgjx4J4AM9ag5vnIs9ekV89bsOM6ZO5sSZ+JeH4W8uzBRJ5nC9clZMREX+nAimbkWca62Awo0H5trRoI0PnmVs1nFiFvahYxsuRofXUdiewT8rcyKO2rMmgTflMnCBRTAWhXB2Gqyw9I/PE+X782kI8zIQPlrfypo99Feidxr/kM5Uqm/ENpdH347i9Fl3NVlFffrH+GvXq6bRZTONBe4Ma1t6TrjWucazOHAlSR++WA+ZrWO4zriHcUlmVYq/C+5Lpr0jXLdcH1Qt8DD9s4ImSwkmc9fhkYzNpuIUjvdmuRkCcQCATeGwR4iUN46MDjwCoT24k0PDzkFzdzZi5fvmwnLWjF8MjLiyW/wLIWihcXL3g8SzKP97bIwo8//qQ1Q3/yPEg6KCMjI8KswUupHDiY1wvFdHNR5kdol4mLhvDSpcvuOEK6IcZobyHBzDPkY+LVJq2scpudnffLDPPTW7duu6NJfXjR8WJFK4oJFKarvOTo3FGHW7duWR46lHgHRsPHeTpQvDCpH3OYeUFD3DBnRctprZkK5vyVK1fSP7/5p5cgYvka8sa06sbNm3SNPG9op8gvx+gI4ygIbG/evOHfkCwI1PHjx0246EiVz+w0JCY7j4L80Xn3+rbCGZLcK9LFmp95YCIvO4O8OAEbFc4Qfkg3HeBuaSTQ1tAhoyP8RN6xaS+O7xOROyZtIEvt0EaUL1WPz0POqSedf+JTd+ZXe16V4rpHiQZK1w6DJXfu3lFn/kq6eOmincx8Ji+1X0nLu3fPbnVw1enXaD9aQdoGWTzCr84k9aHsTLrRa+SBhcVFTEW1LI8GY8DzVwUl8/xmVQvtC51xm+SnZc+9pCNEGcyrpp0htnTGbuh6/P6H73099WnNR9ppeHjY11JHR5cHMaxtUkXALHe4c/sVbT33Qy3U7eZj+SxwgyPb1VW6/FUHEFW4/k1y1ClDQ4YFA857PAjgZErkDJLknLBDLgaIMKkdGjoik+adugfQ2unefgl8DFBwXzHAw/1uz7iT0yIqC76PrLXNgq/7pu7F3FJNK3lyx5ZqrahtddlIRIjVumSv9oNMHOoS18hHPgPWzCElUA4kjXuFewHiPqVr2M83CcD1RltD6LgnT506Zc09WqLSfpOa4809yv0MSeO+ZR1m6oUFABgxD39goN8Ek7wpg4GRy3pusVwR5FeiJLzKUg73KISZqRBXNED2/fc/2HqAe4slvb7//nsPwOE4jbiHZSJLe3BtMpBx9dpVPf+eSsYmP6fQUOHjgHLR/HM/UzfuT55hXKtc6zwTPU0FcqyyIaY855ivznUOgeUZiayQggkNqDzS9YPjQvJlAID68ZwHW/54ZjFVAW+8KtJ4UgbLkmFhUOoOQcaRGuvnHpQZMPfvTT0XsUQAfy4IBtzwej48fNRy8/5Z8XObhs/EubQrtz+yUE8Tc92jtAnPojKgaTl1kHjEp17lU3cFkeXrB/Kqu/ZchL6Q1IVoQ7kMYvAco1w9bdRm69O9fsHvdor8fMhTjLjGwIhrjrZi8INnGQOOQqnCsqqvmxB0t2458mGwh2uAvHhnTeueYqDH7xdyVmPwnh/VgDr3E/dW8dSMl2cI83YLQXq3W4uEPIFAIPBeIKB3kF4r2USOjhEdEjpbvEDwQomnZt47aH94YaE1oeNCpxKtAi8MjpOPNR/amZVJLBo68uFDGl48dIjwdFzWP8R0trMzr4GKluCBOqnMYURDQp7IgqOhJ086TT5J193NGnzSr6g3vSAZ6aTR2WT9WDSsBBM4vS8hAGhRmDtHRxAHI5BYOpvMz7ymDupjmc/yEmT5GuZi0Sl0PR3ngXGA5JMXDo7oZGHmR+fZHWuwULnISQcWmTkOeSDQ+QMnv5B1HnkuiRSCDx1UOtWQFDqTYEgboIFmzh/LRZGv15+U3GiLeJljfuplktS5J+7w8JDrBZ5gxzqy1BmiCumlg0u9yIf1aGk/MKAT8nD/Q3V+M76MjNOe6EuYR03ekABkRGvDAAJLOzQ1qc0Vxx1h9yqlxZG2ieWGcGDFaDr5DA8Pi1ic9PqMJhXqfFPHnE6kyJocrh0+6vDqQ0eF8sCLbpAJpMqivK3Dxh0krm3y52wOOR7tx0ALWEIoaSOuDepBGzFAw5xkZO37l+y8a7cGPSA9yISspcQ1HCSxzvFXV2ApeN3W8vBF/GoLyc3kS7VdVivoH0KGNhL8aQ86b5QNqWGwgDYsZs1cpwwQ0d4QeNoeebYOuXyuLawTSEOeEKQFEUgsFDwmwbIuGwTXVcfpuGLiOa/rc2ZmyoSRKQyY+XOv0u6/JuRnhbxW0z66pkxsRD7gH4QMXYWhfqOZZXoEgz+QV5a3gVjRKS6El7aFIHLPMeDF9Y+GknuHpU9GRq6r4zzje9j3gwDgvsvPvey9e2bmgMjvQZtL46GeQR/S84wDg1ldSwwc8PyjLK5Ba51133Hv8ZzgN88MnhfkzXWPqebC3kUTXDS4OA68oSklDNLRJnTWkQVyDPZcD5OT2QKAvHjuUCZbLC8YhORaeYYVzcioyTfPBbTETB/hni6y3dNgIM9EPK5DeCH3kHbuTa49BhGY7w1p4Xw+pzm5wo76MBWBZwBm+FgNgevQkaH/v737/LKryrJEf5EBOazwNkIgbBrSVb3X5UZ31/fXf27Xp349+nV3ja7KzKLSkIlAGAnIBBIECJBB0pu/te+JuBGKkEMhhcQ6Utx7zznbrD23W3OvbeoMXbIePXq0BkANigrj/gwmZVQ1A2+P1YCreEZNn9d7MwVkci71uP5HdgMb5FemlAd5VPmEYS64rZv6EPsU0upTvzZ+utbNyl0K2yrx1a6MN/q9ceU79UAqLgr4qiKaB7eNv6bkDFyn9G8g8OQw31zJr1rSk/w3uFgbWaWs1LUSTH6Y7TL53SDY6ZHwasZT6rdyrB4bjNSP1CBqwtYuqXMGu+ki02CzttzMiiuKaIrwBn036b1BQHc0jUAj8P1CgDJBCUIgv4oyQnmhVLEqUIBZFE/cfyJTAe8raxirGwXtoyg/Og07JLp0/DqgobSPaZmIlj/WKv6QirGDozU9NhCyziabPuWinIuPEjYU7+G+FN2shRPuavhj58cTJ76IZeXt2f/4H869/STK/iOzpaWlnCP7UnWAjqJhjWVhoOAh8TasYFHQEUonf59nmvL9USYpxuRDRu28SSl9L9OX/xglkOJpWh9lknwu6UEk94eIn/3WucLO2bQmWEebjjdxTJtQeS58ehmrnDWTrHb7M6X6q69+UvJySwF+6823Sm7xmsr4V7/4xWxpebniPhFF+jdJ1/Hjx2YI5nvvPRpivavSBSPKpPy0WQ6Lsml/L7/yUqy5z1VekFVeUM7hcyzYWGtryjRlgPLoQjqHEv9lpWdf5LQe+e4owUg/FUaa5Em+aio0S68/5EK5gbkjiu4MltEFV5RE4fOLyCFLlF3rMCkt4mXRhL0yR3EWB8+Tksn/2otSS3UZn2vfze/m8StzNlb5/IuTNTjgyCJ5jpjA/vXf/6Esa2+9dbQs5qYI8zPyzprEyI6M1tBAyL+EidaVl9PP8eDSnzCo8CZPdPZozGPDoFjEz4/8JJ8BiW+/PVH1pbBLHiCjX391qo5M+XMUOuXATtIIEfx3Je8L30uIIX7lRr4j/nbVNi2zSH1eVn2e5NsgHHmW4l7l/VRImcGkP2awxsCH+qWejesSgWwQ7vRIXbQRmrKEZGmXKMSr5CP5rgwleLiYlXDs2PEQ13eqjdL+vBI8YIKYqvu//c1vixAq32ZPyPsv4+/3v/99ETNHs4lreXm5ZngI1wDJa//+76lz71S5eebDp6v+a3PUWwMQ6qrzQ5VTdR828OVfGYaxuMiizUFo9+8/UG2edkU+cyP/E0T541/5M9Pl3cRtRoLwXnzxpRlr/iN3P1Jl02DNa5mZgJxq7wx6+IOf9kr7zsolzWayqF+e23UcfkiBwQA7eP/ql7+q3aR/+pOfZJfyl6rMIaw2pzsZN/JVHf3BD35QbYo6avM5S0m0e84/RbyREVbZH/zwB5X+Y2mzjh59S8qqnCK92hJpVd7W129p99J774a7sXGUcgVf/Y42zx/cuPJ89Ts/r+clPxcsvqPfGyTdzIZzqbPnasfkUa+kYTVd5LqNLnkCj0skabQP+kEzlMbU5mkAC0E1kKN8r15X0JavOq72QNt8ZwaLtFVVZiJRhRLBDM6oEwaJ/RF2aWlptpw/fV5uU2LG50KwN/1nk96bngUtQCPQCNyuCOgoKCem9OkYKFUUMISWMsa64A8hte4WsWFNZAmYzQ6We35KeY7ywTJlvRzlDpGiDCKCwmCFKqU8hBlpLH9RVsRHQeOegn/HHWdqQyP3Dz34UPkli1Fi8egsWTOtjXv9D3+oUePnnnu2ZHIuqfhYHt479l65o6gZ6aUE6yRNa0LiKJnWAbHgsqrdG2JLDsoby4ndhD9IenWcn3ySXR+jMI51d3eVrAgjuUyFpNBSlhEO8ezPc2kxnZZSVpbShE8ZpAh9EyWclY7STDlA+Awo/HuUa+ky1dwaUmepws2uyRRVu2gjF8eTB5TnpXTglFfhwt2OwvBkaZo21SEX/JF5snw0P3P58yjTrGJ2Veam+v/kqvSzFBkEobBM6/lMWeTIM1poVMySHb6s4cg0fKvMZJ0ikoyojONhhtJXClApKFFNUvaic1cY4hTOF1+ciLUsZx4n7QZW5JGLW9cIxf1QkKbnGxsHxDE8wnhSwuCOmJnBoKy4pNV7pJ0c1vUigNaAscyTb/Gq+PN+kmdINhdycji9zONJXnnvElddlQ7+kKSBiTJj5215JV/VFeRkDKSMNfQiJrP6aIqrcjLVrUGO7F5aweZjnVwVsY8RnwEI8ZjerxzCoHBZ8b/iYcMf0qIcG8Sye7Syh1jBTP5PebCh50s81JYIU5mZ4JLuOlomGvd6pZtbhMsUXfVd/NKiDNkgTX1Vl1gKkTRtCcXYWmaDQI6kUscez47L2gHLGuQF+Q+GNCovyOfXqZtIpbIOO35M5TUVnsywVHYfeMDxXndXfZSH2hzPfVvjr+2wQdyTIfXaSbv+khVJFqb6TA7u4Im8wsLUYEs9hC0+ZVkb5Vvc6t8I+5Fql7yTBuTWsgnLPcQPVGtzB3kbgx/aDssyDh4cax6VBwNCZEKaDSSScWlpqWQzWHL/A/fVjBUDedqmrxKftkAeyAttpvZEWTCrRh6YfWP2hHQKmwx1Vf6WaLlVZ/1WEMe3jbv8jWfK79ggK8nLNeq7tPJR3vIxfHu/9lKfqswmP83YUe/HWtzhVxzle10A9TTvxGODMn7EJW+QOL+LhEWelTDWRr3pXVJQ71akHgmLQB6vEyTvhus5dutCHZBMbta9rNDWhlcu42n6Jrs02YRK229w4977Rh8mtM1DXo2rBgYTDjy0Z+qB/tbgq5kI8lIc3lcRqPiH/8sdt6TM6JsMnigHBvmEN2YCjLbczB19prSYzeIEBccu8jdSvxaDVck3xnT1/db9atK7ddh2yI1AI/A9RqCmj6ZDY/FA8Ch1yC5Fi/KDJFHkHsq9DTusLXv76NtF7Jz/SVnR8bt0/Cwd3OmMKM2UHmRQh4MkHz58uCyuCKENnvjXEep2vCcDonYu0zutoT106FCsPI+XMshqabrjzliOKXFvvZWpeG8cmX0Smckr7BdffLHIG2XXUTcso7/+9b+V4kshpMSyMBxKB8tagTRQkimiy8uHsjPv4VI0Kcr+jh8/Vp2p36V0RqmGGYK4tLRUJJXiSR5EWvjPPfdckVUdMVmlx0WJpOhJZ02BDHGnoO4yXTgAUL500L/81S/ru86LfeGFFcXQ0RwUWZiQ2VpAFvd3ooST//Dh52aPxZItL63P+312qaRI2MEXLhRNyqpdR2EhfxF7U84NdrCCU2LkFfykl/WOIiENNsxyrMrZHADJDQWWsmLtrfT785xFXVzWYysbw+oVdQ27TVFJ0Bn1j/8oKa4pzloPHnm+iCw20zHgwZI2WbdWFCxgJZxBRhJAbvN/w0vJXHxXxDHl0mZFiBmiTj4Wd8o9MmKQBVmX95T8t2KdeixT0J9++qmE9lDhIZ0lxMqneEZs9b0S6VBdoxYHrzjmJjhMa//cltWYV1f81c/glgpVdQOxUu7Vr1IUzyJyZ4InC6BZA38qZV0eK1vKYyn9kbHEFKIRgQ0u0YhROam6lW9TZinuNklSh1loeB9u1wYiHumyHtku5NZ8K+PyzMAUIqx+T3m91vfl7wweKQfKKks2GQp7yclvuBZJqXQM0qGuIlzqkt/aCRgivI+kPP3N3/xN4ePoKfWvrMOZCv2bf/9NtQn/8A//kJ2rX6pybCaHHEQizSAxlblmj7x7LBvYHSnCZo2tjaieDAmmXCsv2gftgDZoWjurHmlv1GEEFy7yank5s1Nefil1M9bgKOK7MlAmceo0/FnE1C31nJ8X0ia8HPc1vTptojptSYcBO6RN/WMZX15azhnMTxfBQHar3UmeyusaSEgej/zbUYN0wmV5XlrKIFr1AQcjRzacStmTD8I0yPbJx5/Uum9p0c7v32/quV3d95a7RzLYyWpueYBlK/ZokE5yikO/8VTKqTpnsO5A2gn9BrmkWzPhpDVZXH95oByPv9E2TZZeLswUqanRcaAsmFmkbBgRUd9HHcj9BlcNkmTASBn55b/+a/qrTN9OO1vtVrBfJbEkWbyEO56RW7l0eVanDEQAz/UV5Yr8w0V9Ln7wM/1VfhSJ52+Qas/8bXh5Vy82fs/b5GK9f+FP8ebHeF1xmVk15B/l70zNANGmP5u+5Ec//lG171WnN452TVTyxAZ9sECepz9tWeEVnBHVO+6Qb6v6BJEMyFzqIoO+acoD4YzN28b5v/owa+u1BeqkASZl0fp8mabcFD4XpWOO2kXPLyXN9XvXpPf6YdkhNQKNQCNwEQKUJQTVuagUAYqOzqKmAOYdUjRZgBAmVlak0fqq6tzTweuedGxGch3BQQmibI4OaUxfpphRoIzu61B15hQ5nZ+NXBBkRNif30PpfbCsNBQYnbFOzvrVWgMcmSmEOjRyn4xy588mGe6FYxoTElfKQ+RE+oSj86OA+kN2KGssZRRhZJA7pF/HKCzy+i1+59T65lccwmYlI/MDUYBr19yQEoouxUnfuXuvNcmZzhh5kALKrIvfaVdpZPbYseOlHEs7IiptMDWSTXFk0fNOvJRKFt9Hswvl0tJSFOX7SkGnMEsHNxR2ivAYjBib/pDDOs6TJ42Gj91myRppSjsrckgpyT9hyCODFHBzDWVpWoM7pqlRguFMXtPFWaDkfQSv9JfyM7yHnSQQM1XzzgVfyrRBF2sZlRtpejTr/WzaI4yacpt1wOJ2+VbehqVnCrherfkofLnPH7JZhD5lWtmmFJEXsXrkkWwiFGUcdqz+/5K43820dqSSBVDe2O2TwlSbbyXEEev6uId8hCBqYbXDM9iP8kAOSYcMN+uv6R3c5aM/gwzKtTWRCLsyqg4gdoPUPVT5rKxMGE3hrpdwej6+h3ItLhYYl7Ju/bc1srBQBja6pvSrC2NdcCyXGfhBfrUX5EBCqhxsFMBlnrEuyR/lfmpHCs9gJu5h6S16MOKK/OoGP4i78vT6668XkTcwps7DRx5rg5QNMz20aR9kyYGr2oLkM0swAiR/poFAYZsibRaAHdsNMj2VwZBpVoyBHnkhv8RVsqeeTfhxJ36DYdIjXQZY1NE75xtyOfJMXdw1D4Os9+VP2yJsA2tPJF7PYWCzMWlBrlniDL4ZqCwinN8c7U+bo+21vMFaSvmrLEo/OViOlW1LNMSjP7BGHDZkhKPdcfkzA+Vk2n7lTtu2c0eI+j5lZ+zUTAbExpRwmBokgBt5kaaXXnqxBgVhre6OfC1xPCq8Q2NXfqfJzZ37JCRf2mB/dVOuPBsuuHE0UgGTd9WklZsR3tz5yhdf/I7ynnYwZd4z9U/5HWvS+V3rX5kYMow0cO8aZXO4lefTYE9Jx89F4czbg+orYu1MQAaP+NPeuaZyXzfrP+J+RD0XYN17ck0u1r0qWaZ0lNxzsOCnPpNf/spn+VlW2fQJSeT6oK7snqz5m9qTIr2J07p78RQ0C8kg++Wigo1jyNSLSV6bWZmRZqDHUYk2WTOl/9lDj9UMDvWkcqISn0jSpy1Em3fz+zxc+/zKknk9XDXpvR4odhiNQCPQCKxDYFicHOPzdY2GHst0YB2EacE11S9KGrJiwx9WWASTgoAwmBrr3oj9jh1j+uW3pZBciNJ0psJBKmx04hKuKXVIh2sofjrBjJRnaa/Re2HrvPyNDhnRTQecTjdvaRilkJw/n+nH6dzs1Cg8Fuhf//pXZXnVgbv4sxYOeaXIIpCmICLjCJo069Dde2/dKrJvuqLOWZenMyY/axfCRwl2fu4dITHTIADCZtqhAYDV9UnDb3XmJc0gttN0urHhT+IPeafcmI4FSx21zazITmkml81tKEGfPO37AABAAElEQVTSNSkH8HHUAsXLBjTHYqn64ZcnS+mdCDo3iIy0SI5ddllqdfjCibpbuI73w814K+ljMIKCjrzele9dFCEYJNwMIZQ8yLo8gwVlGJ4UXIpzKffBcli8YTqUmEGu5Y84hTM25HnzzTezHvDd4JHNow4+WIrxY7HGFTmJSOKZ8nbCAk6mvFOkNrwSZ63Bm7+EtemslHpYu5aWlmavvvrq7Kc//Wn9JjcF33R5xJICpV4Y6GHtoLzv2bUnclKYE0BZI1aQqzBXPlbyLOUhZYZ7ZcWFJFIuK4wVPXLlR7lR7pVPJIpbhIUV05R79dHGLLA2qGE9L+WP8oiYJYsK3zEoUMFd9CHuij9vKLvTwA2H8lL61Yno4Rte5TeKq3y0Q/eO1DVlDkau5HC1H95/l4vvVIEqQ4vhKAcpFrlga4fxA7MXX3ixrNTvpiwdfftozYhwjJYBA20BS7RZFAZ+/BnQMyNEGYYf+ctaKNTgQ/QSH1Z5BidtlbbFcV6UdulzHM9U92ymw2LuiLIDO8fAGCnXX6N9cUxQNovLObvKszRNf9o2+eC9/FQ25bc6sTv1EHEQt/YJYTWNWDtmsKDCisSL5X8xfv4qXxIu/9qZOros8Vv+oA/QTopTWpQ305yLkIfgluxJ59TGaP+UV4N+BgKejaXbLvLqtfLwn//xH2dLS1lLmSnb2tjRVkK0UK30lXzSL7He1O8J+Dyox+NdOVj4iNNc9VFfI9R8buy8fCL0BgMOHTpUdUwfpby7tBFTf1Q41dPVDwODrhrMW308b1tHnqwOEnLA/fAzOYcl66TyJK/lmfru2730K3wjCRskJI+qjk0Brv+ev1//eOXe+4QvL5XZ6hdyrz21n4a4YSCPbfpmlpTBFH1LhFsJ5lI/hrU9fY60JzxhCf/CGVZxA6trrzip60qCF9aBDOSox/LNYLh23TIhbSb9QxmWz5YsmDVGdnVdnwrnnSKcIi00E/1chrWS3bi7Jr03DuuOqRFoBL5HCFDYTkWpYjGk4FLkkRaKzqTMmFaMgFH4dcJG/RE0U4Z0Lrt3P1obJg0CrSMbG0VRgnTcZaFLL6Jzt3aYMiFsYSGR1oTpZHS4lICpM6IguOeOMqkz0zexngxlISPEc4WTYr/YUwmD4vpAlK29e1+ujpqFRAepA3SRT5wUPYqGdFLa6lrpiUd6PJtkIQ+yZ+om/+7zERfT39jYyVRA71k+4EmVc0+JoOQYOZ8UG2HoiP35zZIII1ZFnTTFynP+pzjrWWI1DRV5ptRP4VMoS6lFLNf34CUraUciy111+qs9PWWAzFUOKv5VckY2KNW05XkYuR0Q+JFr0iEq9txIp0EGhNPxN/KAUiJueassvf7667Wxlg2sKKGmE7POISLcFc4j9Pq84o8kCy+V2iKNyEryhkIkzw2GiM/0TZZ+cPl+/vnnS8m3oZjNjcyEsL4X6aizHYPjgDKpLOK7KtFAdtwXFmTIP6pfCQJqfz6EUw/nj4a3+pT3cEJy5IUBGHLIH9ZJ760tfTxl21RRO/VWOU14MLvii8D5I6Ow3cB7/G0eSkleBinxDfdcT2Vq+t48hMu/Wc33yW3StQ7vIW9mU6RcUcqRLtOR4WOQ4NOQNe2W5QCs5NJ4KLu1P5LpjpRiA03KKIy1HVN9Q6S5BaV2bZqSqZ5py5Qn18r71GtK/ng/6rP82OySNu2BWR/aE/Em6ISXOhbZhaN++DOQAU9p1C4IVj2v8KsgyoOxiSC/I+wxM2V9/NzVJY8Tn2UMH3/8SW12dfTo21XGEFbtq/iqXMAlHidsyISQ134IaTfJBytTlQ3WsV6bJm0wjCy1m3T85Kbk9F3IKHeTPJOgeTfkK+f1U6m83DX3Vc5G6CTf/IKTtv+hXQ+lb7CTdfYvSHrJWwOSwR9BG3ViNRzv/bkWy7hn8qzwStgXk97VMPziVv6PPsGgQXaSR3rTxlbfmfeXKD4VWKVwk0SupH6D9/UowEsbOZRl30lRxa9trHfzOqA/go3BOvmVXLwktiXcRR8LObTyc+XHVYcHJ4M12kcDPhPpNUBZxDZp0388+KAz2A9Gd7g7ZdasrfTbF7Uh8/QkbRvAdVFKtvJBk96tRLfDbgQage8tAoif9Z+mBJsr+Hh22/3xqz+u70G6QrxCTFl2jx49Wpss/e///b9r5P94rItPPnm8LEyI3UYXhYBiMZS4sbMwwoz46nxMq3v0sUc28lrPKBHIlXMj33777VIwDj17iL5UpNBGUeQ0nfgn2W2UBccUMb2yuDlEumujnihgrCGTAuO936xbpdjlntts77ui3IrHhdDrRIcCyrqB7A5r8qQMjHQKI2d3Bs93sgaPAry0tFTK9Ahp488JJ2FRvHXKFGFHOlDEdMdkK+WkLAMGEBzrM6tRblMkSxmZk2N+uJ1G2eHovNYLO4dSI75S0OZhF1aIDlUm76SFHEMBHFb4M6wR8Z7XwS3y5JtchWENXgxiBqOy8FOiko5zwVOev5upwiwpRuUR24NRQuTVZ1lT907y9rWsUUbkfvijH85+9jNWV1ONDXDIxjHNelEdueMOU17l86XVYfk0LsfGnKopl46EolQiitaOm96MSEyDBRRga2SRJTs5I8k1yBPS+3CmgZ4/MJRb4a4fcJlHFqHrZZF8cu6IpT22haQlAz6yIe/FN1Csr3ysveRD7RAeOe2sDFv1gOXNZc0z0m6abZWbgEVxviMDC9M1kr8CwvR4fCtAubxVZmBSRCYkRt5TGKf6Ug7XfVQZqjymuGeae+r15yGZSBRF3vtRtuYRrfN/uVuzDFjidh+Y1ED5HWnnyRF2kptL+OMh5Z1l8T/+x/9YFvyPMzDHMg43bZZBg7feeiu7Ef++yiM5TSlVX2ogTIHJf/f+zOzw4JxBqtRJGLkfBGC1PcnDa75g/tmJcR62Nm0a6IDft4kXKS+Lb9rrItV5fjqyaAPIM+Wb8iE95PbMQOOOTD/e7JJU7h399qtf/br2AYCNZR2/+MXPZ4eWD9Ugo+ncr732Wk1VPnbsWE0DVsctRai2M21FMqbyeuS327Hkw+ZB5Dxy5I0MqN5bZfW+bPZnEME1yte1lY/N0nWlz8mojt21YxzXJl/VZ7jLA99VP9eJ5/l4N9I5pdkz2Fe4qUMGCOqqIiWsdZfn/KTu+TaT5q47TX0f7bO282zqVw1srPM6bhP++L/h241k53BIJb/cjDsDHPouZZ/cU382BSxNXCp/Zl2tfz+5W/9dGAgzngU/yuV8hkJV3hFuBR43k7v14Wx0L6+qz0w7pZ20iZ5BLvXcbAWDpssZ0FxetlHj3YUruRNL4smf/JEo9+PL502/ptbupgvSAjQCjUAjcDshQJH6KBYQyj1yy0ry4gsvpJNYLmVEB4EwfpnOhCJJQTJdzfpGiiQFaHlpWT9ZnUg0/EwX0hGtTmsdysGwOOj0WFZ0fL5ZkK01nZTrIlNRACgO1RHpAXOZxmy6tZ7JZjSmRrP42t2U0oXMslCzRtcmMTq2xGUqKQv2mVhldNaUL5YI4UwEk8IrPB1gKS+JsyzFLK31bhAIWFhXGUclE7fkNe3UH+Wt/Cdex6O8996xdPLny2poHS7Cw82EqU1rWBF0t55Tsqapi3YXPpkzck9kkymKLDLqgqVBAPlWGw4FJ/gZxWaxljBh+SMneaST3PyaSgyrsmhxw8fcnbzxh4hKD3dkZZE2SGEUHRG/M0pZpZO/pN90Z0qy8kF++ap8ID6mdzpr2PrAd3P8E1zk21cHbZbE4n22yMgbR45UeqTllVdeyXEor2SX1+zkHRlsnEUZEydLsWnt8lEa5f1+Uz3jTp6Oj4GVO7CN8jf8szYrsywBFKYHsuusTaqmtdzlJx8UqGeeWYq7PxW+ZjRQpBwH4/nBgwtxTJ42+HaUjKmzpq/v2xsyEyvO3j3ZrTZ5sioXj6NMrQ9C+TBdlSVDemFJDheya7ohws6yVsp2npt+WwM/+S0/fST1+TFdC7LDJ/8ovNMUfXKJC/bwVca5mi+gnQIZ3x7HPaX9bJXLDHhkYEMZkEfewTlZd03X+fOZurjhgFoCHP+rXAg8RbYGiaxzVl6tnX/yqServTCt0VT5P2Snd/VJ+zM2t7k7dScbl2Xas7WB0inPkDlpknblTjrUA2s++fdstD/3po6Mdb8GG6o+x89UNlfx2zj5wjG1WL2yiZKwrcnVXtSyBmEmfH/ckq/aqSQeEdJMisuf/B/t5qjDykB52Tjqeipd6qEy+oc/vB7S+3qVseWlpVrfbsMs67MNFKg3BiG0J/CzU7Mdj83cOHBgtDMwQpBtEEcWbYIZEwZNnd/7TgYC30/51e6zsE5t1noRpxI6fa9/v9n9QGj4Suo3c7b2eZyN9n607ZOvMbjAqXZzrZfxbB5PgTx8qUtmAYmbFVK+1JUALgpCyPUwH/VffqqHae+TJ3zI4zO1xnt9/Kv3l87jUQY2xILIiTelZp7+Ma1/Z9aWj+U8ox2pJMTduSpv84HU1egv/StxjHLr22DCmLkwlgyl/a6+SV81BbPyY3pwyW91Tttvjw3lSYK01QYTDbA8aPO67NVglteYuj/k0a+5yDb+uVkQo97evI8mvTcP+465EWgEbmMEkBJKNAWwpnmlk7jnnmzgFAU9/VN1CtaCHjiwN1bdJ+JuuYglSyZC4Bzbr372VSFEGdtZuy/OohzlDNtMW6b0IWiuoZyN9ZvID6WJ8sTiS8GjTOmMKGH+dOasLBRJYZDT9cMf/iibv4zp1jZfQcK9t97MH0VrRzpAnZmjM6zrQyIpb/eHGIvHO3FKMxkHcR1ricmJGHtnQy6DAZQi5Mr65VrfOlf8SqmhsORvpG8o+JRmgwKUlpdfHla5widpQThr7V3Cq2mySah0Iy4TgaG0m26InC0vL5cCOZQHU4VtZjQ2F6MkP5SpuE88Po48gY/0FaFOOvw2oKDD55+SgETVlGvpXrRG0ID8BXdpsZssPyw65GOt9XvHzn01dZybUh6SHkqsM3kdf+Q8UHLb6IxSbDMb04P/kiOkrE1E3PzZDMdU03/9138ppdr0Yjve/vVf/aJ2or7rrr1FeEtuClP+yc93Mvhh6jiFHWZLSzbwyjozaYnsg+BJi9/5FyXUdUfKsYECaz2tT6TAI46mBxss2ZddaJV1eQkz62SfCml66qmna2rm20ePFtGx/pdMysSIJZFudOWx8mgXWztk2xXaurKlpeVszHbvkAvciRPmG13yj2VcWUT4zXj4+K6PVzYne/LJJ/M+05pTru7IGaGCKaKWX/CpazH4PFqDT9wgJ0jXqa9PBe+sLc1gjDWhZkBMZEtIG4oIh5SDHdmdFf71O7jAxx9fBsBgdS2XJQojnI19k0syRaV+nfzqy5omb5BFXTdAZnMyGyg9/bTp6+M4MpvbaGO0G8jrQw862/i+KuOs+p9l0ObRRx9OHRhWNxhpp8bgT+pA0qztUW7MsIC1s8fVbXViLNvIYEUGT6qObCx+haP9MeCgfTNYoB7AXtkWnrrlTx1WHmBS+V342mRrWvM9H5yrumv5wNjtvgYrNol/Ir2WjhjQMesCXqaGGyi47/57K05kRd038CU9/H3yUaZD3/dB5a32k4ymMFum4NxoaXoyx8ep04iIM4A/zrnYjphTxp7Nmvk6F3oqWPP0VIaSV+bOa5hfl7sm74vuNnq2+F7wBjd8GxCsNjppKZEMXtTzi8t+iTYPqMr6vHZ4fj6RejYGTFYcbZKUMXABX5hqn5xGYJAX6Va2kU3vNrqkL7Ft9Go8m95v4kS5NjilDCpvBooMXNbAcOK8A3GvupsZB3MZYXSpOrkoDNnUFeKTVXzKkcGjAxXPxTNJNknqYrArv4VtLe/oq/dW36htp1do29VPA8LSpN37NgOoBKk8m2NTadkEn5WIbvCPJr03GPCOrhFoBG4PBHQgU4eps9KRsjrpXG1EhRBSUpDesjSGiH0WpY9SznpHyZpIlk1zkF2K4lfxj3gdvWf4NzLsHFkKOoLMksU6pbNBLlnYhnX4g/LPWmldnk7LpWOl4HGv8y3FMwrYsJbOasoSpR8JpWBZ96RTW15ejrJ4rJR2Sps0UBopYNJ9IqTjnZAcCu7jUcoRVh2i9X3Oj/TNjecsGcLdE7LOWoW8wcXaLh0ja8f7x98vTFiVPRsWzgdCapC4k7MP3v+gLJejcz9V5IkcsLK2TZgUQJYP7llyyeHMTaTaDtKO9YAFQqsDZ+FmAdiZo43giEDCElbOBHYuMQs94mJq17BkflB5bKonZdoU3odyNifrnYEO4ZpqTIknj7QheYggEgBjMsh/aeGOvKzm3BihpzxM+QfvpaVnysLzQdKojLz99tvxM846Nj1T2WBNIyMyKE5hUrSVlReef2H2yg9enj2dY1acVzpZeHcl35DX87F48PvWm2+lXLxbMjmCQp77k3fkrfJOR4wiw6JAoadEsjy//vvXZ28ceaPOtpV/ZbFK3pGH4mmgBtGzdlN+wSjOyh3M9+0/UsexICAGXkyPprgjR4vXpEPJZ+cuH0/ZsquxKdOmdss7Vylcvuvu4g8EBzaUOumioCPkCJodfE1v9q4suxsFkmc2MhoqM80zcdTN5Hgo1tUmRBlV5uS7MGEp7XXN8ZzfrXzV6yIHZoRcKGJmUEW5gC1v34X0Sit5tC+Eh0GJP5cgtymfUWcjqKaE/J9+alZBBjZSDp1fLB2Px8q7K4M4BoOkDf7+TGO3ARhLt3pXgzUpL+/EIrn/wL6UsZxlm3htWqVeKX8GWFiGHVXktzIin9Up7YkyTR5tgRkE6pNyYoCLLOrBlP/KpoEi7YOp/SxUrFLyuY5US/2xo752SL1FdsUztXXkHmF8ULKJW33+MG3Kwx+E4Oc9jKTLueUGocyuQPqFYfDrQNIylUOOYay+TlP65aUw9Rmmf2tLkfNjaXfJ4zLIh8hKgyPX9BXSYdBoaWk5Zf7DqgfkeO3fXqsZHycThiOVtGFkkNc1QBDsSo55Trt1kQuJQtCqTFQZG7NFqqzN36vHCq40+TfKy2KpGeFVmN7W//Fdm34lHP7XXOtuDSRMjyqWFRlzd7UDPPFrXwZli4UchrA2g8asDeIQcqXs130exZ9oS5J5/Cu/42Yi85W38/dCWrwsP2Gd137qg2FrwKviQrbTR/u9eFV6xZzHa98sulr/G7kfU/X1DeJUduSj7zEbZBMh1we1cK9sCoP8FVYwg6V0GKRXvmrwKPf0mJG18sjfKnZXH/OCEFvwc21vsgURdJCNQCPQCNyOCOiwKLQa9Z05B48yr0OlwL322r/VdLYjR44U+aIQ6nRND6Z8Pf30M6Wc2cmWomUN3L/+6y9rXRflZRCf2ey//td/KoJzONPYDi0vl6IzCO+Bskg9HLKFeL3xxhu1CzRCbA3u0tLSIFpRBnV8lNEHHjg4W04YR48ejQX3rVK8HnvUsT2ZhphpnNYuTkcbPRUr12StOXr07cj3u/J3+LCzdu8tBZgSzHplGqgRYcoRhdbmRL/81a9q4yR4SLeOU7qQP6PRf/jDH2e//d1v8+7TdJbnZ//zf/2vbPp1avbXf/1/lSVSmBTaQ88eCqk6WX7tIm16H4stq7CRZsouy9HvX3999pvf/HspfxRGRJICwA0L7CuvvFyWwH/4+78vK9IbbxwpkqyDRiDJxw8ZrV1yBijLIYsJvFlSpe3Xv/p1YfHnTJc0xe6//bf/Vkrrj3/8amGANP7mt7+pPHWkg0EP10RgbfDDUiU+ChBFHc6muPu7917nwGYTqqg8Q3nYUTiYxoggGxhRvv7P//mXChfmFJAXX3qxSJHzhQ1msH7K8+VDh6rcyPeahha8Tp/OeuUoYWVlSOG9YG1bFCXkVDlSdj+O4k6pQeaRD9OuyT0sJGNDNETBLrTvvP3OyPc3/jj73W9/l/NUbcCWafFRmP7n//z/QlS+yNmsL9d0WIM3X36Zc45TnsSj7CJPCLxy9k//9E/Jl+Oxhr1cG2CReffuuyut6z8o/3+MZeu3v/1t1jA/WOVKOp0Zizgjc5TIzS4kgLUQTn7vD0mR3y+//HLqz9OxYjyQ/MnU7mifpdwKqJTRBXU0wY9lsOKRZ4uxjYELCql6MGZdZH1cjt4Rnvxcr/Qu+iY6omCQZEetsR6zJFbWB8ZxlZFLpHFNeOtulEn5JO2L6Vt1NixlYxMtpNg05101OPROyIN6hhRqg1ii5aOyKd+d07u0tFRt1N7Un7/7u7+vdafy+7V/f612Zjbdngw2dUJi1b+B/VIGaZ6vvDmesqAN/c1vflPTp49nYMxeBf/vf//vs7+EgB9OPWU9ZXWu2QWZEYHI/uH1P1Qd/Od//ueyRsFf26MsG9xTf62v/ZfUI+2QNtjgEvcGy1ia1UvkVRlD9E39V1+1U9ItvJ07d1WauXk77QPiKi5thnbOruX3ZN300jNLRbyOHztexJ079RYZRaYRXWXBLB3tlj/hnD17NnVsb9r2T6peazf50T/YjM40U4Nl2gGDfga7jmR2jjaYRfnVn7ya+n+o1viTaSqfKXopPPJzDHbokwzc1mBF6kGlM/lhwEC+IHBVzOYBjHKXMKo+rJaYxV9Vpmp2rVo4KoZ4tW1Vgxaq0aK/+j2cr3lcj+bPce/1myUpnyXQgi8DVgaRzViCjzbDJa/L4prfcFcXF+tjpW8CK24m4sjCzL1ZNZaFKL8rdUfACxd3ZsJoZ+kJ7l3cQwBx/vbbIFPxpK3wnf+ryTAQUT7qc/2HMISpnConZgr41kbvSD21fGh32i95WXLOA5iLsT64i+6Vh2rHtREJYxrQWlpayhKZl6uf1pYJT/jkrnyuZNTHRWFuhwdNerdDLrQMjUAjcGsjMHqn6oQoIJQYpJASMXWMiI5RbArG1AGOEdrs8hzFAoliYaWc6Kh0MjriL9JRU7iqU0vYOuDapCqKmfWZ4mC14nZPOijWDgoZ8ntXpuGVZTFWyAcfPBj3PyzrGcXO6CzF6p6s3bU+z1RUcbOssQY+lfBYjVmTEUoySpdOmlJGWRaXnUQRVJ2e9PijWFIw741Sdk82W9ERU+i+OZDpV/ELI1OwXnhhkDnndpLH86GA7ah1xKx3BhPe+OMb5U+nrjNmiXviiSfr/EyWY2HCVFoeO/dYKQIPHnywsJ/8sAIij9YpiYOFBeE2FXhSHGBIZlNbn8nAhKnNyB5C6h1FBUbLy8tVXuUT5VYclJayyiQvKAZkYmWhOFB+prTdeSfyMjYHEZYNiuDKGvHt2YfW1IMEWWuqWJMde4GQOwvRGl7EdlK4pumZyhx5fMuXw88djgX0hfpttP7kyUG+TEfnB2bSRHGRFvlJJmllZaPcs8pan0sWeHErs0vhSp5JJ8sSP0gyK6245L9LOM6kVZZK2Ys7OPGvnAoLkbDJkLpS7hMmTGvzlwrl4g9K64Mhu85ZZa1HHvxR1FnGTLSfa40Xe86TGgwKlgZRWBZZDn/wwx/ODj9/uJ4NfBJGrvFZP6/4A158sv4ZsCGbwRpkT1sgrSNkgG4SQx5TJE3T1j6Ymnv9r1JVR74uBk4sOZY2y7f8sUEaQqh8eSaPtE/y0KwNdUy5q2ntcWcgwfm5r7zycpFS9Uzbo8x8Hn/qjIE/F3/PPftcDXaw3HOL4MNPOa9BsAwaqU+7MpA3yvnpuKtDvlJuzVB5LOE/m8GrD0KKPy0ZtStmj9hNWpuovTTjRvgux8UsLy9Xe6uQyycbRClTZjBQ+KVHmpEl7YeZH5Z1IEHCcXa2eLRVBgXJy7303Z9pzC+kDiI+R7Nxm6w2S8JAD/KrPj2U+q09dZSNwTLTutVFBBf6TgEQDys4Eu3oImkij/K7tLRUFnGYqHvyxaAUy5x4kVb1c1yDLMkz04V9+xC/cmlgVtkUH//Sseo3Tgnk4pfn8l9PLvqY2qfphTp/CeeTs/quUjnF5Ul+j5kVwtg43mqb5jFUPEmzgUKDF6y88l5/pI2v/jjB6pvkmzTWoF78l9yJr+7JLOCkF0YSfO6cvtygQQaMUgY2uiqt8WdgTbzyUhsr7PGOxXgitglhJZiBUaVVmufp2SiO6RnZ9S/qlbwfff6oJ/acqDg5Boq0+L7MZbDYLC0D4Y9lUEn/f+DA/tlL6ZMtSzEwra+fsFkRfzUhl4nh5rxu0ntzcO9YG4FG4BZHQEcyOkFTiNPkp0Ok4FHkTSe1iQuSUMdxRCGitJVV4uFHilhMxLbcv/BC+fvrv/qr6rR0JJQORAfJoWiapkuhoWhR6p988vHZf/pP/ymd+Uel8OjIEA5KEAsnpYgFlnu729p44j/83/93FMtnyyJg7Q+Cwz2S90A6MYqtjlinacOX5+88HIXuvlImESDx6uSRuJHWB8ufHY4pnxeeC2kM8WTRRGx0nNIpXHFR2CiTBw+yzP2oSsCkHNhJ1vRbcu+J3Lt33V+7DSMjlGEE3UDAUGAfqamTd4aQU9DER9lEknX64qTUUArhS1bPkL2lpaUix6ZNIptwhqv8pDjwJ07TXOuojbmGIK+NbNvFmuIAJ53+yNenanozpfT55D1F3vRneU/hYbEkh3ioOaZCe44kzGaf16AGeewaOxSJuW6SOEzDQ5RtGvLzn/+8BkZMnbeDJgUZJqZLUqRhZDDBmkFWctYe07opw598/klI7BexMO+dLUUBYyWXdoqd/Dad+e///u8qfNZTF0XNuccXkmdl8Ytb6Wa94J+FDf6wfz5kEX4upAQ54B+OIw+GRZW8BncoY4cOHSqlGsTwVV6VpSKz8VfnWVaIF3+Yav///Jf/Mnspltm33367FDKupnJSeYqwrWpjawIZ+bmvCM3f/e3fRoQLlbdPpC7ceeeerJvMtPfIqP5seq3ojxtrkZoFZJDCLY+QKXV5Ik9T2HxfIpZNo78+L6Rc7OvSkEdpOZLv+c4fEqbtkNevZLDNIAaMXYMEj/Ki3ZA3Bs4MGAnl4bR5iJx0G9wpRTlvxFykI+VQ+Noh7ZFBMAr8g6kzytvBB9JepBwqa8oqKz6y6r3lB/ti/R07xWen7ZQhFlBr2l3KIJkN+j2UPzI9+m3KbcqwdZZffPGTkmOEPY554157YAYMwqpNmYif9sGGWOLz/NHMlrGuWdkXBlKujD+c9vb++0KSg9Gr2bVfvquP/GgHuXE+N4scHBHgE59/VvUNZuIxPRlGS0vLKdcsuufqufqhjdKGiPMf//E/V9klQ+Aa7XdkNJgJVwMm5+qd0Fav89kmXjonucmhnXRpuyx7EeY0ndfzMUTi1/a+DJgol8qb+oe0mUlggEs5rPYh5Vp7qx1cT3r13fCWL8JRZg0Iw0ceaz/0b/Db6Kr+IeEqq/JaOTTjC9ZTWdrI35U+E2v1xdb8Z6BVxkrjWDKkHI418NXGVKbP8z6/F8vAZvGRc8+e3bNHUo5/8MMf1NnuBjK13co/3DYOSDwpJSLZGJrNorwhz5v03hCYO5JGoBG43RDQ19lNWcM+FAcbOO0uheuZrME0xY/CQ0mgPCA6lDHkT8fJDxKJiFESKUWmrXmuEzYd0npJ/q3lo+AgASOunUXcnjt8OP4eramFlFAjsdaS7c+3EXvWrNExZepaFMn9z+wfyl86MhYx71ljHooShVxPHX8SVqO8dm4cZPWesjKSyag4GazzZGXzHjmwxu3hh4dFxnozYVVnHAGQd+TNFEQXEkQuip1LZ00Wo/DkoFDA6OG4Ix8rEDfipUAgUpQIsiBY3FNqKSncUEp02hQVo9Xi4ca3dxRzRNCmTadC/inAU5ys6PIEqaPUUPgo2rCXByxP0wY7rO/kNG3X9/0PWMM4ztQkS8mcMPgrnCgnKS8226JYy3NAyGfTwOUJK/QgvkM1kR5r0MryE3/yFrl2FAqFDs7CRqpKaY1iJt2UH7u6hlXUlGNWKzJSskthEXMUF/9gZcDk0F2HEkaIbgiHAQF4DSnk0toLjtJQeKZcl9IfOQvH4OWSPxQ9gwes2+IRPoX9wP5MW57qTtIonf5Y1pBf+at+bHYhkEgEGREJ19jgbUznE/alLnlOMTQA4ygncquHiJA8hyt5S8hLBbQJQsqB3WJtLPZppvE7IovCKA55qdxO5O+Swd+QlxfnsnZn/B9Aqhd240YytU/yu0hBBlsM8si3e1OG9idtpjRr72oafQYNdu925NZYQ21QQr2ZyJQBQ+2EdffqufrtyvBKDXCpv9ZXyy9tGqHUK8q8QSh5rkwr2/v27awBP20GkqjMK1PW/RoMIpd7A1XKljXHLKHaLyRPufdeWuX92TMPV+4q4/LKBlJwMSjHXVlB83y0QWOzwDxO2ckMmXm7o4w56xnRVd/5kV7hc6vOTuRVurQvo+20LjODkJHLoIEwtTtkUVb5Ewciph4sLy9X26EfgC1yj9ypH2SVPokpSiLi/E4pH8St2tAxQAlH4SfBJUsR/pRlJUQ4VSjkT97Xw/zejpe81EZqV4kqzw0+GlgZbcvqtP5BUOfn+sIvZYLF/8Rn2UU7szS+MOCbPNPHGHBQTrW58Kh6sgEAUxsicn3fwG44nH5v5neD4C5+JO5kR2VJMsKgszbfUhVlpPp/+VhXcn0lu+Tk5S/hqnNmKxmchOe07Eg9unTbJQ5lZftdTXq3X560RI1AI7DdEZh3OCXmvG1nEKLkHchOtbt2ZU1YNgeKZlOdAwVYx0dJKYUiHUJ1QvlACpBH5KSU7PQXFB3k5/5zY4ooP9OfOM9nHWYCjPIVYnB/iGs2hrlDWFF0KJ87KFV5r+MRllFrF+WsptxGeSqlM+GwAvDD3XRRZnfscI7mICCszIiWDZB0dnZ+HoRgnr6SfRDSidiWQkCESk86/mBW53LmfoQDnkGOxG3UmlLnmXvEzLeBANYf8VISpGHvfNr2uZzLys/e7IhNqUPiXKVM6LXjB25wEb7fU5zChR+lDmEn3yCNUSojg3s7Dts1e0fOmqxwkn+wpFCKg/I//A0/Fy5kEyVyxq9zIM+E7JseCkc4e+4yYCBN1s1SVlh5bahjmvBE4EYaYDTkSLBRaDJ1PH6fyjpGU0BL6U66yWZdog2hPs2GOtYSv/XWWxWmQRDrLRHUH//4x/VNnon4isc/uFCW5B8iAW9T80zzVa6nHVh3JD3SIT3e7U5+3Je1yJTpwJFyh+RYh1pQqBTBnpJPARtxWF9+772wKzgqn+WawYXpb+TTKB/D1dpPfrmZ/pAq63AfeuhgpWPIHNBGkVjreeHOgNLT+56ueBEUymqlTxnIv2u9EF7rpCndBifko7XyLE3yRP1EOlzXHsu1Srexvyk/prdTeR11PqQ2+Xz33fsrv0b9lOeDLMj3u2IZUhYvxILIjzJQV/JAfVNO7k5bpf5Px7TAWN30fu9elsa0b9ynLBrEY8VVD6d85s/gG9TsoqztksVnzqSuVf3PjvjBd3+V4TF4oS6yuGkGK67k8913x1p891Dewyer/VCf5ZPBS+k5c1bbmcFN5wnnh3bRpaxxpy3wfuQgGZOWpHlKdiJLnU27XqQ+y1AiqzZNWqSbV+X9rrRh5NIeKX8CEL8zoaUJwVKQDQxqm8RTYWibLmSwMISOG4OL8oUMo70ySJpylnSVnMLNP2GV2PnwTd6pfYS7P/61RciOwavJJbfydrtfBu2OHh0zYsySMdCKtCK85J8GYqv/g2dQqDY7gxIIr3Xc9qZ4880jmRn152B8d844/1lZ1A08Gri61KV+jzIy8FrETL3yr4C/VCBX8K7SEqKrL5j6A8uL9DHyUMbLrpFjV55vypH6YJNHA+vi0fdUH5nyfKtet67ktyriLXcj0AjcNghE/8g1COzoVoZism/n2EHWWx2ODkSnobPT7UwWNu+HcoKkUnKENabN8jN1VdwJZ1KyKJqTkjKIKWKCBOQjDleOYpjz2CLA9X6M5lNqKF+mKRvlni7EnH8yeOybUsBaUMoCmRIORQ2R/+bUWO9FbkoYWabf5EkI+asf9XxsihPSvHuksd7EYf0rRW7EWTLMd6CmrNZum1EihAenXVGC57eJ1zEmsQjOZa5Yh5gV9ZAjrwvPPMoDOCHPLPE69olo6tC990xcpKcMkWE3f6VEDJxLoSnJxShcpFw+5j1FM/LsDkktDION+wo335RXVhhrBVmjTDv+MtaET0OQTGm09tMAyaToy5ZkVckm7yYrw8inEYc0mFK/Z8/bZfWluJlibUBFvtyT+MSJ/K6xoEZeZckOzqzfrM15UnnO+styR2mP2Ik/aMzdO0pnkH/T/eRNpoeHXHi/u0jKqBf8FcHJN3kp8pM1D8aTlYW/UkDncXCbIlZ+4Lv+QkCkkXXMwAcl1MAMZU+Y4q2/dR4TzbikI5FOFjn5aSrjkHHUxSTpmi9ymVb58ccfVzxwfzjKN0sRKwzM7yhyeM1RbKlHpV+dgREY5I265negXcXXTZ4o98gp7E+fHuRLGPU/z+A76ld27E71qvat/MqH/OW9MKa8416bI/47DaKkEshPbV+V3/y2a7RLWShLpjoSf7tSHmrAKr/VOZu3VbiRXpTC0oaZXixysow/A0jiG4Nke1KePSeDb2GRVX2yCZTECY9cCchHvfdK+3rmzDgHu85XrwHJIa/wXNz4bTDQ9zRNdR6U0Ko8qmfKJUzGoFD8J04kTRNfRCQyfbsrwOZ55ZUGkrOQ6IonL/gloLQQ2rpRWJBGLg9cMtCZwSxplF7tiu+Kn9wVZiW4/Li/sZcIR/xr4l33yMDIJ598UnsSsO5a8qH9MwBagwPSL4B8S5vBhnxV+uBsfi6ru0HEI0feqIGFQ4cOjb4iDvVD/K2LdkWkCrvaMmVoPN7c9Yq3K/8xj9vgtTXf/lio5aFNErWxfkvTkHEzSTeOkmtya/vNfql6lTLhuwLkoBK5sf/t+rRJ73bNmZarEWgEti8CehIKQC5fbilV56N8jVdzBSIdBN1D76ADKaJZPca8t/CVv7rznT99SXWm8eDbVR1NXvpHET13IRaJUljK53yToCidOrn8o7y7WE8oQLvvHMoWax2lsSzP6dSRL50AsuLSSa5855Hoi2AnXn1dkc3IwbX0knYobcMSPRe35OYPqXbViDN/cwWs3sXxIPpRuhI41etCiBSFg2KSCYVz0lNBlN/CBUhchzC4PBuKMnlcQSmvSolMWPCgFM9FyfOhCJTLuCtFMLG5xD2wT5jxN8Jajce995PFZ8Kr/JTSNNLEeh+nw12+hxIaLEOCC7dgQ6F/4okni7Q5BsUU0fezi61p1U9lZ1YDDXAjH/WspEnCpM1Ux4qA0LmkVXgs8jbr4beOLgrpQhCsybIjsum1RXqR2OEVWhWPaadImmOeHN9kyqVpfNZxUcYpypXexM9PvoBXeWz961zAkuVMFYTE4H8JznH5qPeTFbZmGyTc0s9TNq0dPneHtI04vJDejS5rxlm3KbbWbJPVbstjwGeUi0mMFf8LYQ2SAdvhdqV8SFvhzPGCh5VANv9R8fEVb/C0gQ7Sa+McU1tNqx+7dptauXk42+FN1auAUoNMIZe+lQFpJPrAbaRVvdF0wI2DoWyP9muqT9oe7tT1EY4Qhp9q3xKidkj7VtbOvDPIVDsMJ8Y8zjvxDnI45HM/yZS4yREZSr64PRdZxkyLMT0Z6KOujnpYbVueqWdTnkufuLSYZWFOYKy13E4kdZK/2vN4GINBo9xIU3qBikd8ZKnZA0n/SCcX6vCwkPt9IdZa9Vw4LlOUXVP7Ujt2R6hzCexCzozekdMCyEvWFRzyu/AvnwvpVLDzTlh3Jh+5OZP0wJI8w4+6N3Akh0EZRJqMSO+UzkpMwhenazW+ut36j6Q/3VaSA9Uh79pIh1yeleyxfrpMLb8vg4kGx6S5ZkNVGuBkcGJsoChdBsHMJKqJKfPgnI2sr5zaQ9gQoYJYjbLimj7G4/Gp3PPgrsofrKUiZWLCdPJ3pd/KqP5V/tjM0SCbPNTeGxTVJirXi3JcadjcyduqF5Hx/B2jLsO0ZJ6//y7yX40s19Ntk97riWaH1Qg0At8fBPR46RB0XnW59RdlIpxsdG7p0aq707f54Yqb8Xs8mB57XmFVTzqcXvTJIw9xO13VicYPb+dLIxAQB6OT5a4svfkuwuV1/pFskM58888HJSjfFMURbt0sRDekreCFMCclFCqdpLeDgA4R5mKMsOdiDb9xuO7yvEL3TUlIeDG6RHmJgqqHn1/kEke5zTP+VmTNPYurfOGAr/F+uBlKGqzImrdkzt+kXM6jWPmqcN0JKFecjnBLjxyYezQUxiEXR5TtSTngTwAlx/hZ8rLYIqnffPN4bXCGvNlpFPG0WZc1jjt37i35pjSwxA+aNtIjuMI9cRrZR6yWlpaLPDvjFtl29JIjmGy2Q2lDjl0GPijRi5f0GnAQvymT04Y7A8ekKfGMXI6v/Kain08ZqMGNOFKeXJVfCWsO29zPdFdo1DvpciekwrE8+8iVB5WX9WadoN6nTCDNLFLSXWclx0LF+iUdF1+RPI8VDZe0UOoIMtIUKZCOvPc90jrcbvgprEoj+VflYx1ivXduq4EHVjKDDaz61pDK9zXlbdXrhtHc1IeFVz5y+dS2qYrrRa77PK+BogI4iATfwqfyQp4grsFK3YGbcBYCcu+v2o+4WSlrFc6qn+FP+HFLmApnxEcy/iYBuXVjIz/uKmxP5HMS4366Kr6535IjMhRXmRzwN/8nrHKjrOVfzfJQdPJckoQ6Qp7LEsflbu7f73EN1xfhkdflZnI2hZpwyOyPT3jnZ67ysJJ271zCdWlPa8ChyvUo3+HZVQ4ludov7vLbOmIEUdk1XdZsCt8VVt5zU1fCdmwQTG7KJcmVvnkaI5g8dJyQY7Dsbu/SLmrLzAQxU0FaV/I6Xo33Thh6blbRnj2s3DlnOoNV/NYAZEivAUP3iOUc2sqnCWfxFR5wggvRCh6y5WfuU6zqcX1O7ni8xssAt139DbIZJDJYqd22NMA65Cm2qw++hEvLnPad4EKaEi0xucZn/bxlPpr03jJZ1YI2Ao3AdkJA+z/I2OgcqpvL1M07dq70dPVe51ddRj4GSay7eVJGZ8iB8EpfnL+uzS/m3eNwPO9oKDDVgw4/3g23I3w9a0339TzuhMv6xbffntVRC3ng6fTM+xHD/DvuROO9yxdCwdF4ZFrevAvJg4mYjvBiJQlBuxBZ65+AciET/i4EIx3oeJrP+j+++Z/iEdEU/2I4FdgQIj+Fk38jsHolPP5q7XO9T7w7hrvhQPxJO6XZJZ7xq/whi/VAOJ4P0ebxJC5KdD0f3zsr8qSL0/z256pw8l3GlnlCamABDlE6WQ+cc/qjH/9o9n7OIGUZdP6odaDThl7yygWvUkCSjuneyLuLQmtKtGl8FDubCAkHqTOd1lFNdvQ29ddFvIgQt5l2nTAQM7MCkEdKHesB5ZcCVVfiFuuUZ0OC8UpaKVcj7SvOuZ7fTL9Gngtj4D4nnQjvHK/yMAU+hxj49XPlfgRrl14k3pRF66MppDYIk5bpmkjsuJeGhDUPX6ircs/jQIJdkWejOMfL8Sm0MSUyoRr0qX/ZlC2E9/0P3p+x3iPlNn46fPhw5Y3NtyoPU+6GGHxNCV4M/eb/JpnyCwd12/cownMcF0Qc7cuUQXEb/GAfWrmSt56V/wn/VecrbUfFGSwrsvl7RHsFoZUfI/JRbuJrytTyOLzPf65KmfDGoEzk4D6zSrRDrqn8VXnJvfKpaajJJOUEaVyQi2x5vtpGT4mZZB3hkkGa6qoyVQ9SBkd4U7y+p9/cLrY/0706LlTuVjCZR8NNxVUdyPjtUZW1pFWdi8fqBzicwpEk1xSMNGpHHP30Re1u/3VmUvylrIhl5UtYo82In8nTCOLGfCbOEa0ymH9pu3wP/Fjmd8y+OPV1dnM/WutwkdOJuDp6z6V9GP3wwFx69GPnY0GvNlafFazOZObNRx9ZnvBR6vHZ2kwScbYh5BgsG8JM7Rk5XPyubXfyMGDpb9Ze7kd5WPv8yu4STaVDeuokghB9GwDKP7N9tIcG2K79mqcvAVyktyTy9am59nhurM8mvTcW746tEWgEbiMERsevsxtdQPrLld+VzOo3Rmfo3vtSH6dHuR8+vS3H1XVWl1KK3Hg7KRg6urpWfky3fIzAxvdQbCqwEezcow7Mn4DiJu/G/crreYDeTtf8VxwXxZpkz+tSBKfwJyHn3oYiUtJMAa3IWHF7Wn4XAqxHFITxjpOVa1WgejQpGXWz7p1n3q+IlPdrJRnvC58KYHxM7guf+HE/RzIOKpByOPBb8BgQo+qUk3o6T9fkTjgVVuEeZ/mmgMOv1vaGbLEwGK139BBiXFMa42nRGjVEWE2scKY/U+7uu2/svMpaayMXyhlFbdoFm/9Ks6TwS8FD/hOPKczcmhqH5JCtpvGNFK8kttIyvytJprBWXAwYZGFd8zhX7vPQb4+naX/lbvqoQMeNuOpaeDZ/UrKxlHNyMBtjOYoJG5CWQdKSrpAaObN6LZSaPC4M5i/LnWerji/7KxCOi6B+54EYkF3Y26Va/j7xxBM1+GAAoyRYowBfZaSXleo6OSixRgJHnk+ZIXy/F+TO7QKyBcUF5UudyJsJ2+FzMZy5vzya3BTNHtFyHgdr3Y+H45OzkQeLHhZdLP5elXfEJdx57c7Pkn8ejDfKUSVzHoSyEuerV90uPvCKz3GteVNCloeVl2SoMFfcDx8+Pa8iMpdrxF1Sl2uEvCReja6er5HPk4qyQqz3k7/hWD3xa9QXv5RZA112OXYk2pE33wzp/bg2YrP8YnemRyOWRcCnNPG4hddKEguLEdHIv6n9GHhJq2Uf0zKNEzmy6p4QP5vmIYI2H9MujOIkVG3whLX2NmeTZ1mHEnE+5/B+GevpRx99nP0RPq+d56fZL9Na2WFtH3locAeO8gksU9mZ7ofU85Tkq6ArCUjx3S5WeAOciC/ybimFwUAnCnw30itFLunyvV7S3K9/xNk2v5r0bvMMavEagUbgFkDgEorZhtLfqM7iOsQzOvGkIj9Wgkt6q0PMx9QxbpjOfriKQMAbJACWq48pmna0vZBNjlhTzmTTHRtIORbCu80uuTFZ+LmRT7uzIc7dB0L+YtUdxIsVY5wDuiackWnDIhFeUkQxiltU2npWZFF+J0xF23cp3glkMb+LzszDqvAX0rUmvvnNFMZG7zZ6Jt7NLkdImYbpQs6t/bRJFgzPn592sU0ANNv5danwJjdX+l1Ww5BYijRlu3DKQMFYW/3AsAjFkr8n08zt/Cov4VzTK+NO/g00V+W70rhvBXeVqkpiPm7PJN70bLjS8ryRO+XQrsxVJucpMUtkIr3H3ju2QiD/kqUXdiBXzxAp7YzyblLFmkG5rUIkcU3tjnojPQblduwaxFW0Z7MO+lQ2Vjx58uv85UzjbOqk3j2Qc+bt7m/jwlFXEV+h5a+AUX9DeO1pEMsuy+n9IY5/+fTE7KOPP6nN/bQzjz2W82mz7MOafDKY5VEzptxVfR6nGgiWLAYYxoyqdYVfdZgGvda9uir4Ej7sbTxo5/+/ZOd++efYP/swOO/cBmh9rUWgEVmLR981Ao1AI7ClCHyXfu5qBLue8UxKU+kK64QY8cwtJnPVZJ2TW/z2+iBJUTK3NrpKXbCkbLGaIETWYD2aoyGc6ez+orWf5atCGf5NNaQ8TeIlPKSSv3tyHIt4WGVcpnmvyTt+5qakiYhSIqe1W/xUsAlP3g83CxFxUNdqelYlm96t/b7c+7WuL3/HMr1330jfNC2VnFN6ViW7fFjX5CJxBbLCJ9lYijSE4H/vvffMLtyT85izfnrsyAv/Kefjlkac/Jtkvab4t7sn5SZlbLFMbXeRr02+qV5cm++b6UvdrquKZupO2iLrV2u5QIif49SsF3VO7VdffR3SNy0dmGrzapm+3ukQck12yvcUS8UametdntdsmWqgbBp4Omfqnqi19DZ10oZaqoEEWmozBqYUSv+z03ymLJ88eSp/X2b98udF6s2OUTcd/fbhhx/WkUfO2L4n9fmhnG1vQIA11YAiy3DV6QgzteORqNpzcpWME74L4NSjDZ4vOLnin5J++syp2cexSNtl2hIV05rNLjFjx/KNKafWBzowHZ/r393O9016b+fc7bQ1Ao3AbYHAinJyE1OzorOv/IgwC503BYXlb1VFuYnCXqeorxfuFc4iPvXbRjoUpvxF2bRil3V3TxGiQBtFrYho3Aw55urLHPOyFvg9h7xmKi76zXOcV3atrk2cu887MZaVZ56fFV+9FuC4EMcVpWn18fT6ir+vF46LEQpzl+nCkZ915nwSyZrjInPFKZ3fQe7F+Nb/FiwjcuBdIa9kMdBgOuXANhahWNNsNkOOaSBjKMzxl7XhWyXfenn7/vojcCvnXQ225fxsdbyOPjJwE4iQuiKLLIUIXojvqVOn5+f1Inqx8Kad8e1v667R+ozwRzsEb1GWDLUD1ajf9if4OjsYf/DBh7M//flP1R4gqNKB/H2LoH5zJmulx/RsdRQxfvfd9+o88z/+8Y+VPtO6ndXNqv3uu+/M/u3fXktc52c/fvDHZeWdlnuo20V8813rivNteYr22rnlpoG7xmBY/bzuH7BArh1L99EnH4W4fxoL7wPZLO++SrO2ptruuNvouh37643Suf5Zk971iPR9I9AINAKNwMYILCg56/vSMjpShDb22U8BtgAOxY1CFc0k5DcEN5rbpCxNDrnZ7FpVuOc5EbdFfPO98o7/6W8loDxggfN8LtBkIaVETdZHKufkrpwuCr8S1s37McSnfPsbaXGszLhMe1xNy5ZKGfhhRg4Q+Y0sEGk65oaA7imh3teayDyZ59yWiteBNwIbI6DgjjJZ7808yA9lF1E0NfjeEKivvjo5zhCPJdFmeHY1rrIet8pzedo4guvwdKXWVDzuXFP853U66lbq/VchvXbAd945+W3mZI+COzPbAkF1jnPVSVO6T5+vTap+97vfzd58861sHPhJ+bFe1+yMEyc+iwX4ZG0oaHMo4Zgy7Mgjbfa3GWRjFT4Ry7Jp0cIXp40A7w1u1g8jwOOapJ7fXqcv6Tl7NjtVJ72fZ92xtb2mX7NI73EOeNoZ1/i8ONLva3/dpPfistBPGoFGoBFoBBqBrUNgrisOsmY37VWr7oiUqmKtmbtJaUKcoma6nTSZuWLDlWsiXtQ7r7J37vx5fY2P+BfSFPcIYpBER7uwXrrGETP5wXo8/tfz7fIhrc5Llo5pGjfl01Vr6ZKQUsq3UGBxy5OxW2vyKwrxBWb1DGCYKkrxZX2elPR6FsDvWLEETfmwhUJ20I3ABghU/clsZd/WuqrjZnuYFsyi6dibJ7MBm3WurIjvv388R6s9VeSvmgjlOO7NOBltyAaRXIdH4hJ+xKu6Tl7/prptajHC91XW8bLQmvXhiDCbx+3PkhE75Lu4swb2dNbA2vTpjTfenP3zP/9z+Xn55ZdnL7zwQnZZf652zkZwkdnXXnut8DDd+8GDD6Yu35k2J6Q3mw2a9vz666/PPvjwg5yT+/XswZDNn/70Z7H4Ph3p9tWsjhK6Yr/+H6dPZzp38uXjrDv++uuvKr7HY6m29pi12lnPtfv6VmbO9U/WlofYpHfLIe4IGoFGoBG4egSmTl1nP7p839NTv7/rJeTJ4nelYQ1pLuX6aiW8WveXivt6vluL+xTylUs7uVwMp5TFYF5XvpAlU/NqVD739WZkSxS8hFBz0ObuJxEu800hrP++ynqzgX9x5K/i9XvuZI1LN/UuP7C7uqZUzW8v8TW5HD4n/+s9TK7WP7/8fSm/JRecJquKUQKEf3q2Pt5rj2+9RHAuS5MXsMrfFDqxnEfr2SrxzW3JNaYl8rZeOs9ut2vC5OanC9oyynUx8lcr5wjh4nBG+Jt9Xm0sJJ5k9sV27AAAGuZJREFU3izMa3te1DFlVArUpalsIr3W9Vob6oxv04BZUI8fOz776kfWvMaTQbrvSKakawoCGT2XAaszIZMnY1mezgi2Cd/ddx+onc/3ZgMpxHXU+whdVT7HMIXkIqg2rzLFWTrsXoyEstpWGxumY/mDQTIW2nfeeWdmSvO7775bbkxrdqzbk08+XlbbL784WetiWX5ZvqeNodRlyxXEwdJK1o8//rgswqdDvF988aUa+Jo2zALuCkGPH+mVm1VqfMzv8+vyF8+uYDU2sPomxzL9qf6ke0/SKr+QfXJf6bVZ+ap+pAKZx7tJgJv538T5VTweAGlLN78u+XJDb016N4SlHzYCjUAjcBMRWOhnivfMFZ96vPDuO0tYPcqVBngFHcyVBjUJfrXuJ3834HsV9ynd8+79SmRecLMaToTO84mela1ifk5oKUeDr42UVZTzeBfCuijZa/JvuC8pF/0s/l4MIM9X1gXPn689b3UoZ5TMcX3X9E/hTEJcRXiTl4VvVqZdd1BhhpXaKwoqqetcyfGrPvOR67vFN8JY+ExyVhTD/KYIj2t8F2zzJI9zLocEnlOK5688vH2v7Za2lbK8DvJrkHO1Xq/k5LpA199eQ/m7BrnWx7rZ/aj7qSsZXLvAYjsviEiv87wRvTq6KDsDv/XWWyGHe2LRRCqHNVh53wzOzeJcfK667MzMEjXh/LcXZqdYLrOB1FtHj85++ctfhkhmA6lMFX7uuWdn/+Fv/sPsyX1PDLdId647siTEZXaHzbZM87U5FXKMKN+dKck7spGTWrrLbtMhvdoy7kxrZqVlLX3ooYdqWrLzzE2F9uzUqW/qrPK92Xl9X9bnWxss3CLcqbumPJvGzI8z1VmOVWQW8rvu3FMzTRJtrYfmB1n2V4NzSXdtZMdHzTHOj8tc1bYkuYoDzC/E2oy8H8tAxPvvv18DE9KB8Dqr3Q7Tk4X7kkFfonxN5eNS/qvMXCKMS/m9ondVwDaL4Err3dqYmvSuxaPvGoFGoBG4qQisb+KrX5za97xc//67CzsF/t1Culq5rtb9d5Pu6n1PuE/olLz5uFq5p3BKggX/I5yF0KqDXyvnwtu1L9bcTRLOZbsyTyMd690mqAU6tiaWcpqP9V7WONrgZkr/qpTD0bWGN0VRHHPFwjue7hwP60Z8g5iMd981vhHKus+FRAl/lfhyt/pyvVVsMauvFs91Emzb21slXdcq52blerMMqXjycaXxXam7zeK73PMhf4hgKslEePlRhnfZAT5E76kQqA//9GFZRa1ztTuyta4HQiptlFRthWJele1yMa57Dwu8NSSStfabb76ZffrZZ0Xijhw5ku8PyuKMhCK+rLe1jCDSFvlMpIgkS7Qp2NbXWlfLnTW4pvhOlmH+ziWd4vkiBPVoiDWyyKJtHS6CXzszhySzNtsJGZF29rfw7s9a2QN2bs6AgAzcmcE1u7KTwwULVuW77sxu7fPlDOKCy9QmwGrIHQ9XkLkV8gqu+VEP8pU4/cHrg2DE0ixupPfBTMO20/S4Vv3MH6z5upwIK+VjiniNb0mQgVeUlHU+r/Z2nvCr9baJ+2nQeZPX/bgRaAQagUagEWgEGoFGoBFoBL4vCOzft3+2tLw0O7R8qKY6s6j+OTsjf5CjfFh8i+8VHynqO+6vARxTdc9mB2Ik7kQ2ZDJNGUm1YdTHH380e++994oA/+WTvxQhRfisV/WH1LJ4mqb8STajejzrWZ979tlYZffV9OOJ9Jaf7EItDsT9w+zy/FXIu425lpeWaypz7QsQEsfNh1mnK7x9+/aGFD8ci+4DweDu2iCKJRyRRcadj2sq9lgDnQ2sYgFGA89kg6mzsTqzZO/OWbnlJ88RYTu32zfBPg41RrcZZsVZx3pru2ufs5Y4aa6dqBMWsm898eefnyjivrT0TK1hFhxM18wm2SyO7+HztvR+DzO9k9wINAKNQCNwZQgsWkGuzEe72giBm4XjzYp3Iwz62e2HwO1avu7KDsAPP/xwpss+EXL4SG2YxDp6MBs6PfDA/bO7YwkOd4sdcExR9ttu7/XwSrIZqctM5bH+NVvuhQQimXYffjaWXWtnf/e738/+/Kc/z9555908fzjk8q4imHY/R2hPZVOqk5mubAMrxPZgyCmZd7HysrTWRb6xk/qZ02dmX+e8YUTR5lcsvA+H1O7fvzdW44QZQop0O/oImXXeLUsvwv9lzvPduWN3WcFZmBHbL7/4sshnWYJjXba29k8ZFHCusfDuv//eWJ1DljM13HFJtR66mO4gvBF508sr72tIYeU7AwQh06dzhJSzhFl5DRg8/fTTs2effS747a/BgsqLxFPfm2bIJSLfVKpb/0WT3ls/DzsFjUAjcLsjMHqv2z2V2y991wv36xXOzULou8r/Xf1fa7pvVrzXKm/7u7UQuI3Ll13HD2Q960MPHZwtPbNUVtb3cq6tqbTPP3+4rJW1O/ycuaFQVwMHb3U+cLipta73hGAivayvzz333OzgAwdrzepnmVZtujPyaQrv/fffV1OXT58+FeJ3YvZ5CO+uTDXes/euhHEgZ53vCUk9X5Ze1lRSictSYJZWBBZRJG8dzRQ/+0Lwd4akfnPqTK3P/dOHfyoijUzeffc9s2PH38+707WDs2OBDkRWYZ0+c7qsvvdHNut/WYhNnf7gg/dr6vUz8f/kU0/Nnnj8iVpnzAJr9fRYlhwJCHHJa+4mwE5LNRD9D0OsbSyGmO/OjtI24XrhhRdrLTYLuKPvisTzvmkcCXTzl5eU6lZ+2aT3Vs69lr0RaARuewSuRpG47cG4gQm8Xrhfr3BuYNLXRPVd5f+u/tcIcxU3NyveqxCxnd7CCNzu5csUY0fe3Jezep8NCf0qFtLX//D67P3jx2taL3JqTWxtHjfnZvjVleLCgjlxLgR7V4ja7uzWzGrK2st6+9hjj9YOyX/KumJTmB0txMLrHNxvQ1ztXoz4WX/8wMFYn0Ng78x04vPnzxaxHBvIkWhIVZtwJS4bVu0OYXUhwadjAWYx/iQkGqFkQbUjNAut9H0yn1rN0rw364bvjF/ToK37dVTSt2edA3xuxpLMimxKtmtv8EGSv83UanOZ76gES7e/uUzl8hIfcVbrgjkPwN9883WFT07Tqg0EIOePPfZIiPugdI5Gqz9HUW1yDezngW7i5nZ83KT3dszVTlMj0Ag0Ao1AI9AINAKNQCNwDQjUutBYYffuOzB74fkXiuQdffvo7ERIHQJqarCdgllCxzUIFjJ1ybWq62QxVfiukF3XsIBmHWzI3AMJ/1DW5zoW6MuQy1q/GiJsLS1i+1VI6buxPCPjNrp66qkns6b1QEU+1t06Wck04hC7kmlHbThlrTLZWWqtB/4oBNcuzJ+d+GL2bsjqkSNvFpFGrhFZVmHuhDWtET4Vqy9Sbudm65zvzk7OdndePnSoyCa3/NnwCsG+885Miw7ZDr8uWSqx4MI5L3Nxwgpd6chvZPvoW0cj90dJ81OV9kcfeXC2P1bywj5xr9847zJRfK9eN+n9XmV3J7YRaAQagUagEWgEGoFGoBHAuzZmXqyRiK/pzCyuJz5/ZvZkjsSxedOxY8cy9flAphPfU1OEa5pugrEudyJnV4YtMjc2dcIBkUqXacn35JxgZJYl97XXXpt99OeP6o/V9Xwsp6ysdpImJ2uq6dB3Zi1vpYiVeoejy0bqil/mN8vo/VmPbPr03pBElzOI38tUYVOkEeuvv/6qNu4S7iC3XxaR5RexteHVV/OzhA0AfP75F9kR+ouQ0VNFjJ1v/Mwzz1RaWMNZoe3uTBZkWLgulu46Lmpj+EeukB+u+Ts7P8N4bCb2QZHfQyHZhw8fLnlZpKfNqyqKfPieR1dxXvwxZLn4+eqTzcrHqotb61eT3lsrv1raRqARaAQagUagEWgEGoFG4LshsAnhWgzUETz7d+/NzsiPzn786o9nf/jDHzPF+f2ylD4dcmetLYbGuuo83LHJFLJ1OUK1SqecD+6aSKrfjh1C6JzX+5vf/LY2bjoesn3w4AMhnQ+WxXdPWVHvWtkoiiCr0UrcmEZsKyuE0+7KiOgvfvGL2cPvPlyEF4k+m+nJCDPLLtIqnTa8OpnNqwS4tLxUm3k9+ODBIrA210L+WaBtiIWsm8JsSrSNtP72b/+2CLI1w3tz7NGuWLIRUjK4YFP4RMQ6D7eerv1AdO3+7DIW8Hk2zXrrzTdzfNQbOc84O0Yn7SztTz319OyuPfsq/IIxYU9beI0QRxjj9+Ln5fInbjfzuhjMLfa7Se8tlmEtbiPQCDQCjUAj0Ag0Ao1AI3CtCFyezwxSiog6nhYZPPzc4bJ+fpiNnhwhdPz4sVpHy9K6P5teDUvtIvHcXLqKfxJizr8Wn9kY6vFsAGUKr+nIji+qs3VjbXUmLzLp797EzRrN77mww9rwaWK+WTfrHGLrZ6XD8UFktfGTXZWPHXsvxPXLIrJ3xhpba33zvTtW05OZ0iw+FlTk8tFHH6up3KYX2zn585z3OwjtzpJv546dWWP853L/yisvFzk/c8Z85nFFijqKyV3hJM2ZtlwCDydrPufo147PSPmJz07Mjrx5JJi/P9sXrB977LHZE7G8H8zZvLt33+W44yLokj6Hc3BWgOSaoK6bK/i4WvdXEOS2cNKkd1tkQwvRCDQCjUAj0Ag0Ao1AI9AIbAMEwnqsDWWR/Pbs+bJWPvb447WW9ng2s0J633jjjbL4vvrqq2WZRc7uuONcSPKufJvqfO3p2J11sAgqcre09HQsqqdr+vFXmX78yCOPFBE9dGh59kgsq0gvwnvhbKYMx5q6soFVMWBCOFgpxC8yIaqssY4jQqjPZaGtDbtYqk1d9ifdZ/P85MmvKwEstvv375/dlY2sWFltdOWcXBtI2XGatRWRfTO7TH+Sd0i68Ex5Rprvu+/+ItbDwhtpJst20dONQUJez+d8XnJ8/fWpskofOfJWbZT10ksvZbfmFzIo8HjSs69kTkb5Pye8g+hKdXHejaO49sy5hX026b2FM69FbwQagUagEWgEGoFGoBFoBK4nAiyN4Yghc7Gghk3tCJG9N+tTES0bW729++1s/vRZre9lCTUdeU+O/jGVFwFlxDSd91qJL7/IrOnTzqC1bvbttxNnSCerrXN7WWvvC8G03taz8SfeCYmJ7bGzVoqKhCKwzrTNkcODDPv0f/7H99jIK+uahwl1sMm8/zqW3r/E0mu9r/OLbYLF2moa9olYf53n+84771TayU/GFSpaxDSSJBzX/GvcrPtEkOH45ZfODf5gdjxW57OZSn3vPffOrOV9Npt8GRRgvd6I8I7g5ulGhq8gznUi3Ja3K0XjtkxdJ6oRaAQagUagEWgEGoFGoBFoBK4cASQpf4MIjk2YdsR6iYS++pNXZz/80Q/Lamqarym3f/7zn8vq64zYCyFr57LG9cKFsTHVlUe64JKlM4QTmWbZtDOyqcV/+csnRVzvvfee2iTKbsyswiyqd92V83rvGjsls9iW7BXkYHyTpbXor5fIYJHLc2XxtePy6dP+zuT4obOzM2et1z2XcACR443y3lpf06vPZBdpFtyHY3VGou3QjHyz7v7xj3/MLtBvxEp7tizBNslynT8XPBLfzqx93hWy6lihza7zwc5xStL761//us7/tR75Rz/60WxpaanywZTszQnvFDLim6s+pmff3++29H5/875T3gg0Ao1AI9AINAKNQCPQCKxDACOck7J8TUTRVF/TfBEyRNdU308/tb53TwhqCGiIGJJojevmlG5dVJvc4pqmI7MkI3oPZVrylzkqyNm0rKuTddmUZsf62ESriLqPkEtyFOVbIXx+eObymbdxN/15NKeI9XbYhstxfcRpEewH7n9gti/Tip944vFMtX604oXH008/VYS41hibSp11yc7qNdXZNcJOqJGriPRCfOVg4eN0pk9/kiORTCX/5JOPS0Ybhx1aXs5O1Q+MdczSV2GM0Be8r/sZRzDpa9aktwtBI9AINAKNQCPQCDQCjUAj0AgMBOaEDCEsBping6zlR0jcg5kb/LOf/ixn276btb1HauoxEsriejDHAt0ZiytDL7p1LVf4XMVnyvR0DNAvfvHz7Nz89ez5w8/PHo2F9cCBfSGh1g8nhkT0bSypJe9sTGIdpFVAIw2mOE+kFltcIbvxXlOx877I6Dzuoqlxd064sTpL28OZVv3zn/+8dmt+/LHHZwfuztnAuWrNb3aH/vrrbzLNe2+t6zX1+S6kNwMArsIv3yAd8Xu68fV5yP3vfvfbmto8iP/B7Gb93OyxWHudY8zqTJ7MO08A14ryxnHfzk+b9N7OudtpawQagUagEWgEGoFGoBFoBK4CgaJRuGL+igjGb5FLxDCccl+m9D6ZjaCQRettHd1TJCzuPHPWrrXA34WPIa02xWJddlbwT37y0xkLqM2tWHv3hFCy7uK8oaUlqzXISG49RV5zW59z4uu+0lbPpWnuIt9FSpM4j8ZvU6zP14ZSApKuu++5e7a8vCy2OqvY1GoBkgU5NUUaDu735yxjO0G7rBHm31Wkd0Q75Kynaz/EvyOEVhjO+jW1GeF1fvG32TBsbSomvwOL6a6/L0bgjq9PZXuwvhqBRqARaAQagUagEWgEGoFG4HuPQBGDfAyC4DMkbE7U3LGSWqP6zalvZp9njatNl1h694X4OfrHmlqeh//N4ZwHuakD/hHP09k46ssvv6h4EEp/d8WyOq2XRUKHZXmQXwEOPiuGBSnmP30Nq/D8AdLLk8/xv4jvijWYs7ixXtlUZm6Q24nIktFza3F3hDh7Traach2vq/EJZsQkts0uu0PD9UxI9O5sDsbiXSQ608fF4SpiHkHmKSBSyeVrs+vyMW/m8/Z43qT39sjHTkUj0Ag0Ao1AI9AINAKNQCPwnREoIrXApm4VsjSMyxGc7JcRuiyuK5RxPWRzEnxRGON58dZ15HXxtsJeA+L68K/P/ZooIutF4l6faG6bUHp6822TlZ2QRqARaAQagUagEWgEGoFG4DogcCsyKMQvG3BNe3CtsfJeFSRsxwmsWOXwOEjt6vNhY52DxGncLhLfq4ruuziei/Bdgvi++G3S+33J6U5nI9AINAKNQCPQCDQCjUAjcBkEblUeVXJPwoeELnDWy6R4o9eLvqdAufN8orxzN1j2opONgtuCZzchyi1IxY0LcqyqvnHxdUyNQCPQCDQCjUAj0Ag0Ao1AI9AINAKNwA1DoEnvDYO6I2oEGoFGoBFoBBqBRqARaAQagUagEbjRCDTpvdGId3yNQCPQCDQCjUAj0Ag0Ao1AI9AINAI3DIFe03vDoO6IGoFGoBFoBBqBRqARaAQagUbgRiAwHUS0Pi7bUY3req2Kna/znYKtwNfcrBeh728CAk16bwLoHWUj0Ag0Ao1AI9AINAKNQCPQCGwRApfgs3Z4zjbP1zfiOqdoivQ6h319Jf3ehtak93ub9Z3wRqARaAQagUagEWgEGoFG4PZCYKKem6VqcF47MF9vcnq9w9ssBf38WhDoNb3Xglr7aQQagUagEWgEGoFGoBFoBBqBRqARuCUQaNJ7S2RTC9kINAKNQCPQCDQCjUAj0Ag0Ao1AI3AtCDTpvRbU2k8j0Ag0Ao1AI9AINAKNQCPQCDQCjcAtgUCT3lsim1rIRqARaAQagUagEWgEGoFGoBFoBBqBa0GgSe+1oNZ+GoFGoBFoBBqBRqARaAQagUagEWgEbgkEevfmWyKbWshGoBFoBBqBRqARaAQagUagEbheCGx2ju/1Cr/D2V4INOndXvnR0jQCjUAj0Ag0Ao1AI9AINAKNwFYicLlzjbYy7g77piDQpPemwN6RNgKNQCPQCDQCjUAj0Ag0Ao3AjUag+e6NRnx7xNdrerdHPrQUjUAj0Ag0Ao1AI9AINAKNQCPQCDQCW4BAk94tALWDbAQagUagEWgEGoFGoBFoBBqBRqAR2B4INOndHvnQUjQCjUAj0Ag0Ao1AI9AINAKNQCPQCGwBAk16twDUDrIRaAQagUagEWgEGoFGoBFoBBqBRmB7INCkd3vkQ0vRCDQCjUAj0Ag0Ao1AI9AINAKNQCOwBQg06d0CUDvIRqARaAQagUagEWgEGoFGoBFoBBqB7YFAk97tkQ8tRSPQCDQCjUAj0Ag0Ao1AI9AINAKNwBYg0KR3C0DtIBuBRqARaAQagUagEWgEGoFGoBFoBLYHAk16t0c+tBSNQCPQCDQCjUAj0Ag0Ao1AI9AINAJbgECT3i0AtYNsBBqBRqARaAQagUagEWgEGoFGoBHYHgg06d0e+dBSNAKNQCPQCDQCjUAj0Ag0Ao1AI9AIbAECTXq3ANQOshFoBBqBRqARaAQagUagEWgEGoFGYHsg0KR3e+RDS9EINAKNQCPQCDQCjUAj0Ag0Ao1AI7AFCDTp3QJQO8hGoBFoBBqBRqARaAQagUagEWgEGoHtgUCT3u2RDy1FI9AINAKNQCPQCDQCjUAj0Ag0Ao3AFiDQpHcLQO0gG4FGoBFoBBqBRqARaAQagUagEWgEtgcCTXq3Rz60FI1AI9AINAKNQCPQCDQCjUAj0Ag0AluAQJPeLQC1g2wEGoFGoBFoBBqBRqARaAQagUagEdgeCDTp3R750FI0Ao1AI9AINAKNQCPQCDQCjUAj0AhsAQJNercA1A6yEWgEGoFGoBFoBBqBRqARaAQagUZgeyDQpHd75ENL0Qg0Ao1AI9AINAKNQCPQCDQCjUAjsAUINOndAlA7yEagEWgEGoFGoBFoBBqBRqARaAQage2BQJPe7ZEPLUUj0Ag0Ao1AI9AINAKNQCPQCDQCjcAWINCkdwtA7SAbgUagEWgEGoFGoBFoBBqBRqARaAS2BwJNerdHPrQUjUAj0Ag0Ao1AI9AINAKNQCPQCDQCW4BAk94tALWDbAQagUagEWgEGoFGoBFoBBqBRqAR2B4INOndHvnQUjQCjUAj0Ag0Ao1AI9AINAKNQCPQCGwBAk16twDUDrIRaAQagUagEWgEGoFGoBFoBBqBRmB7INCkd3vkQ0vRCDQCjUAj0Ag0Ao1AI9AINAKNQCOwBQg06d0CUDvIRqARaAQagUagEWgEGoFGoBFoBBqB7YFAk97tkQ8tRSPQCDQCjUAj0Ag0Ao1AI9AINAKNwBYg0KR3C0DtIBuBRqARaAQagUagEWgEGoFGoBFoBLYHAv8/h71G/6CMh1gAAAAASUVORK5CYII=;" vertex="1" parent="1">
          <mxGeometry x="430" y="650" width="200" height="42.85" as="geometry" />
        </mxCell>
        <mxCell id="lvLE3vNrhDZIhafgaH6D-5" value="&lt;li data-start=&quot;1838&quot; data-end=&quot;1882&quot; style=&quot;font-style: normal; font-variant-caps: normal; font-weight: 400; letter-spacing: normal; text-indent: 0px; text-transform: none; white-space: normal; word-spacing: 0px; -webkit-text-stroke-width: 0px; text-decoration: none; caret-color: rgb(0, 0, 0); color: rgb(0, 0, 0);&quot;&gt;&lt;p data-start=&quot;1840&quot; data-end=&quot;1882&quot;&gt;&lt;strong data-start=&quot;1840&quot; data-end=&quot;1882&quot;&gt;&lt;font style=&quot;font-size: 9px;&quot;&gt;Take /Return a&lt;span class=&quot;Apple-converted-space&quot;&gt;&amp;nbsp;&lt;/span&gt;&lt;code data-start=&quot;1849&quot; data-end=&quot;1858&quot;&gt;d_model&lt;/code&gt;-dimensional vector in/out&lt;/font&gt;&lt;/strong&gt;&lt;/p&gt;&lt;/li&gt;" style="text;whiteSpace=wrap;html=1;" vertex="1" parent="1">
          <mxGeometry x="1060" y="700" width="230" height="10" as="geometry" />
        </mxCell>
      </root>
    </mxGraphModel>
  </diagram>
</mxfile>
